<svg width="8" height="12" viewBox="0 0 8 12" fill="none" xmlns="http://www.w3.org/2000/svg">
<mask id="mask0_301_2937" style="mask-type:alpha" maskUnits="userSpaceOnUse" x="-4" y="-2" width="16" height="16">
<rect x="-3.89189" y="-1.62162" width="15.5676" height="15.5676" fill="#D9D9D9"/>
</mask>
<g mask="url(#mask0_301_2937)">
<path d="M0 12V10.7027L0.267568 10.5405C0.445946 10.4324 0.640541 10.273 0.851351 10.0622C1.06216 9.85135 1.25405 9.58108 1.42703 9.25135C1.6 8.92162 1.68649 8.54054 1.68649 8.10811C1.68649 7.98919 1.67838 7.87568 1.66216 7.76757C1.64595 7.65946 1.62703 7.55676 1.60541 7.45946H0V6.16216H0.972973C0.745946 5.80541 0.527027 5.42973 0.316216 5.03514C0.105405 4.64054 0 4.15135 0 3.56757C0 2.57297 0.345946 1.72973 1.03784 1.03784C1.72973 0.345946 2.57297 0 3.56757 0C4.33514 0 5.01622 0.210811 5.61081 0.632432C6.20541 1.05405 6.63243 1.6 6.89189 2.27027L5.69189 2.77297C5.52973 2.34054 5.25676 1.98649 4.87297 1.71081C4.48919 1.43514 4.05405 1.2973 3.56757 1.2973C2.94054 1.2973 2.40541 1.51892 1.96216 1.96216C1.51892 2.40541 1.2973 2.94054 1.2973 3.56757C1.2973 4.08649 1.42703 4.51892 1.68649 4.86486C1.94595 5.21081 2.21081 5.64324 2.48108 6.16216H5.18919V7.45946H2.93514C2.95676 7.55676 2.97027 7.65946 2.97568 7.76757C2.98108 7.87568 2.98378 7.98919 2.98378 8.10811C2.98378 8.64865 2.88919 9.13513 2.7 9.56757C2.51081 10 2.28108 10.3784 2.01081 10.7027H5.18919C5.62162 10.7027 5.95135 10.5892 6.17838 10.3622C6.40541 10.1351 6.56216 9.84324 6.64865 9.48649L7.78378 10.0541C7.66486 10.6486 7.35946 11.1216 6.86757 11.473C6.37568 11.8243 5.81622 12 5.18919 12H0Z" fill="#3A3C3E"/>
</g>
</svg>
