<svg width="86" height="80" viewBox="0 0 86 80" fill="none" xmlns="http://www.w3.org/2000/svg">
<path d="M8.40039 38C8.40039 29.1634 15.5638 22 24.4004 22H56.4004C65.2369 22 72.4004 29.1634 72.4004 38C72.4004 46.8366 65.2369 54 56.4004 54H24.4004C15.5638 54 8.40039 46.8366 8.40039 38Z" fill="#175C4C" fill-opacity="0.15"/>
<path d="M41.675 46.75C46.0243 46.75 49.55 43.2242 49.55 38.875C49.55 34.5258 46.0243 31 41.675 31C37.3258 31 33.8 34.5258 33.8 38.875C33.8 43.2242 37.3258 46.75 41.675 46.75Z" stroke="#808080" stroke-width="2" stroke-linecap="round" stroke-linejoin="round"/>
<path d="M47.2438 44.4438L51.8 49.0001" stroke="#808080" stroke-width="2" stroke-linecap="round" stroke-linejoin="round"/>
</svg>
