<svg width="21" height="16" viewBox="0 0 21 16" fill="none" xmlns="http://www.w3.org/2000/svg">
<path fill-rule="evenodd" clip-rule="evenodd" d="M10.7922 4.30778C5.00619 5.02559 0.94397 9.93491 0.0434458 14.2905C0.0345201 14.3337 0.025905 14.3768 0.0176019 14.4199C-0.161704 15.3497 1.06873 15.7811 1.89653 15.1711C4.5145 13.242 6.63938 12.4354 8.81047 12.1658C9.46204 12.0848 10.1178 12.0523 10.7922 12.0523L10.7922 15.1379C10.7922 15.9045 11.8595 16.2884 12.4838 15.7463L20.5119 8.77452C20.8925 8.44399 20.8997 7.91003 20.528 7.5719L12.4999 0.268078C11.8826 -0.293471 10.7922 0.0859238 10.7922 0.862235V4.30778ZM12.774 3.00996V5.05409C12.774 5.48232 12.4114 5.84538 11.9232 5.90594L11.0725 6.01149C8.29894 6.35557 5.88882 7.92597 4.18751 10.0707C3.57421 10.8438 3.07746 11.6615 2.70135 12.4793C3.43838 12.0507 4.16061 11.6954 4.87942 11.4056C6.93344 10.5774 8.84226 10.3313 10.7922 10.3313H11.7831C12.3304 10.3313 12.774 10.7166 12.774 11.1918L12.774 13.0604L18.426 8.15207L12.774 3.00996Z" fill="#86878B"/>
</svg>
