<svg width="66" height="66" viewBox="0 0 66 66" fill="none" xmlns="http://www.w3.org/2000/svg">
<g filter="url(#filter0_d_301_2993)">
<path d="M33 35C39.6274 35 45 29.6274 45 23C45 16.3726 39.6274 11 33 11C26.3726 11 21 16.3726 21 23C21 29.6274 26.3726 35 33 35Z" fill="white"/>
<path d="M33 35C39.6274 35 45 29.6274 45 23C45 16.3726 39.6274 11 33 11C26.3726 11 21 16.3726 21 23C21 29.6274 26.3726 35 33 35Z" stroke="white" stroke-width="2" stroke-miterlimit="10"/>
</g>
<path d="M32.2375 27.2377L28 23.0002L32.2375 18.7627" stroke="black" stroke-width="2" stroke-linecap="round" stroke-linejoin="round"/>
<path d="M28 23H38" stroke="black" stroke-width="2" stroke-linecap="round" stroke-linejoin="round"/>
<defs>
<filter id="filter0_d_301_2993" x="0" y="0" width="66" height="66" filterUnits="userSpaceOnUse" color-interpolation-filters="sRGB">
<feFlood flood-opacity="0" result="BackgroundImageFix"/>
<feColorMatrix in="SourceAlpha" type="matrix" values="0 0 0 0 0 0 0 0 0 0 0 0 0 0 0 0 0 0 127 0" result="hardAlpha"/>
<feOffset dy="10"/>
<feGaussianBlur stdDeviation="10"/>
<feComposite in2="hardAlpha" operator="out"/>
<feColorMatrix type="matrix" values="0 0 0 0 0 0 0 0 0 0 0 0 0 0 0 0 0 0 0.25 0"/>
<feBlend mode="normal" in2="BackgroundImageFix" result="effect1_dropShadow_301_2993"/>
<feBlend mode="normal" in="SourceGraphic" in2="effect1_dropShadow_301_2993" result="shape"/>
</filter>
</defs>
</svg>
