<svg width="108" height="108" viewBox="0 0 108 108" fill="none" xmlns="http://www.w3.org/2000/svg">
<g filter="url(#filter0_d_301_602)">
<rect x="24" y="14" width="60" height="60" rx="30" fill="white"/>
</g>
<path fill-rule="evenodd" clip-rule="evenodd" d="M49.6096 33H63.5622C64.103 33 64.5417 33.4484 64.5421 33.9998V44V54.0002C64.5421 54.552 64.1035 55 63.5622 55H53.2813H43.9795C43.4386 55 43 54.5525 43 54.0002V44C43 43.4477 43.4386 43.0006 43.9795 43.0006H48.6302V33.9998C48.6302 33.448 49.0683 33 49.6096 33ZM62.5837 35.0001H50.5886L50.5891 43.0006H53.0283L57.9476 40.2188C58.2428 40.0526 58.6003 40.0526 58.8964 40.2188L62.5837 42.3032V35.0001ZM44.958 44.9998H49.6092H52.3019V52.9999H44.958V44.9998ZM54.2603 52.9999H62.5832V44.5893L58.4215 42.2367L54.2603 44.5893V52.9999Z" fill="#A1B6DB"/>
<path d="M47.6507 46.25H46.1822C46.047 46.25 45.9375 46.3619 45.9375 46.5V48.0002C45.9375 48.1383 46.047 48.2501 46.1822 48.2501H47.6507C47.7864 48.2501 47.8955 48.1383 47.8955 48.0002V46.5C47.8959 46.3619 47.7864 46.25 47.6507 46.25Z" fill="#A1B6DB"/>
<path d="M51.0781 46.25H49.6096C49.474 46.25 49.3649 46.3619 49.3649 46.5V48.0002C49.3649 48.1383 49.474 48.2501 49.6096 48.2501H51.0781C51.2133 48.2501 51.3229 48.1383 51.3229 48.0002V46.5C51.3229 46.3619 51.2133 46.25 51.0781 46.25Z" fill="#A1B6DB"/>
<path d="M47.6507 49.7505H46.1822C46.047 49.7505 45.9375 49.8624 45.9375 50.0004V51.5007C45.9375 51.6387 46.047 51.7501 46.1822 51.7501H47.6507C47.7864 51.7501 47.8955 51.6387 47.8955 51.5007V50.0004C47.8959 49.8624 47.7864 49.7505 47.6507 49.7505Z" fill="#A1B6DB"/>
<path d="M51.0781 49.7505H49.6096C49.474 49.7505 49.3649 49.8624 49.3649 50.0004V51.5007C49.3649 51.6387 49.474 51.7501 49.6096 51.7501H51.0781C51.2133 51.7501 51.3229 51.6387 51.3229 51.5007V50.0004C51.3229 49.8624 51.2133 49.7505 51.0781 49.7505Z" fill="#A1B6DB"/>
<path d="M57.443 46.25H55.974C55.8388 46.25 55.7298 46.3619 55.7298 46.5V48.0002C55.7298 48.1383 55.8388 48.2501 55.974 48.2501H57.443C57.5782 48.2501 57.6878 48.1383 57.6878 48.0002V46.5C57.6878 46.3619 57.5782 46.25 57.443 46.25Z" fill="#A1B6DB"/>
<path d="M59.401 48.2506H60.8695C61.0052 48.2506 61.1138 48.1387 61.1138 48.0007V46.5004C61.1138 46.3624 61.0052 46.2505 60.8695 46.2505H59.401C59.2653 46.2505 59.1562 46.3624 59.1562 46.5004V48.0007C59.1562 48.1383 59.2653 48.2506 59.401 48.2506Z" fill="#A1B6DB"/>
<path d="M57.443 49.7505H55.974C55.8388 49.7505 55.7298 49.8624 55.7298 50.0004V51.5007C55.7298 51.6387 55.8388 51.7501 55.974 51.7501H57.443C57.5782 51.7501 57.6878 51.6387 57.6878 51.5007V50.0004C57.6878 49.8624 57.5782 49.7505 57.443 49.7505Z" fill="#A1B6DB"/>
<path d="M59.401 51.7501H60.8695C61.0052 51.7501 61.1138 51.6387 61.1138 51.5007V50.0004C61.1138 49.8624 61.0052 49.7505 60.8695 49.7505H59.401C59.2653 49.7505 59.1562 49.8624 59.1562 50.0004V51.5007C59.1562 51.6387 59.2653 51.7501 59.401 51.7501Z" fill="#A1B6DB"/>
<path d="M52.5466 38.5941H54.0156C54.1508 38.5941 54.2603 38.4822 54.2603 38.3441V36.8435C54.2603 36.7054 54.1508 36.5935 54.0156 36.5935H52.5466C52.4114 36.5935 52.3023 36.7054 52.3023 36.8435V38.3437C52.3023 38.4818 52.4114 38.5941 52.5466 38.5941Z" fill="#A1B6DB"/>
<path d="M55.974 38.5941H57.443C57.5782 38.5941 57.6877 38.4822 57.6877 38.3441V36.8435C57.6877 36.7054 57.5782 36.5935 57.443 36.5935H55.974C55.8388 36.5935 55.7297 36.7054 55.7297 36.8435V38.3437C55.7284 38.4818 55.8388 38.5941 55.974 38.5941Z" fill="#A1B6DB"/>
<path d="M54.0156 42.0939C54.1508 42.0939 54.2603 41.982 54.2603 41.8439V40.3437C54.2603 40.2056 54.1508 40.0938 54.0156 40.0938H52.5466C52.4114 40.0938 52.3023 40.2056 52.3023 40.3437V41.8439C52.3023 41.982 52.4114 42.0939 52.5466 42.0939H54.0156Z" fill="#A1B6DB"/>
<path d="M59.401 38.5941H60.8695C61.0052 38.5941 61.1138 38.4822 61.1138 38.3441V36.8435C61.1138 36.7054 61.0052 36.5935 60.8695 36.5935H59.401C59.2653 36.5935 59.1562 36.7054 59.1562 36.8435V38.3437C59.1562 38.4818 59.2653 38.5941 59.401 38.5941Z" fill="#A1B6DB"/>
<defs>
<filter id="filter0_d_301_602" x="0" y="0" width="108" height="108" filterUnits="userSpaceOnUse" color-interpolation-filters="sRGB">
<feFlood flood-opacity="0" result="BackgroundImageFix"/>
<feColorMatrix in="SourceAlpha" type="matrix" values="0 0 0 0 0 0 0 0 0 0 0 0 0 0 0 0 0 0 127 0" result="hardAlpha"/>
<feOffset dy="10"/>
<feGaussianBlur stdDeviation="12"/>
<feColorMatrix type="matrix" values="0 0 0 0 0.811765 0 0 0 0 0.92549 0 0 0 0 0.972549 0 0 0 0.5 0"/>
<feBlend mode="normal" in2="BackgroundImageFix" result="effect1_dropShadow_301_602"/>
<feBlend mode="normal" in="SourceGraphic" in2="effect1_dropShadow_301_602" result="shape"/>
</filter>
</defs>
</svg>
