<svg width="17" height="16" viewBox="0 0 17 16" fill="none" xmlns="http://www.w3.org/2000/svg">
<path fill-rule="evenodd" clip-rule="evenodd" d="M13.1493 4.44814C13.1493 6.90479 10.871 8.89629 8.0606 8.89629C5.2502 8.89629 2.97192 6.90479 2.97192 4.44814C2.97192 1.9915 5.2502 0 8.0606 0C10.871 0 13.1493 1.9915 13.1493 4.44814ZM11.3793 4.44814C11.3793 6.0503 9.89347 7.34911 8.0606 7.34911C6.22773 7.34911 4.7419 6.0503 4.7419 4.44814C4.7419 2.84599 6.22773 1.54718 8.0606 1.54718C9.89347 1.54718 11.3793 2.84599 11.3793 4.44814Z" fill="#86878B"/>
<path d="M0.0181564 15.2573C-0.0481528 15.4472 0.0730037 15.6459 0.286448 15.7138L1.1123 15.9765C1.36298 16.0563 1.63577 15.9249 1.71401 15.7019C2.54671 13.3291 5.07317 11.6039 8.06059 11.6039C11.048 11.6039 13.5745 13.3291 14.4072 15.7019C14.4854 15.9249 14.7582 16.0563 15.0089 15.9765L15.8348 15.7138C16.0482 15.6459 16.1694 15.4472 16.1031 15.2573C15.0518 12.2467 11.8488 10.0567 8.06059 10.0567C4.27241 10.0567 1.0694 12.2467 0.0181564 15.2573Z" fill="#86878B"/>
</svg>
