<svg width="46" height="46" viewBox="0 0 46 46" fill="none" xmlns="http://www.w3.org/2000/svg">
<path d="M31.8523 0C31.9594 0 32.0664 0 32.1796 0C32.4422 3.24402 31.2039 5.66794 29.6991 7.42326C28.2225 9.16647 26.2005 10.8572 22.9303 10.6006C22.7121 7.40307 23.9524 5.15892 25.4552 3.40763C26.8489 1.77552 29.4042 0.32319 31.8523 0Z" fill="#EAE7E3"/>
<path d="M41.7521 33.7655C41.7521 33.7979 41.7521 33.8261 41.7521 33.8564C40.8331 36.6399 39.5221 39.0255 37.9223 41.2393C36.4619 43.2491 34.6723 45.9538 31.4767 45.9538C28.7155 45.9538 26.8814 44.1783 24.0514 44.1298C21.0579 44.0814 19.4116 45.6145 16.6746 46.0003C16.3615 46.0003 16.0484 46.0003 15.7414 46.0003C13.7316 45.7094 12.1096 44.1177 10.9279 42.6836C7.44352 38.4457 4.75094 32.9717 4.25 25.9666C4.25 25.2798 4.25 24.595 4.25 23.9083C4.46209 18.8948 6.89814 14.8185 10.1361 12.8431C11.845 11.7927 14.1941 10.8979 16.81 11.2978C17.931 11.4715 19.0763 11.8553 20.0802 12.2351C21.0316 12.6007 22.2214 13.2491 23.3485 13.2147C24.112 13.1925 24.8715 12.7946 25.6411 12.5138C27.8954 11.6998 30.1052 10.7666 33.0179 11.2049C36.5185 11.7341 39.003 13.2895 40.5381 15.6891C37.5769 17.5737 35.2358 20.4138 35.6358 25.2636C35.9913 29.6691 38.5526 32.2466 41.7521 33.7655Z" fill="#EAE7E3"/>
</svg>
