<svg width="18" height="16" viewBox="0 0 18 16" fill="none" xmlns="http://www.w3.org/2000/svg">
<path fill-rule="evenodd" clip-rule="evenodd" d="M0 1.13355C0 0.507507 0.586103 0 1.3091 0H6.87276C7.59576 0 8.18186 0.507506 8.18186 1.13355V5.95112C8.18186 6.57717 7.59576 7.08467 6.87276 7.08467H1.3091C0.586103 7.08467 0 6.57717 0 5.95112V1.13355ZM1.63637 5.66774V1.41693H6.54549V5.66774H1.63637Z" fill="#86878B"/>
<path fill-rule="evenodd" clip-rule="evenodd" d="M0 9.63515C0 9.00911 0.586103 8.50161 1.3091 8.50161H6.87276C7.59576 8.50161 8.18186 9.00911 8.18186 9.63515V14.4527C8.18186 15.0788 7.59576 15.5863 6.87276 15.5863H1.3091C0.586103 15.5863 0 15.0788 0 14.4527V9.63515ZM1.63637 14.1693V9.91854H6.54549V14.1693H1.63637Z" fill="#86878B"/>
<path fill-rule="evenodd" clip-rule="evenodd" d="M11.1273 0C10.4043 0 9.81823 0.507507 9.81823 1.13355V5.95112C9.81823 6.57717 10.4043 7.08467 11.1273 7.08467H16.691C17.414 7.08467 18.0001 6.57717 18.0001 5.95112V1.13355C18.0001 0.507506 17.414 0 16.691 0H11.1273ZM11.4546 1.41693V5.66774H16.3637V1.41693H11.4546Z" fill="#86878B"/>
<path d="M10.9113 8.54699C11.3632 8.54699 11.7295 8.86418 11.7295 9.25546V14.9232C11.7295 15.3145 11.3632 15.6317 10.9113 15.6317C10.4594 15.6317 10.0931 15.3145 10.0931 14.9232V9.25546C10.0931 8.86418 10.4594 8.54699 10.9113 8.54699Z" fill="#86878B"/>
<path d="M16.8022 8.54699C17.2541 8.54699 17.6204 8.86418 17.6204 9.25546V14.9232C17.6204 15.3145 17.2541 15.6317 16.8022 15.6317C16.3503 15.6317 15.984 15.3145 15.984 14.9232V9.25546C15.984 8.86418 16.3503 8.54699 16.8022 8.54699Z" fill="#86878B"/>
<path d="M13.8568 8.54699C14.3086 8.54699 14.6749 8.86418 14.6749 9.25546V14.9232C14.6749 15.3145 14.3086 15.6317 13.8568 15.6317C13.4049 15.6317 13.0386 15.3145 13.0386 14.9232V9.25546C13.0386 8.86418 13.4049 8.54699 13.8568 8.54699Z" fill="#86878B"/>
</svg>
