<svg width="34" height="34" viewBox="0 0 34 34" fill="none" xmlns="http://www.w3.org/2000/svg">
<path d="M28.6875 0H5.3125C2.38 0 0 2.38 0 5.3125V28.6875C0 31.62 2.38 34 5.3125 34H28.6875C31.62 34 34 31.62 34 28.6875V5.3125C34 2.38 31.62 0 28.6875 0ZM17 24.973C15.708 24.973 14.3905 24.5735 13.1495 23.953L13.005 23.885L12.852 23.9275L9.10349 24.9135L10.0725 21.3775L10.1235 21.2075L10.03 21.0545C9.3245 19.839 8.91649 18.428 8.91649 17.017C8.91649 12.58 12.5545 8.942 16.9915 8.942C19.1165 8.942 21.131 9.7495 22.644 11.2625C24.1655 12.784 25.0665 14.807 25.0665 16.915C25.0665 21.352 21.4285 24.99 16.9915 24.99L17 24.973Z" fill="#63B053"/>
<path d="M22.0198 20.0418C21.828 20.5749 21.0802 21.0159 20.482 21.1463C20.0755 21.2306 19.5386 21.2997 17.7438 20.5557C15.4428 19.6046 13.9625 17.2691 13.8475 17.1157C13.7363 16.9662 12.9194 15.877 12.9194 14.7572C12.9194 13.6336 13.487 13.0852 13.7171 12.8512C13.9089 12.6595 14.2195 12.5713 14.5186 12.5713C14.6145 12.5713 14.7027 12.5751 14.7794 12.579C15.0095 12.5905 15.1245 12.602 15.2779 12.9663C15.4658 13.4227 15.926 14.5425 15.9797 14.6575C16.0373 14.7764 16.0909 14.9298 16.0142 15.0832C15.9414 15.2404 15.8762 15.3095 15.7611 15.4398C15.6461 15.5741 15.5349 15.6776 15.4198 15.8195C15.3163 15.9422 15.1936 16.0764 15.3278 16.3065C15.462 16.5328 15.9222 17.2806 16.5972 17.8827C17.4715 18.6612 18.1772 18.9105 18.4303 19.014C18.622 19.0946 18.8444 19.0754 18.9825 18.9297C19.1589 18.7379 19.3737 18.4273 19.5961 18.1166C19.7495 17.898 19.9489 17.8712 20.156 17.9479C20.3669 18.0208 21.4867 18.573 21.713 18.6881C21.9431 18.8031 22.0965 18.8568 22.1502 18.9565C22.2077 19.0524 22.2077 19.5087 22.0198 20.0418Z" fill="#63B053"/>
</svg>
