<svg width="12" height="12" viewBox="0 0 12 12" fill="none" xmlns="http://www.w3.org/2000/svg">
<path d="M4.50003 8.10013L2.75003 6.35013C2.70427 6.30381 2.64977 6.26703 2.58969 6.24193C2.52961 6.21683 2.46514 6.20391 2.40003 6.20391C2.33492 6.20391 2.27045 6.21683 2.21037 6.24193C2.15029 6.26703 2.09579 6.30381 2.05003 6.35013C2.00371 6.39589 1.96693 6.45039 1.94183 6.51047C1.91673 6.57055 1.90381 6.63501 1.90381 6.70013C1.90381 6.76524 1.91673 6.8297 1.94183 6.88978C1.96693 6.94986 2.00371 7.00436 2.05003 7.05013L4.14503 9.14513C4.34003 9.34013 4.65503 9.34013 4.85003 9.14513L10.15 3.85013C10.1963 3.80436 10.2331 3.74986 10.2582 3.68978C10.2833 3.6297 10.2962 3.56524 10.2962 3.50013C10.2962 3.43501 10.2833 3.37055 10.2582 3.31047C10.2331 3.25039 10.1963 3.19589 10.15 3.15013C10.1043 3.10381 10.0498 3.06703 9.98969 3.04193C9.92961 3.01683 9.86514 3.00391 9.80003 3.00391C9.73492 3.00391 9.67045 3.01683 9.61037 3.04193C9.55029 3.06703 9.49579 3.10381 9.45003 3.15013L4.50003 8.10013Z" fill="white"/>
</svg>
