<svg width="18" height="18" viewBox="0 0 18 18" fill="none" xmlns="http://www.w3.org/2000/svg">
<g clip-path="url(#clip0_303_3559)">
<path d="M4.19617e-05 4.67977C4.19617e-05 10.4098 7.59754 17.9998 13.32 17.9998C14.5725 17.9998 15.7425 17.5273 16.605 16.6648L17.355 15.8023C18.225 14.9323 18.225 13.4623 17.3175 12.5548C17.295 12.5323 15.4875 11.1448 15.4875 11.1448C14.5875 10.2898 13.17 10.2898 12.2775 11.1448L11.1825 12.0223C8.78254 11.0023 7.08004 9.29227 5.98504 6.80977L6.85504 5.71477C7.71754 4.82227 7.71754 3.39727 6.85504 2.50477C6.85504 2.50477 5.46754 0.697266 5.44504 0.674766C4.53754 -0.232734 3.06754 -0.232734 2.16004 0.674766L1.37254 1.35727C0.472542 2.24977 4.19617e-05 3.41977 4.19617e-05 4.67227V4.67977Z" fill="#CDCDCD"/>
</g>
<defs>
<clipPath id="clip0_303_3559">
<rect width="18" height="18" fill="white" transform="matrix(-1 0 0 1 18 0)"/>
</clipPath>
</defs>
</svg>
