<svg width="280" height="217" viewBox="0 0 280 217" fill="none" xmlns="http://www.w3.org/2000/svg">
<path d="M160.061 95.0731L158.15 92.3176H154.796C154.418 92.3176 154.196 91.8732 154.418 91.5843L156.44 88.9178L155.396 85.7401C155.284 85.3846 155.618 85.029 155.995 85.1624L159.15 86.2734L161.86 84.2958C162.171 84.0735 162.593 84.2958 162.593 84.6735L162.504 88.0289L165.215 89.9844C165.526 90.2066 165.437 90.6955 165.081 90.8066L161.882 91.7621L160.86 94.9397C160.749 95.3175 160.283 95.4064 160.061 95.0731Z" fill="#F47458"/>
<path d="M248.366 34.4314L250.121 30.3427L247.766 26.5651C247.499 26.1429 247.832 25.5874 248.343 25.6318L252.764 26.054L255.608 22.6319C255.941 22.232 256.563 22.3875 256.674 22.8986L257.652 27.2317L261.784 28.8983C262.25 29.0983 262.295 29.7428 261.872 29.9872L258.051 32.2538L257.74 36.698C257.696 37.2091 257.096 37.4535 256.719 37.1202L253.386 34.187L249.076 35.2758C248.566 35.387 248.166 34.8981 248.366 34.4314Z" fill="#F7CC7F"/>
<path d="M17.9499 146.715L15.6839 142.382L10.841 141.782C10.2857 141.716 10.0635 141.049 10.4412 140.649L13.8623 137.16L12.9293 132.36C12.8182 131.805 13.3958 131.383 13.8845 131.627L18.2609 133.805L22.5262 131.427C23.015 131.16 23.5926 131.56 23.5259 132.116L22.815 136.96L26.3917 140.293C26.7915 140.671 26.5916 141.36 26.0362 141.449L21.2155 142.271L19.1495 146.693C18.9274 147.204 18.2165 147.226 17.9499 146.715Z" fill="#9BC1F9"/>
<path d="M276.601 42.6533L276.668 45.0088L272.869 45.5199L272.514 48.9864L269.737 49.853L270.159 51.253L273.891 50.1197L274.202 46.8309L278.157 46.2976L278.068 42.7422L276.601 42.6533Z" fill="#466EB6"/>
<path d="M66.3123 18.4098C66.5122 16.8543 68.0006 15.721 69.5557 15.9432C71.1774 16.1654 72.1104 17.4765 71.9549 19.1209C71.7772 20.7652 70.5332 21.8763 68.8226 21.6763C67.0898 21.4763 66.0901 20.0764 66.3123 18.4098ZM67.8451 14.1655L68.6004 1.6994C68.6671 0.677217 69.5779 -0.100527 70.5998 0.0105792L71.8439 0.143907C72.8658 0.255013 73.5989 1.21053 73.4211 2.23271L71.4218 14.5655L67.8451 14.1655Z" fill="#F48C7F"/>
<path d="M58.404 81.1848C58.4928 84.2736 59.2926 90.9177 66.2904 92.0066C70.6446 92.6954 76.2206 88.7845 75.8651 85.8957C75.5097 83.0292 74.7099 75.6962 70.1558 74.0296C66.3792 72.6518 58.2263 74.274 58.404 81.1848Z" fill="#184655"/>
<path d="M116.919 181.181C117.918 185.336 118.696 191.358 118.985 191.691C119.118 191.847 119.407 192.891 119.562 193.069C124.094 194.713 128.071 193.025 131.225 191.136C128.759 190.691 125.427 190.247 124.961 189.914C123.25 188.691 123.65 184.38 123.339 180.492C122.095 180.714 119.14 179.936 116.919 181.181Z" fill="#F7A491"/>
<path d="M118.895 191.447C118.918 193.091 119.984 196.602 120.317 196.602C120.717 196.602 134.313 195.425 135.601 193.336C136.379 192.069 134.268 191.758 131.225 191.158C128.07 193.025 119.273 192.491 118.895 191.447Z" fill="#466EB6"/>
<path d="M52.2947 190.469C49.1402 192.935 45.9634 194.913 45.5635 195.091C45.3636 195.18 44.2751 195.18 44.0751 195.269C41.276 199.202 41.8536 203.491 42.8089 207.024C43.8974 204.757 45.1637 201.602 45.6746 201.313C46.4521 200.868 49.2957 199.18 54.383 197.113C52.6502 195.246 52.8723 192.935 52.2947 190.469Z" fill="#F7A491"/>
<path d="M59.4482 103.428L49.7179 121.139C49.7179 121.139 43.2089 129.316 39.8544 133.538C40.5652 134.716 41.2761 135.938 41.8982 137.183C45.2304 134.338 52.3171 128.338 54.8496 125.005C58.5818 120.094 65.3574 108.428 65.3574 108.428L59.4482 103.428Z" fill="#F7A491"/>
<path d="M85.3284 134.249L74.9317 149.604C74.9317 149.604 74.3319 148.582 78.064 149.937C81.7962 151.293 105.811 155.781 107.233 157.493C108.232 158.692 115.697 182.269 117.118 185.291C119.273 186.158 122.428 185.202 124.649 184.869C124.783 173.514 118.784 152.826 117.163 150.404C113.586 144.982 96.5026 139.138 88.8162 135.849C87.5721 135.316 86.5947 134.849 85.9949 134.56C85.5728 134.338 85.3284 134.249 85.3284 134.249Z" fill="#3C8F7C"/>
<path d="M45.386 195.135C43.7865 194.713 40.5431 194.735 40.4542 195.046C40.3653 195.424 37.855 208.868 39.5212 210.646C40.5208 211.735 41.4095 209.801 42.809 207.024C41.8315 203.491 44.2974 195.224 45.386 195.135Z" fill="#466EB6"/>
<path d="M82.596 145.049C82.6849 143.893 85.1507 137.16 86.0171 134.538C86.0393 134.449 85.3951 132.938 84.7064 130.76L83.7067 130.916L68.9114 131.583C68.9114 131.583 62.9578 141.649 63.6464 146.271C64.6239 152.737 73.9543 175.67 72.5325 176.759C69.9778 178.714 57.4262 185.98 50.9838 190.314C51.4059 192.802 52.5611 196.291 54.1383 198.291C59.3811 196.469 82.0628 187.314 84.3954 180.314C86.4392 174.114 82.4405 147.004 82.596 145.049Z" fill="#50BFA5"/>
<path d="M82.3519 88.4736C82.3519 88.4736 78.2865 94.8734 75.8651 95.1178L84.3513 102.984C84.3513 102.984 90.1494 94.2956 90.7492 92.8068C90.7714 92.8068 85.5065 88.1181 82.3519 88.4736Z" fill="#F7CC7F"/>
<path d="M85.3286 127.183C84.9509 130.716 86.0395 134.56 86.0395 134.56C82.6183 135.294 70.511 136.849 67.5564 133.227C67.4454 133.094 71.7551 125.516 71.1553 122.405C70.2889 117.828 66.4901 110.095 66.1791 109.672C65.6459 108.984 63.7132 112.583 63.7132 112.583C61.4473 112.606 56.2267 107.317 56.2267 107.317C56.2267 107.317 61.6028 97.9396 63.0912 97.0507C64.5796 96.1619 76.7979 94.8286 76.8202 94.8286C77.731 94.7619 80.1747 96.8952 80.8633 97.584C88.572 105.295 86.506 116.361 85.3286 127.183Z" fill="#FAE0B2"/>
<path d="M69.911 90.9177C69.911 90.9177 71.244 95.3175 71.244 97.1175C71.244 98.9174 71.9771 101.34 75.7314 100.984C79.4858 100.606 76.3979 96.8286 75.8647 95.1398C75.3315 93.4287 74.6873 88.0734 74.6873 88.0734L69.911 90.9177Z" fill="#F7A491"/>
<path d="M75.065 90.7402C74.865 89.2736 74.7095 88.0514 74.7095 88.0514L69.911 90.9179C69.911 90.9179 70.1776 91.829 70.4886 92.9623C72.7324 93.1845 74.243 92.2068 75.065 90.7402Z" fill="#F47458"/>
<path d="M66.0014 77.6069C66.0014 77.6069 64.0243 78.9847 63.5133 81.5846C63.0024 84.1845 64.5575 90.6064 70.1335 91.6064C75.7095 92.6063 77.5311 87.2288 75.9983 83.3178C74.4654 79.4069 71.5108 74.5404 66.0014 77.6069Z" fill="#F7A491"/>
<path d="M75.3652 83.6748C76.0031 83.6715 76.5158 82.7833 76.5101 81.6911C76.5045 80.5988 75.9827 79.7161 75.3447 79.7194C74.7067 79.7227 74.1941 80.6108 74.1997 81.703C74.2054 82.7953 74.7272 83.6781 75.3652 83.6748Z" fill="#F7A491"/>
<path d="M66.1958 89.6159C66.7894 89.1206 66.678 88.0086 65.9471 87.1321C65.2161 86.2557 64.1424 85.9467 63.5489 86.442C62.9553 86.9373 63.0667 88.0493 63.7976 88.9257C64.5286 89.8022 65.6023 90.1111 66.1958 89.6159Z" fill="#F7A491"/>
<path d="M60.2922 75.163C60.5143 72.1632 62.6248 61.0303 55.8047 59.9637C48.9847 58.8971 47.5407 66.3634 43.7419 56.3194C40.2319 47.0309 29.8352 50.6308 29.3909 57.6749C28.4134 57.586 27.3915 57.7416 26.4362 58.1415C23.104 59.5415 21.5933 63.5413 23.0818 67.0745C23.3261 67.63 23.1928 68.1856 23.5261 68.6522C22.7263 71.7187 23.2817 75.2297 25.6587 78.8073C32.1455 88.5625 38.6324 78.2962 43.0088 78.8518C47.3852 79.4073 44.5416 82.8294 48.3182 85.4959C52.117 88.1625 55.1605 87.4736 61.3363 80.185L62.8691 78.1851C62.8914 78.1629 60.07 78.1629 60.2922 75.163Z" fill="#184655"/>
<path d="M251.898 160.048C255.319 158.693 258.385 156.826 258.74 156.648C259.029 156.493 260.184 155.648 260.34 155.537C263.361 157.337 264.449 158.848 266.827 161.248C265.072 161.337 264.316 159.892 263.65 160.048C262.828 160.226 260.273 161.937 256.274 165.048C255.586 162.781 253.586 161.648 251.898 160.048Z" fill="#F8A492"/>
<path d="M203.536 195.069C204.313 198.669 205.735 201.868 205.913 202.224C206.002 202.402 206.535 202.535 206.624 202.713C204.358 205.379 203.38 209.824 200.625 211.779C200.825 210.024 202.003 206.757 201.958 206.068C201.914 205.246 200.648 202.424 198.271 197.98C200.559 197.669 201.67 196.469 203.536 195.069Z" fill="#F8A492"/>
<path d="M204.98 202.98C205.291 202.202 206.312 201.669 207.046 202.135C207.779 202.602 208.756 203.113 209.467 203.602C210.289 204.157 210.333 204.802 210.311 204.957C210.245 205.38 200.603 216.668 199.359 216.823C198.115 216.979 200.403 207.446 201.758 206.446C202.98 205.58 203.58 206.468 204.98 202.98Z" fill="#3C8F7C"/>
<path d="M260.051 156.648C259.34 156.204 258.985 155.093 259.585 154.47C260.162 153.826 260.851 152.959 261.473 152.337C262.184 151.626 262.806 151.693 262.961 151.737C263.361 151.87 272.736 163.403 272.691 164.648C272.625 165.892 263.65 161.937 262.917 160.426C262.25 159.07 263.25 158.648 260.051 156.648Z" fill="#3C8F7C"/>
<path d="M207.224 152.96C207.224 152.96 226.262 178.625 229.572 178.87C232.682 179.092 256.697 165.693 256.697 165.693L253.565 158.782L234.326 165.693L220.93 140.338L207.224 152.96Z" fill="#B75742"/>
<path d="M218.198 131.272C218.198 131.272 221.685 132.094 223.685 137.427C225.684 142.738 222.352 147.16 213.999 154.848C205.868 162.337 197.848 169.381 197.848 169.381L204.446 196.535L198.959 201.18C198.959 201.18 186.252 173.581 185.897 167.026C185.763 164.515 205.268 135.427 205.268 135.427L218.198 131.272Z" fill="#F47458"/>
<path d="M203.469 98.0285L192.85 103.984L184.431 108.028C184.431 108.028 182.387 101.051 183.076 97.6285C183.164 97.1397 183.653 96.5619 183.831 96.2953C185.208 94.2065 182.254 90.9844 182.254 90.9844C182.254 90.9844 180.476 90.4733 179.255 93.4287C178.033 96.3842 180.276 97.6285 180.276 97.6285C180.276 97.6285 177.722 106.561 178.788 113.05C179.343 116.45 187.874 113.961 194.65 111.028C200.359 108.561 204.558 105.806 204.558 105.806L203.469 98.0285Z" fill="#F7A491"/>
<path d="M205.846 97.0288C205.624 96.8288 205.246 96.6955 204.646 96.9177C203.336 97.4066 190.584 104.406 190.584 104.406C190.584 104.406 191.717 110.539 194.716 112.406L201.136 110.45L206.046 98.0288C206.201 97.6732 206.135 97.2732 205.846 97.0288Z" fill="#3C8F7C"/>
<path d="M235.192 70.8297C230.35 67.8742 224.329 68.4298 220.73 72.4296C217.776 71.3185 214.377 71.4074 211.644 72.6963C206.246 75.2295 201.448 81.8292 205.535 86.6068C204.669 92.962 208.468 96.673 213.222 97.0952C215.799 102.273 224.929 102.806 230.194 98.5396C234.526 100.228 239.702 99.4951 242.901 96.3619C243.679 95.6064 244.789 94.4064 245.056 94.2953C244.745 94.4509 257.141 92.8065 256.586 81.8736C255.986 70.6741 242.635 66.4076 235.192 70.8297Z" fill="#FE875E"/>
<path d="M213.222 96.1621L221.086 96.6065L219.775 107.606C219.775 107.606 215.976 118.206 217.532 123.294C219.087 128.383 220.575 132.094 220.575 132.094C220.575 132.094 216.088 137.249 203.536 136.183C203.536 136.183 203.691 127.05 203.536 124.272C203.38 121.494 200.159 109.984 200.604 107.384C201.048 104.784 203.803 97.5843 204.536 96.9843C205.247 96.3843 208.112 96.0732 208.112 96.0732L213.222 96.1621Z" fill="#50BFA5"/>
<path d="M213.577 90.1181C213.577 90.1181 213.444 91.007 213.311 92.1403C213.155 93.5624 213 95.3846 213.133 96.3623C213.377 98.1178 211.733 102.74 208.001 102.918C204.269 103.095 207.912 97.8067 208.201 96.0734C208.49 94.3402 208.49 87.9849 208.49 87.9849L213.577 90.1181Z" fill="#F7A491"/>
<path d="M208.512 90.6736C208.512 89.207 208.489 87.9849 208.489 87.9849L213.577 90.1181C213.577 90.1181 213.443 91.0292 213.31 92.2069C211.133 92.7402 209.534 92.0069 208.512 90.6736Z" fill="#F47458"/>
<path d="M213.955 77.0516C213.955 77.0516 216.11 77.8072 217.22 80.0737C218.331 82.3181 218.553 88.5845 213.688 90.9177C208.845 93.251 205.824 88.7845 206.246 84.8069C206.69 80.8293 208.157 75.6517 213.955 77.0516Z" fill="#F7A491"/>
<path d="M205.958 81.3502C205.378 81.507 205.125 82.4409 205.394 83.4361C205.662 84.4313 206.35 85.111 206.931 84.9543C207.511 84.7975 207.764 83.8636 207.495 82.8684C207.227 81.8732 206.538 81.1935 205.958 81.3502Z" fill="#F7A491"/>
<path d="M218.683 84.3257C218.013 84.0212 217.104 84.5805 216.652 85.575C216.2 86.5695 216.378 87.6226 217.048 87.927C217.718 88.2315 218.628 87.6722 219.079 86.6777C219.531 85.6832 219.353 84.6301 218.683 84.3257Z" fill="#F7A491"/>
<path d="M111.676 133.694C110.943 131.538 80.7968 43.6974 79.4639 39.8531C77.4424 33.9867 70.9999 30.8313 65.0463 32.809L20.105 47.7861C14.1513 49.7638 10.9745 56.1413 12.9961 62.0077L45.2081 155.848C47.2297 161.715 53.6721 164.87 59.6258 162.892L104.589 147.915C110.499 145.937 113.698 139.582 111.676 133.694ZM100.746 136.071L55.316 151.204C51.8949 152.337 48.1627 150.515 47.0075 147.137L17.2392 60.3411C16.084 56.9635 17.9056 53.2748 21.349 52.1415L66.7791 37.0088C70.2002 35.8755 73.9323 37.6977 75.0875 41.0753C82.3075 62.1633 104.189 125.983 104.856 127.872C106.011 131.249 104.167 134.938 100.746 136.071Z" fill="#355389"/>
<path d="M89.1054 146.249C89.7941 148.271 86.6173 151.16 81.9965 152.693C77.3758 154.226 73.066 153.849 72.3774 151.826C71.6887 149.804 74.8655 146.916 79.4862 145.382C84.107 143.827 88.4167 144.227 89.1054 146.249Z" fill="#184655"/>
<path d="M87.8835 146.404C88.5278 148.293 85.9064 150.893 81.9965 152.182C78.0866 153.471 74.3989 153.004 73.7547 151.093C73.1104 149.204 75.7318 146.604 79.6417 145.315C83.5294 144.027 87.2171 144.515 87.8835 146.404Z" fill="#355389"/>
<path d="M253.409 45.8532L202.892 34.4315C196.205 32.9204 189.629 36.8758 188.185 43.2533L165.126 145.271C163.682 151.649 167.925 158.071 174.612 159.559L225.129 170.981C231.816 172.492 238.391 168.537 239.835 162.159L262.895 60.1415C264.339 53.764 260.096 47.3643 253.409 45.8532ZM236.77 153.16C235.948 156.848 232.149 159.115 228.283 158.248L177.233 146.716C173.39 145.849 170.924 142.16 171.768 138.471L193.095 44.12C193.917 40.4312 197.715 38.1646 201.581 39.0313L252.631 50.5641C256.475 51.4307 258.94 55.1195 258.096 58.8082L236.77 153.16Z" fill="#86B1F2"/>
<path d="M201.356 162.794C206.538 163.966 211.14 163.14 211.635 160.949C212.131 158.759 208.331 156.033 203.149 154.861C197.967 153.689 193.365 154.515 192.87 156.706C192.375 158.897 196.175 161.622 201.356 162.794Z" fill="#466EB6"/>
<path d="M201.608 162.353C205.988 163.343 209.916 162.477 210.382 160.418C210.847 158.359 207.673 155.887 203.293 154.897C198.913 153.906 194.985 154.773 194.52 156.831C194.055 158.89 197.228 161.362 201.608 162.353Z" fill="#86B1F2"/>
<path d="M220.775 99.451C220.775 99.451 237.369 95.4068 241.079 94.7401C244.789 94.0513 257.63 89.4292 258.118 89.2292C258.607 89.0292 260.451 82.4295 261.162 82.8962C261.895 83.3628 260.051 86.2294 260.962 86.6071C261.873 86.9849 269.604 83.5184 269.648 84.1406C269.759 85.3183 265.005 86.4516 265.138 86.9849C265.294 87.5182 269.981 85.3627 270.559 86.1627C271.136 86.9627 265.916 87.8071 265.827 88.2515C265.738 88.6959 270.848 88.1182 270.559 89.0737C270.403 89.607 266.005 89.4959 266.182 90.0959C266.36 90.7181 269.715 91.318 269.492 91.8958C269.27 92.4958 266.76 91.0069 265.027 91.4514C263.294 91.8958 261.806 91.318 259.273 92.8291C256.719 94.3179 248.344 100.651 242.39 101.962C236.436 103.273 223.285 106.184 223.285 106.184L220.775 99.451Z" fill="#F7A491"/>
<path d="M216.753 96.8951C217.309 96.6285 219.042 96.584 221.085 96.6063C221.841 96.6063 222.907 96.6285 223.707 96.584C226.706 96.4952 229.549 96.6285 229.549 96.6285C229.549 96.6285 231.06 103.917 229.794 105.784C229.794 105.784 218.064 107.45 218.353 108.272L216.753 96.8951Z" fill="#50BFA5"/>
<path d="M176.055 96.9397L177.077 95.6509C177.077 95.6509 177.699 94.6732 178.655 94.5843C179.61 94.4954 179.565 93.2955 178.566 93.4732C177.566 93.651 176.944 93.8732 176.944 93.8732C176.944 93.8732 178.943 92.851 178.966 92.7177C179.165 91.9622 178.055 91.6733 176.589 92.7844C175.1 93.8954 176.055 96.9397 176.055 96.9397Z" fill="#F7A491"/>
<path d="M40.4763 135.316C39.8321 135.671 39.3878 135.983 39.1879 136.138C39.1879 136.116 39.2101 136.094 39.2101 136.071C39.4322 135.849 40.1431 135.072 40.1653 135.072C41.1206 134.338 40.6096 133.56 39.721 134.049C38.8324 134.538 38.2992 134.96 38.2992 134.96C38.2992 134.96 39.8543 133.449 39.8321 133.205C39.8099 132.427 38.6547 132.516 37.6106 134.027C36.6998 135.338 38.0327 137.649 38.4325 138.205C38.8102 139.005 39.5211 139.36 39.5211 139.36L39.7655 137.849C39.7655 137.849 40.0543 136.716 40.8984 136.338C41.787 135.96 41.3649 134.849 40.4763 135.316Z" fill="#F7A491"/>
<path d="M179.721 92.3177C179.721 92.3177 182.076 90.4289 182.453 91.2288C182.831 92.0288 182.675 93.7843 182.32 93.6509C181.965 93.5176 182.009 92.2954 181.009 92.6065C180.721 92.6954 179.321 93.1398 179.721 92.3177Z" fill="#F7A491"/>
<path d="M124.072 95.7396L111.298 87.9621C110.009 87.1844 109.587 85.4733 110.387 84.1845L118.162 71.4073C118.94 70.1184 120.651 69.6962 121.939 70.4962L134.713 78.2737C136.001 79.0514 136.423 80.7624 135.624 82.0513L127.848 94.8285C127.049 96.1173 125.36 96.5395 124.072 95.7396Z" fill="#96D9C9"/>
<path d="M130.803 85.2959C131.269 84.807 131.114 83.8959 130.425 83.2737C127.36 80.5627 123.85 78.4073 120.073 76.8962C119.207 76.5407 118.318 76.8296 118.096 77.4962C116.319 82.7404 116.941 80.7627 116.163 83.807C115.985 84.5181 116.385 85.2292 117.052 85.5181C117.763 85.807 118.607 85.4959 118.94 84.807C119.118 84.4292 119.296 84.0293 119.473 83.6515C119.673 83.2071 120.251 83.0515 120.74 83.2959C122.05 83.9626 123.294 84.7181 124.494 85.5625C124.938 85.8736 125.071 86.4736 124.76 86.8514C124.516 87.1847 124.25 87.518 124.005 87.8513C123.539 88.4735 123.672 89.3401 124.272 89.829C124.827 90.2956 125.649 90.3179 126.182 89.8512C126.738 89.3179 129.826 86.318 130.803 85.2959Z" fill="white"/>
<path d="M120.894 78.9184C121.05 79.0295 121.183 79.1628 121.272 79.3183L121.694 78.6073L120.783 78.0517L120.361 78.7628C120.561 78.785 120.739 78.8295 120.894 78.9184Z" fill="#96D9C9"/>
<path d="M119.473 79.2738C119.584 79.1182 119.717 78.9849 119.873 78.896L119.162 78.4738L118.606 79.3849L119.317 79.8071C119.317 79.6293 119.362 79.4515 119.473 79.2738Z" fill="#96D9C9"/>
<path d="M119.806 80.7186C119.65 80.6075 119.517 80.4741 119.428 80.3186L119.006 81.0297L119.917 81.5852L120.339 80.8741C120.161 80.8741 119.983 80.8075 119.806 80.7186Z" fill="#96D9C9"/>
<path d="M121.406 79.8295C121.406 80.0073 121.361 80.1851 121.25 80.3628C121.139 80.5184 121.006 80.6517 120.85 80.7406L121.561 81.1628L122.117 80.2517L121.406 79.8295Z" fill="#96D9C9"/>
<path d="M120.362 80.4738C120.718 80.4738 121.006 80.1852 121.006 79.8293C121.006 79.4734 120.718 79.1849 120.362 79.1849C120.006 79.1849 119.718 79.4734 119.718 79.8293C119.718 80.1852 120.006 80.4738 120.362 80.4738Z" fill="#96D9C9"/>
<path d="M127.804 85.8071C128.552 85.8071 129.159 85.2002 129.159 84.4516C129.159 83.7029 128.552 83.0961 127.804 83.0961C127.055 83.0961 126.449 83.7029 126.449 84.4516C126.449 85.2002 127.055 85.8071 127.804 85.8071Z" fill="#96D9C9"/>
<path d="M136.09 36.5646C136.09 36.5646 136.557 33.9202 139.311 32.6314C141.755 31.4981 144.399 32.7647 145.509 35.1646C146.798 37.9423 146.02 42.2976 141.355 47.9196C134.046 47.853 130.225 45.6308 128.937 42.8532C127.826 40.4533 128.559 37.609 131.025 36.4757C133.78 35.2091 136.09 36.5646 136.09 36.5646Z" fill="#F48C7F"/>
<path d="M47.496 24.6763L31.2567 32.4093C29.3462 33.3204 27.058 32.4982 26.1472 30.5872L21.7708 21.4542C20.86 19.5432 21.6819 17.2544 23.5924 16.3433L39.8317 8.61032C41.7422 7.69925 44.0304 8.52143 44.9412 10.4325L49.2954 19.5432C50.2284 21.4764 49.4065 23.7652 47.496 24.6763Z" fill="#FAE0B2"/>
<path d="M24.6364 25.6095L21.1486 35.9646L28.8795 30.2538L24.6364 25.6095Z" fill="#FAE0B2"/>
<path d="M30.368 21.5873L32.4118 20.5429C32.4118 20.5429 34.0779 17.3208 33.8113 16.5875C33.567 15.8542 32.4118 14.6098 32.745 14.232C33.056 13.8543 33.8558 13.2987 34.8332 13.9431C35.5441 14.4098 36.3883 16.9875 36.7215 17.0319C36.9215 17.0541 38.1211 16.4986 38.9875 16.0542C39.5651 15.7653 40.2315 15.832 40.7425 16.2097C41.0979 16.4542 41.209 16.9208 41.0313 17.3208L40.7647 17.9208L41.3645 18.2319C41.8088 18.4541 41.9865 19.0096 41.7644 19.454L41.5422 19.9207L41.9199 20.0762C42.4086 20.2762 42.6308 20.8762 42.3642 21.3651L42.142 21.7428L42.2309 21.8095C42.6086 22.0761 42.7196 22.6094 42.4753 23.0094L42.2531 23.3872L36.7882 26.1648C36.2772 26.4315 35.7218 26.5871 35.1443 26.6093L33.056 27.2759C32.8339 27.3426 32.5895 27.2537 32.4784 27.0315L30.1236 22.2095C30.0348 21.9872 30.1236 21.7206 30.368 21.5873Z" fill="white"/>
<path d="M164.681 46.9862C176.944 44.2086 188.296 48.0528 190.006 55.5859C190.873 59.3635 189.14 63.3411 185.697 66.7187L193.205 76.6961L180.765 70.4297C177.921 72.0963 174.589 73.4296 170.901 74.274C158.639 77.0516 147.287 73.2073 145.576 65.6743C143.843 58.1635 152.396 49.7861 164.681 46.9862Z" fill="#FAE0B2"/>
<path d="M176.477 60.097C176.3 64.4746 172.612 67.8966 168.213 67.7189C163.837 67.5411 160.416 63.8524 160.593 59.4525C160.771 55.075 164.459 51.6529 168.857 51.8306C173.256 52.0084 176.655 55.6971 176.477 60.097Z" fill="#F7CC7F"/>
<path d="M164.259 60.8524C164.17 63.1856 165.992 65.1633 168.324 65.2744C170.657 65.3633 172.634 63.5411 172.745 61.2079L164.259 60.8524Z" fill="#EFEFEF"/>
<path d="M10.3078 82.1179L6.26468 82.9179L6.75342 86.7399L2.79911 87.7177L2.84354 91.4064L0 92.6286L0.622025 94.073L4.42082 92.4508L4.37639 88.9398L8.4862 87.9177L7.99747 84.1623L11.663 83.429L10.3078 82.1179Z" fill="#F48C7F"/>
<path d="M280 113.494L278.867 109.517L275.113 110.339L273.824 106.472L270.136 106.806L268.692 104.073L267.315 104.784L269.226 108.45L272.736 108.139L274.068 112.161L277.756 111.361L278.778 114.961L280 113.494Z" fill="#F7CC7F"/>
<path d="M10.9742 39.7421L8.70827 40.4309L7.19763 36.92L3.75428 37.5199L2.19922 35.0756L0.955167 35.8756L3.04339 39.1421L6.30903 38.5643L7.88631 42.2308L11.2852 41.1864L10.9742 39.7421Z" fill="#50BFA5"/>
<path d="M94.8583 53.9864C94.0586 53.3419 92.2147 52.8086 91.3039 52.7197C90.3931 52.6309 86.3721 52.6309 85.8612 53.6086C85.3502 54.5641 89.5489 57.2973 89.7711 58.4306C89.9932 59.5639 87.3274 77.1854 86.5721 80.6963C86.1944 82.4296 84.7282 85.6739 83.3509 88.5182C85.328 88.8293 87.7495 90.4515 89.2823 91.607C91.2373 87.3405 93.2144 82.5407 93.481 80.2963C93.9697 75.7632 95.6581 54.6308 94.8583 53.9864Z" fill="#F7A491"/>
<path d="M106.499 23.5649C105.122 23.4538 97.9908 28.898 97.9908 28.898L97.6798 29.3202C97.6798 29.3202 107.321 30.9424 107.788 30.6535C108.987 29.8313 107.61 23.6538 106.499 23.5649ZM98.0131 29.0758C100.346 27.387 105.144 25.2982 106.166 24.876C106.699 25.8537 107.188 28.4314 107.032 29.498C105.899 29.4091 100.834 29.5202 98.0131 29.0758Z" fill="#466EB6"/>
<path d="M96.0581 19.0543C94.8141 15.7433 93.6145 15.8989 92.7481 16.01C91.8817 16.1211 88.0385 18.8543 88.3939 20.9431C88.7493 23.0319 96.458 29.165 96.458 29.165L96.969 28.565C96.9912 28.565 97.3022 22.3653 96.0581 19.0543ZM89.5935 20.7431C89.4158 19.6987 92.0816 17.4766 92.9702 17.1877C93.1702 17.1655 93.3479 17.1433 93.4812 17.1877C93.6367 17.2321 94.2365 17.5432 94.9474 19.4765C95.7471 21.6097 96.5691 26.5206 96.5691 28.4761C93.4812 25.8984 89.7935 21.632 89.5935 20.7431Z" fill="#466EB6"/>
<path d="M96.547 30.4539L96.9691 30.565C97.3912 30.6761 97.8133 30.4539 97.9465 30.0317L98.302 28.7873C98.4131 28.3651 98.1909 27.9429 97.7688 27.8095L97.3467 27.6984C96.9247 27.5873 96.5026 27.8095 96.3693 28.2317L96.0138 29.4761C95.8805 29.8983 96.1249 30.3205 96.547 30.4539Z" fill="#466EB6"/>
<path d="M104.367 57.4524L77.7974 49.8527C76.3534 49.4527 75.487 47.9861 75.798 46.5195L80.5077 24.7649L115.119 34.6533L107.299 56.4969C106.988 57.4079 105.677 57.8301 104.367 57.4524Z" fill="#F47458"/>
<path d="M115.208 39.7425L77.6199 29.0762L77.9087 26.543C78.0864 25.032 79.5748 24.032 81.041 24.4542L115.008 34.2538C116.208 34.6093 116.941 35.6093 116.585 36.4537L115.208 39.7425Z" fill="#FAE0B2"/>
<path d="M97.8204 29.2965L97.1154 29.0952L95.6519 34.2235L96.3569 34.4248L97.8204 29.2965Z" fill="#466EB6"/>
<path d="M97.2781 34.6529L96.3809 34.3968L90.8865 53.6493L91.7837 53.9055L97.2781 34.6529Z" fill="#466EB6"/>
<path d="M88.0162 53.9419L88.1051 52.8086C87.1943 52.5419 86.1502 52.1642 85.5948 51.942L85.4393 51.0753C84.9728 49.8976 84.4396 50.742 84.2841 51.0087C84.2841 51.0087 84.2396 52.5197 84.4174 52.6975C84.4174 52.6975 86.2168 54.5863 86.9721 55.2974C87.3498 55.6529 88.5494 56.6306 88.5494 56.6306L89.5047 55.2974L88.0162 53.9419Z" fill="#F7A491"/>
</svg>
