<svg width="17" height="4" viewBox="0 0 17 4" fill="none" xmlns="http://www.w3.org/2000/svg">
<path fill-rule="evenodd" clip-rule="evenodd" d="M0 2C0 0.895431 0.908196 0 2.01277 0C3.11734 0 4.02553 0.895431 4.02553 2C4.02553 3.10457 3.11734 4 2.01277 4C0.908196 4 0 3.10457 0 2ZM6.03808 2C6.03808 0.895431 6.94628 0 8.05085 0C9.15542 0 10.0636 0.895431 10.0636 2C10.0636 3.10457 9.15542 4 8.05085 4C6.94628 4 6.03808 3.10457 6.03808 2ZM14.0891 0C12.9846 0 12.0764 0.895431 12.0764 2C12.0764 3.10457 12.9846 4 14.0891 4C15.1937 4 16.1019 3.10457 16.1019 2C16.1019 0.895431 15.1937 0 14.0891 0Z" fill="#8293B0"/>
</svg>
