<svg width="14" height="14" viewBox="0 0 14 14" fill="none" xmlns="http://www.w3.org/2000/svg">
<path d="M10.2434 12.2498C10.1502 12.2502 10.0581 12.2282 9.97511 12.1856L7.00011 10.6281L4.02511 12.1856C3.9285 12.2364 3.81958 12.2591 3.71073 12.2511C3.60188 12.2431 3.49747 12.2047 3.40936 12.1402C3.32124 12.0758 3.25297 11.988 3.2123 11.8867C3.17162 11.7854 3.16018 11.6748 3.17927 11.5673L3.76261 8.28313L1.35927 5.94979C1.28429 5.87497 1.2311 5.78113 1.20541 5.67837C1.17971 5.5756 1.18249 5.46777 1.21344 5.36646C1.24725 5.26279 1.30944 5.17067 1.39296 5.10055C1.47648 5.03044 1.57798 4.98514 1.68594 4.96979L5.01094 4.48563L6.47511 1.49313C6.52287 1.3945 6.59745 1.31133 6.6903 1.25313C6.78316 1.19493 6.89052 1.16406 7.00011 1.16406C7.10969 1.16406 7.21706 1.19493 7.30991 1.25313C7.40276 1.31133 7.47734 1.3945 7.52511 1.49313L9.00677 4.47979L12.3318 4.96396C12.4397 4.97931 12.5412 5.02461 12.6248 5.09472C12.7083 5.16483 12.7705 5.25695 12.8043 5.36063C12.8352 5.46194 12.838 5.56976 12.8123 5.67253C12.7866 5.7753 12.7334 5.86913 12.6584 5.94396L10.2551 8.27729L10.8384 11.5615C10.8593 11.6708 10.8484 11.7839 10.807 11.8872C10.7657 11.9906 10.6956 12.08 10.6051 12.1448C10.4995 12.2188 10.3723 12.2557 10.2434 12.2498Z" fill="#BB957B"/>
</svg>
