<svg width="24" height="24" viewBox="0 0 24 24" fill="none" xmlns="http://www.w3.org/2000/svg">
<path d="M15.4999 11.9998C15.5007 12.1314 15.4755 12.2619 15.4257 12.3837C15.3759 12.5056 15.3026 12.6164 15.2099 12.7098L11.2099 16.7098C11.1167 16.8031 11.006 16.877 10.8842 16.9275C10.7624 16.9779 10.6318 17.0039 10.4999 17.0039C10.3681 17.0039 10.2375 16.9779 10.1157 16.9275C9.99387 16.877 9.88318 16.8031 9.78994 16.7098C9.6967 16.6166 9.62274 16.5059 9.57228 16.3841C9.52182 16.2622 9.49585 16.1317 9.49585 15.9998C9.49585 15.868 9.52182 15.7374 9.57228 15.6156C9.62274 15.4937 9.6967 15.3831 9.78994 15.2898L13.0999 11.9998L9.91994 8.69981C9.81765 8.60782 9.73544 8.49572 9.67846 8.3705C9.62147 8.24529 9.59093 8.10967 9.58875 7.97211C9.58657 7.83456 9.6128 7.69803 9.66579 7.57108C9.71878 7.44412 9.7974 7.32947 9.89672 7.23428C9.99605 7.1391 10.1139 7.06543 10.243 7.01789C10.3721 6.97034 10.5096 6.94995 10.647 6.95798C10.7843 6.966 10.9185 7.00228 11.0412 7.06454C11.1639 7.1268 11.2724 7.2137 11.3599 7.31981L15.2199 11.3198C15.3963 11.5027 15.4964 11.7458 15.4999 11.9998Z" fill="black"/>
</svg>
