<svg width="10" height="12" viewBox="0 0 10 12" fill="none" xmlns="http://www.w3.org/2000/svg">
<mask id="mask0_301_1579" style="mask-type:alpha" maskUnits="userSpaceOnUse" x="-5" y="-2" width="20" height="16">
<rect x="-5" y="-1.5625" width="20" height="15" fill="#D9D9D9"/>
</mask>
<g mask="url(#mask0_301_1579)">
<path d="M0 11.5625V10.3125L0.34375 10.1562C0.572917 10.0521 0.822917 9.89844 1.09375 9.69531C1.36458 9.49219 1.61111 9.23177 1.83333 8.91406C2.05556 8.59635 2.16667 8.22917 2.16667 7.8125C2.16667 7.69792 2.15625 7.58854 2.13542 7.48437C2.11458 7.38021 2.09028 7.28125 2.0625 7.1875H0V5.9375H1.25C0.958333 5.59375 0.677083 5.23177 0.40625 4.85156C0.135417 4.47135 0 4 0 3.4375C0 2.47917 0.444444 1.66667 1.33333 1C2.22222 0.333333 3.30556 0 4.58333 0C5.56944 0 6.44444 0.203125 7.20833 0.609375C7.97222 1.01562 8.52083 1.54167 8.85417 2.1875L7.3125 2.67187C7.10417 2.25521 6.75347 1.91406 6.26042 1.64844C5.76736 1.38281 5.20833 1.25 4.58333 1.25C3.77778 1.25 3.09028 1.46354 2.52083 1.89062C1.95139 2.31771 1.66667 2.83333 1.66667 3.4375C1.66667 3.9375 1.83333 4.35417 2.16667 4.6875C2.5 5.02083 2.84028 5.4375 3.1875 5.9375H6.66667V7.1875H3.77083C3.79861 7.28125 3.81597 7.38021 3.82292 7.48437C3.82986 7.58854 3.83333 7.69792 3.83333 7.8125C3.83333 8.33333 3.71181 8.80208 3.46875 9.21875C3.22569 9.63542 2.93056 10 2.58333 10.3125H6.66667C7.22222 10.3125 7.64583 10.2031 7.9375 9.98437C8.22917 9.76562 8.43056 9.48437 8.54167 9.14062L10 9.6875C9.84722 10.2604 9.45486 10.7161 8.82292 11.0547C8.19097 11.3932 7.47222 11.5625 6.66667 11.5625H0Z" fill="white"/>
</g>
</svg>
