<svg width="39" height="55" viewBox="0 0 39 55" fill="none" xmlns="http://www.w3.org/2000/svg">
<path d="M0.500341 2.00136C0.500341 1.17237 1.17237 0.500341 2.00137 0.500341H32.9959C36.0355 0.500341 38.4996 2.96446 38.4996 6.0041V48.1287C38.4996 51.1684 36.0355 53.6325 32.9958 53.6325H2.00136C1.17237 53.6325 0.500341 52.9605 0.500341 52.1315V2.00136Z" fill="#E5E5E5" stroke="#CCCCCC"/>
<path d="M26.3514 33.464H12.1217C11.2474 33.464 10.5406 34.1254 10.5406 34.9403C10.5406 35.7553 11.2474 36.4167 12.1217 36.4167H26.3514C27.2258 36.4167 27.9325 35.7553 27.9325 34.9403C27.9325 34.1254 27.2258 33.464 26.3514 33.464Z" fill="#CCCCCC"/>
<path d="M24.7703 40.3535H21.6082C20.7338 40.3535 20.0271 41.0149 20.0271 41.8298C20.0271 42.6448 20.7338 43.3062 21.6082 43.3062H24.7703C25.6447 43.3062 26.3514 42.6448 26.3514 41.8298C26.3514 41.0149 25.6447 40.3535 24.7703 40.3535Z" fill="#CCCCCC"/>
<path d="M16.3378 40.3535H13.1757C12.3013 40.3535 11.5946 41.0149 11.5946 41.8298C11.5946 42.6448 12.3013 43.3062 13.1757 43.3062H16.3378C17.2122 43.3062 17.9189 42.6448 17.9189 41.8298C17.9189 41.0149 17.2122 40.3535 16.3378 40.3535Z" fill="#CCCCCC"/>
<ellipse cx="18.9729" cy="16.7319" rx="9.48647" ry="8.8581" fill="#CCCCCC"/>
</svg>
