<svg width="12" height="12" viewBox="0 0 12 12" fill="none" xmlns="http://www.w3.org/2000/svg">
<path d="M9.64426 0.371621L11.6443 2.32402L10.1196 3.81306L8.11959 1.86065L9.64426 0.371621ZM2.31891 9.47502H4.31892L9.17693 4.73264L7.17692 2.78023L2.31891 7.52262V9.47502Z" fill="white"/>
<path d="M10.6667 10.4128H3.43867C3.42134 10.4128 3.40334 10.4193 3.38601 10.4193C3.36401 10.4193 3.34201 10.4135 3.31934 10.4128H1.33334V1.3016H5.89801L7.23135 0H1.33334C0.598001 0 0 0.583118 0 1.3016V10.4128C0 11.1313 0.598001 11.7144 1.33334 11.7144H10.6667C11.0203 11.7144 11.3594 11.5773 11.6095 11.3332C11.8595 11.0891 12 10.758 12 10.4128V4.77167L10.6667 6.07327V10.4128Z" fill="white"/>
</svg>
