<svg width="19" height="22" viewBox="0 0 19 22" fill="none" xmlns="http://www.w3.org/2000/svg">
<path fill-rule="evenodd" clip-rule="evenodd" d="M14.5208 9.38412V7.83937C14.5208 7.28092 14.0722 6.82779 13.5198 6.82779H10.9181C11.4441 6.13546 11.6605 5.4656 11.5618 4.80089C11.4386 3.97696 10.8632 3.3254 10.3543 2.74914L10.3527 2.74731C9.62462 1.92298 9.22931 1.42351 9.58199 0.73914C9.69506 0.518662 9.63296 0.246692 9.43508 0.0992388C9.23812 -0.0486827 8.96237 -0.0294903 8.7872 0.145113C6.44696 2.46587 7.6878 3.98577 8.59427 5.0961L8.59441 5.09627C9.1737 5.80639 9.52267 6.2773 9.40773 6.82779H6.41255C6.93902 6.13546 7.15498 5.4656 7.05626 4.80089C6.93368 3.97759 6.35857 3.32639 5.84994 2.75046L5.84716 2.74731C5.11864 1.92298 4.72333 1.42351 5.07601 0.73914C5.18955 0.518662 5.12745 0.246692 4.92956 0.0992388C4.73214 -0.0486827 4.45639 -0.0294903 4.28121 0.145113C1.94124 2.46561 3.18201 3.98544 4.08846 5.09574L4.08889 5.09627C4.66818 5.80639 5.01669 6.2773 4.90175 6.82779H1.00148C0.448605 6.82779 0 7.28092 0 7.83937V18.4602C0 20.4122 1.5729 22 3.50496 22H11.0159C12.7857 22 14.2502 20.6659 14.4842 18.9419C16.889 18.705 18.777 16.6519 18.777 14.1607C18.7775 11.683 16.9094 9.63783 14.5208 9.38412ZM4.50691 17.9547C4.50691 18.5127 4.0583 18.9662 3.50542 18.9662C2.95255 18.9662 2.50394 18.5127 2.50394 17.9547V10.3681C2.50394 9.80963 2.95255 9.3565 3.50542 9.3565C4.0583 9.3565 4.50691 9.80963 4.50691 10.3681V17.9547ZM16.774 14.1616C16.774 12.8013 15.8008 11.6675 14.5208 11.4283V16.8949C15.8008 16.6557 16.7745 15.5224 16.774 14.1616Z" fill="#A1B6DB"/>
</svg>
