<svg width="382" height="70" viewBox="0 0 382 70" fill="none" xmlns="http://www.w3.org/2000/svg">
<path d="M0.5 24C0.5 18.329 0.501062 14.1261 0.934881 10.8994C1.36677 7.68704 2.2193 5.51725 3.86827 3.86827C5.51725 2.2193 7.68704 1.36677 10.8994 0.934881C14.1261 0.501062 18.329 0.5 24 0.5H358C363.671 0.5 367.874 0.501062 371.101 0.934881C374.313 1.36677 376.483 2.2193 378.132 3.86827C379.781 5.51725 380.633 7.68704 381.065 10.8994C381.499 14.1261 381.5 18.329 381.5 24V46C381.5 51.671 381.499 55.8739 381.065 59.1006C380.633 62.313 379.781 64.4828 378.132 66.1317C376.483 67.7807 374.313 68.6332 371.101 69.0651C367.874 69.4989 363.671 69.5 358 69.5H24C18.329 69.5 14.1261 69.4989 10.8994 69.0651C7.68704 68.6332 5.51725 67.7807 3.86827 66.1317C2.2193 64.4827 1.36677 62.313 0.934881 59.1006C0.501062 55.8739 0.5 51.671 0.5 46V24Z" fill="#F9F9F9"/>
<path d="M30.25 32.318V31.25C30.25 28.3505 27.8995 26 25 26C22.1005 26 19.75 28.3505 19.75 31.25V32.318C18.385 32.9137 17.502 34.2607 17.5 35.75V40.25C17.5025 42.32 19.1799 43.9975 21.25 44H28.75C30.82 43.9975 32.4975 42.32 32.5 40.25V35.75C32.498 34.2607 31.615 32.9137 30.25 32.318ZM25.75 38.75C25.75 39.1642 25.4142 39.5 25 39.5C24.5858 39.5 24.25 39.1642 24.25 38.75V37.25C24.25 36.8358 24.5858 36.5 25 36.5C25.4142 36.5 25.75 36.8358 25.75 37.25V38.75ZM28.75 32H21.25V31.25C21.25 29.179 22.9289 27.5 25 27.5C27.0711 27.5 28.75 29.1789 28.75 31.25V32Z" fill="#736E6C"/>
<path d="M350.83 32L354 35.16V35C354 34.2044 353.684 33.4413 353.121 32.8787C352.559 32.3161 351.796 32 351 32H350.83ZM346.53 32.8L348.08 34.35C348.03 34.56 348 34.77 348 35C348 35.7956 348.316 36.5587 348.879 37.1213C349.441 37.6839 350.204 38 351 38C351.22 38 351.44 37.97 351.65 37.92L353.2 39.47C352.53 39.8 351.79 40 351 40C349.674 40 348.402 39.4732 347.464 38.5355C346.527 37.5979 346 36.3261 346 35C346 34.21 346.2 33.47 346.53 32.8ZM341 27.27L343.28 29.55L343.73 30C342.08 31.3 340.78 33 340 35C341.73 39.39 346 42.5 351 42.5C352.55 42.5 354.03 42.2 355.38 41.66L355.81 42.08L358.73 45L360 43.73L342.27 26M351 30C352.326 30 353.598 30.5268 354.536 31.4645C355.473 32.4021 356 33.6739 356 35C356 35.64 355.87 36.26 355.64 36.82L358.57 39.75C360.07 38.5 361.27 36.86 362 35C360.27 30.61 356 27.5 351 27.5C349.6 27.5 348.26 27.75 347 28.2L349.17 30.35C349.74 30.13 350.35 30 351 30Z" fill="#736E6C"/>
<circle cx="49.5" cy="35" r="3.5" fill="#736E6C"/>
<circle cx="60.5" cy="35" r="3.5" fill="#736E6C"/>
<circle cx="71.5" cy="35" r="3.5" fill="#736E6C"/>
<circle cx="82.5" cy="35" r="3.5" fill="#736E6C"/>
<circle cx="93.5" cy="35" r="3.5" fill="#736E6C"/>
<circle cx="104.5" cy="35" r="3.5" fill="#736E6C"/>
<path d="M0.5 24C0.5 18.329 0.501062 14.1261 0.934881 10.8994C1.36677 7.68704 2.2193 5.51725 3.86827 3.86827C5.51725 2.2193 7.68704 1.36677 10.8994 0.934881C14.1261 0.501062 18.329 0.5 24 0.5H358C363.671 0.5 367.874 0.501062 371.101 0.934881C374.313 1.36677 376.483 2.2193 378.132 3.86827C379.781 5.51725 380.633 7.68704 381.065 10.8994C381.499 14.1261 381.5 18.329 381.5 24V46C381.5 51.671 381.499 55.8739 381.065 59.1006C380.633 62.313 379.781 64.4828 378.132 66.1317C376.483 67.7807 374.313 68.6332 371.101 69.0651C367.874 69.4989 363.671 69.5 358 69.5H24C18.329 69.5 14.1261 69.4989 10.8994 69.0651C7.68704 68.6332 5.51725 67.7807 3.86827 66.1317C2.2193 64.4827 1.36677 62.313 0.934881 59.1006C0.501062 55.8739 0.5 51.671 0.5 46V24Z" stroke="#736E6C"/>
</svg>
