<svg width="25" height="25" viewBox="0 0 25 25" fill="none" xmlns="http://www.w3.org/2000/svg">
<path d="M23.0916 10.8373H23.092C23.5084 10.8389 23.9072 11.0054 24.2012 11.3003C24.4951 11.5952 24.6603 11.9946 24.6605 12.411V12.411V22.2792V22.2795C24.6599 22.4846 24.6188 22.6875 24.5394 22.8767C24.4601 23.0658 24.3441 23.2374 24.1982 23.3815C24.0523 23.5256 23.8794 23.6395 23.6893 23.7165C23.4993 23.7935 23.296 23.8321 23.0911 23.8303M23.0916 10.8373V23.7303M23.0916 10.8373H21.9491C21.8668 10.5958 21.7148 10.3834 21.5117 10.2272C21.2881 10.0554 21.0148 9.96107 20.7329 9.95841H20.7319H19.5336V6.88455C19.5353 6.80788 19.5166 6.73212 19.4795 6.66496L19.392 6.71328L19.4795 6.66496C19.4423 6.59742 19.3877 6.541 19.3214 6.5015L19.3202 6.50082L10.1614 1.21082C10.1614 1.2108 10.1614 1.21078 10.1613 1.21076C10.0945 1.17192 10.0185 1.15146 9.94121 1.15146C9.8639 1.15146 9.78796 1.17192 9.72111 1.21075L23.0916 10.8373ZM23.0911 23.8303C23.0909 23.8303 23.0908 23.8303 23.0907 23.8303L23.0916 23.7303M23.0911 23.8303H23.0916V23.7303M23.0911 23.8303H16.4013M23.0916 23.7303H16.4009M16.4013 23.8303C16.4015 23.8303 16.4016 23.8303 16.4018 23.8303L16.4009 23.7303M16.4013 23.8303H16.4009V23.7303M16.4013 23.8303C16.1968 23.8319 15.9941 23.7931 15.8047 23.7159C15.6152 23.6386 15.4429 23.5246 15.2978 23.3803C15.1527 23.236 15.0376 23.0644 14.9593 22.8753C14.881 22.6864 14.8409 22.4838 14.8414 22.2792C14.8414 22.2791 14.8414 22.279 14.8414 22.2789L14.9414 22.2792V20.3842M16.4009 23.7303L14.9414 20.3842M14.9414 20.3842V20.2688L14.8414 20.3264V20.4419L14.9414 20.3842ZM18.65 7.6482L10.4027 12.4278V21.9885L14.8414 19.4218V12.4111V12.411H14.9414L18.65 7.6482ZM18.65 7.6482V9.96409C18.4074 9.98696 18.1753 10.0778 17.9809 10.2272C17.7777 10.3834 17.6258 10.5958 17.5434 10.8373L18.65 7.6482ZM9.72315 23.1365C9.79029 23.1752 9.86646 23.1957 9.94399 23.1957L0.609377 6.58741C0.557537 6.61746 0.514534 6.66065 0.484702 6.71261C0.45487 6.76458 0.439263 6.82349 0.439453 6.88341H0.339455V6.88356V17.4637C0.339457 17.5413 0.359872 17.6175 0.398647 17.6846C0.437423 17.7518 0.493193 17.8076 0.560353 17.8463L0.610353 17.7597L0.560353 17.8463L9.72315 23.1365ZM23.0934 22.9467V22.9467H23.0916L16.4009 22.9467L16.3992 22.9467C16.3109 22.9482 16.2232 22.932 16.1412 22.8991C16.0592 22.8662 15.9846 22.8173 15.9218 22.7551C15.859 22.693 15.8092 22.619 15.7754 22.5373C15.7416 22.4557 15.7245 22.3681 15.725 22.2798V22.2792L15.725 12.411L15.725 12.41C15.7241 12.3203 15.7409 12.2313 15.7744 12.1481C15.808 12.0649 15.8576 11.9891 15.9205 11.9251C15.9833 11.8611 16.0582 11.8101 16.1408 11.7751C16.2232 11.7401 16.3117 11.7217 16.4013 11.7209H17.5586C17.6445 11.9539 17.7971 12.1571 17.9981 12.3048C18.2191 12.4671 18.4868 12.5535 18.761 12.551H20.7315C21.0057 12.5535 21.2734 12.4671 21.4944 12.3048C21.6954 12.1571 21.848 11.9539 21.9339 11.7209H23.0913C23.2735 11.7221 23.4478 11.7953 23.5762 11.9246C23.7048 12.0539 23.7769 12.2288 23.777 12.4111L23.777 22.2788C23.777 22.2789 23.777 22.279 23.777 22.2791C23.7765 22.3679 23.7584 22.4557 23.7238 22.5375C23.6891 22.6194 23.6385 22.6935 23.5749 22.7557C23.5113 22.8178 23.436 22.8667 23.3533 22.8995C23.2707 22.9323 23.1823 22.9483 23.0934 22.9467ZM20.7441 10.842C20.8492 10.842 20.9499 10.8837 21.0242 10.958C21.0985 11.0323 21.1402 11.1331 21.1402 11.2381V11.2712C21.1402 11.3763 21.0985 11.4771 21.0242 11.5514C20.9499 11.6257 20.8492 11.6674 20.7441 11.6674H18.7579C18.6528 11.6674 18.552 11.6257 18.4777 11.5514C18.4035 11.4771 18.3617 11.3763 18.3617 11.2712V11.2381C18.3617 11.1331 18.4035 11.0323 18.4777 10.958C18.552 10.8837 18.6528 10.842 18.7579 10.842H20.7441ZM1.66548 6.88307L9.94404 2.10342L13.5514 4.18609L5.27276 8.96574L1.66548 6.88307ZM9.51914 12.4279V21.9888L1.22305 17.2086V7.6477L9.51914 12.4279ZM9.94405 11.6627L6.15635 9.47584L14.435 4.69624L18.2228 6.88307L9.94405 11.6627Z" fill="#7960FB" stroke="#7960FB" stroke-width="0.2"/>
<path d="M16.7942 15.8691H17.1519C17.2426 15.8691 17.3295 15.8331 17.3936 15.769C17.4577 15.7049 17.4937 15.618 17.4937 15.5273C17.4937 15.4367 17.4577 15.3498 17.3936 15.2857C17.3295 15.2216 17.2426 15.1855 17.1519 15.1855H17.1384V14.2578H18.0812C18.1026 14.3265 18.146 14.3863 18.2047 14.428C18.2634 14.4697 18.3342 14.491 18.4061 14.4886C18.4969 14.4889 18.584 14.4531 18.6485 14.3892C18.7129 14.3252 18.7493 14.2384 18.7498 14.1476V13.9176C18.749 13.8264 18.7123 13.7392 18.6476 13.6749C18.5829 13.6106 18.4955 13.5744 18.4043 13.5742H16.7942C16.7493 13.5744 16.705 13.5835 16.6636 13.6009C16.6223 13.6183 16.5848 13.6437 16.5533 13.6756C16.5218 13.7075 16.4969 13.7453 16.48 13.7868C16.4631 13.8283 16.4545 13.8728 16.4548 13.9176V15.5277C16.4546 15.5725 16.4631 15.6168 16.4801 15.6582C16.497 15.6996 16.522 15.7373 16.5535 15.769C16.585 15.8007 16.6225 15.8259 16.6638 15.8431C16.7051 15.8603 16.7494 15.8691 16.7942 15.8691Z" fill="#7960FB"/>
<path d="M16.7969 18.9941H18.4082C18.4989 18.9941 18.5858 18.9581 18.6499 18.894C18.714 18.8299 18.75 18.743 18.75 18.6523V17.041C18.75 16.9504 18.714 16.8634 18.6499 16.7993C18.5858 16.7352 18.4989 16.6992 18.4082 16.6992H16.7969C16.7062 16.6992 16.6193 16.7352 16.5552 16.7993C16.4911 16.8634 16.4551 16.9504 16.4551 17.041V18.6523C16.4551 18.743 16.4911 18.8299 16.5552 18.894C16.6193 18.9581 16.7062 18.9941 16.7969 18.9941ZM17.1387 17.3828H18.0664V18.3105H17.1387V17.3828Z" fill="#7960FB"/>
<path d="M17.1517 21.4355H17.1382V20.5078H18.0625C18.0642 20.5977 18.1012 20.6833 18.1653 20.7463C18.2295 20.8093 18.3158 20.8446 18.4057 20.8447C18.4956 20.8448 18.5819 20.8096 18.6462 20.7468C18.7105 20.6839 18.7476 20.5984 18.7495 20.5085V20.1792C18.7492 20.0867 18.713 19.9981 18.6485 19.9319C18.5841 19.8656 18.4964 19.8271 18.404 19.8242H16.7939C16.7022 19.8273 16.6153 19.8662 16.5519 19.9325C16.4885 19.9988 16.4536 20.0874 16.4546 20.1792V21.7893C16.4546 21.8334 16.4634 21.8771 16.4805 21.9177C16.4977 21.9584 16.5228 21.9952 16.5545 22.026C16.5861 22.0567 16.6236 22.0808 16.6648 22.0968C16.7059 22.1128 16.7498 22.1204 16.7939 22.1191H17.1517C17.2424 22.1191 17.3293 22.0831 17.3934 22.019C17.4575 21.9549 17.4935 21.868 17.4935 21.7773C17.4935 21.6867 17.4575 21.5998 17.3934 21.5357C17.3293 21.4716 17.2424 21.4355 17.1517 21.4355Z" fill="#7960FB"/>
<path d="M19.1907 13.9938L18.1898 14.9948L17.8853 14.6903C17.8535 14.6585 17.8159 14.6333 17.7744 14.6162C17.7329 14.599 17.6885 14.5901 17.6436 14.5901C17.5987 14.5901 17.5542 14.599 17.5128 14.6162C17.4713 14.6333 17.4336 14.6585 17.4019 14.6903C17.3701 14.722 17.345 14.7597 17.3278 14.8011C17.3106 14.8426 17.3018 14.8871 17.3018 14.932C17.3018 14.9768 17.3106 15.0213 17.3278 15.0628C17.345 15.1042 17.3701 15.1419 17.4019 15.1737L17.9481 15.7198C17.9799 15.7516 18.0175 15.7768 18.059 15.7939C18.1005 15.8111 18.1449 15.82 18.1898 15.82C18.2347 15.82 18.2791 15.8111 18.3206 15.7939C18.3621 15.7768 18.3998 15.7516 18.4315 15.7198L19.6743 14.4771C19.7384 14.413 19.7744 14.326 19.7744 14.2354C19.7744 14.1447 19.7384 14.0578 19.6743 13.9937C19.6102 13.9296 19.5232 13.8936 19.4326 13.8936C19.3419 13.8936 19.255 13.9296 19.1909 13.9937L19.1907 13.9938Z" fill="#7960FB"/>
<path d="M19.1907 20.3049L18.1898 21.3058L17.8853 21.0013C17.8535 20.9695 17.8159 20.9444 17.7744 20.9272C17.7329 20.91 17.6885 20.9012 17.6436 20.9012C17.5987 20.9012 17.5542 20.91 17.5128 20.9272C17.4713 20.9444 17.4336 20.9695 17.4019 21.0013C17.3701 21.033 17.345 21.0707 17.3278 21.1122C17.3106 21.1537 17.3018 21.1981 17.3018 21.243C17.3018 21.2879 17.3106 21.3323 17.3278 21.3738C17.345 21.4153 17.3701 21.4529 17.4019 21.4847L17.9481 22.0309C17.9799 22.0626 18.0175 22.0878 18.059 22.105C18.1005 22.1222 18.1449 22.131 18.1898 22.131C18.2347 22.131 18.2791 22.1222 18.3206 22.105C18.3621 22.0878 18.3998 22.0626 18.4315 22.0309L19.6743 20.7881C19.7384 20.724 19.7744 20.6371 19.7744 20.5464C19.7744 20.4557 19.7384 20.3688 19.6743 20.3047C19.6102 20.2406 19.5232 20.2046 19.4326 20.2046C19.3419 20.2046 19.255 20.2406 19.1909 20.3047L19.1907 20.3049Z" fill="#7960FB"/>
<path d="M22.6985 14.4043H20.5518C20.4611 14.4043 20.3742 14.4403 20.3101 14.5044C20.246 14.5685 20.21 14.6554 20.21 14.7461C20.21 14.8367 20.246 14.9237 20.3101 14.9878C20.3742 15.0519 20.4611 15.0879 20.5518 15.0879H22.6985C22.7892 15.0879 22.8761 15.0519 22.9402 14.9878C23.0043 14.9237 23.0403 14.8367 23.0403 14.7461C23.0403 14.6554 23.0043 14.5685 22.9402 14.5044C22.8761 14.4403 22.7892 14.4043 22.6985 14.4043Z" fill="#7960FB"/>
<path d="M22.6985 17.5293H20.5518C20.4611 17.5293 20.3742 17.5653 20.3101 17.6294C20.246 17.6935 20.21 17.7804 20.21 17.8711C20.21 17.9617 20.246 18.0487 20.3101 18.1128C20.3742 18.1769 20.4611 18.2129 20.5518 18.2129H22.6985C22.7892 18.2129 22.8761 18.1769 22.9402 18.1128C23.0043 18.0487 23.0403 17.9617 23.0403 17.8711C23.0403 17.7804 23.0043 17.6935 22.9402 17.6294C22.8761 17.5653 22.7892 17.5293 22.6985 17.5293Z" fill="#7960FB"/>
<path d="M22.6985 20.6543H20.5518C20.4611 20.6543 20.3742 20.6903 20.3101 20.7544C20.246 20.8185 20.21 20.9054 20.21 20.9961C20.21 21.0867 20.246 21.1737 20.3101 21.2378C20.3742 21.3019 20.4611 21.3379 20.5518 21.3379H22.6985C22.7892 21.3379 22.8761 21.3019 22.9402 21.2378C23.0043 21.1737 23.0403 21.0867 23.0403 20.9961C23.0403 20.9054 23.0043 20.8185 22.9402 20.7544C22.8761 20.6903 22.7892 20.6543 22.6985 20.6543Z" fill="#7960FB"/>
</svg>
