<svg width="86" height="80" viewBox="0 0 86 80" fill="none" xmlns="http://www.w3.org/2000/svg">
<path d="M10.8008 38C10.8008 29.1634 17.9642 22 26.8008 22H58.8008C67.6373 22 74.8008 29.1634 74.8008 38C74.8008 46.8366 67.6373 54 58.8008 54H26.8008C17.9642 54 10.8008 46.8366 10.8008 38Z" fill="#175C4C" fill-opacity="0.15"/>
<path d="M50.3 31.75H35.3C34.8858 31.75 34.55 32.0858 34.55 32.5V47.5C34.55 47.9142 34.8858 48.25 35.3 48.25H50.3C50.7143 48.25 51.05 47.9142 51.05 47.5V32.5C51.05 32.0858 50.7143 31.75 50.3 31.75Z" stroke="#808080" stroke-width="2" stroke-linecap="round" stroke-linejoin="round"/>
<path d="M47.3 30.25V33.25" stroke="#808080" stroke-width="2" stroke-linecap="round" stroke-linejoin="round"/>
<path d="M38.3 30.25V33.25" stroke="#808080" stroke-width="2" stroke-linecap="round" stroke-linejoin="round"/>
<path d="M34.55 36.25H51.05" stroke="#808080" stroke-width="2" stroke-linecap="round" stroke-linejoin="round"/>
<path d="M46.175 40L41.7969 44.125L39.425 41.875" stroke="#808080" stroke-width="2" stroke-linecap="round" stroke-linejoin="round"/>
</svg>
