<svg width="17" height="18" viewBox="0 0 17 18" fill="none" xmlns="http://www.w3.org/2000/svg">
<path d="M9.37928 12.268C9.90493 12.0039 10.2586 11.5104 10.2586 10.9451C10.2586 10.1016 9.47123 9.41785 8.49997 9.41785C7.52872 9.41785 6.74136 10.1016 6.74136 10.9451C6.74136 11.5104 7.09501 12.0039 7.62067 12.268V14.5086C7.62067 14.9303 8.01435 15.2722 8.49997 15.2722C8.9856 15.2722 9.37928 14.9303 9.37928 14.5086V12.268Z" fill="#86878B"/>
<path fill-rule="evenodd" clip-rule="evenodd" d="M13.4827 6.10887V4.32712C13.4827 1.93732 11.2519 0 8.49997 0C5.74808 0 3.51723 1.93732 3.51723 4.32712V6.10887H3.22413C1.44349 6.10887 0 7.36243 0 8.90877V15.0176C0 16.564 1.44349 17.8175 3.22413 17.8175H13.7758C15.5565 17.8175 16.9999 16.564 16.9999 15.0176V8.90877C16.9999 7.36243 15.5565 6.10887 13.7758 6.10887H13.4827ZM8.49997 1.52722C6.71934 1.52722 5.27585 2.78078 5.27585 4.32712V6.10887H11.7241V4.32712C11.7241 2.78078 10.2806 1.52722 8.49997 1.52722ZM3.22413 7.63609C2.41475 7.63609 1.75862 8.20589 1.75862 8.90877V15.0176C1.75862 15.7205 2.41475 16.2903 3.22413 16.2903H13.7758C14.5852 16.2903 15.2413 15.7205 15.2413 15.0176V8.90877C15.2413 8.20589 14.5852 7.63609 13.7758 7.63609H3.22413Z" fill="#86878B"/>
</svg>
