<svg width="34" height="34" viewBox="0 0 34 34" fill="none" xmlns="http://www.w3.org/2000/svg">
<path d="M28.6875 0H5.3125C2.38 0 0 2.38 0 5.3125V28.6875C0 31.62 2.38 34 5.3125 34H28.6875C31.62 34 34 31.62 34 28.6875V5.3125C34 2.38 31.62 0 28.6875 0ZM17 22.5335H16.864C16.201 24.3355 13.209 25.5 11.3305 25.5C12.8775 23.9105 12.988 22.1935 11.866 21.1225C9.81749 19.839 8.49149 17.8075 8.49149 15.521C8.49149 11.645 12.2995 8.5 16.9915 8.5C21.6835 8.5 25.4915 11.645 25.4915 15.521C25.4915 19.397 21.6835 22.542 16.9915 22.542L17 22.5335Z" fill="#42B245"/>
<path d="M17.3399 16.2946L16.2179 13.8296H15.6484V16.9746H16.1754V14.8156L17.1529 16.9746H17.5184L18.4959 14.8156V16.9746H19.0229V13.8296H18.4619L17.3399 16.2946Z" fill="#42B245"/>
<path d="M14.5518 15.3339C14.4158 15.2744 14.2458 15.2234 14.0333 15.1639C13.8718 15.1214 13.7443 15.0789 13.6593 15.0449C13.5658 15.0109 13.4893 14.9599 13.4298 14.9004C13.3703 14.8409 13.3448 14.7559 13.3448 14.6624C13.3448 14.5179 13.3958 14.4159 13.4893 14.3394C13.5828 14.2629 13.7103 14.2289 13.8548 14.2289C14.0248 14.2289 14.1523 14.2714 14.2543 14.3479C14.3563 14.4329 14.4073 14.5264 14.4243 14.6454H15.0023C14.9768 14.3819 14.8663 14.1694 14.6708 14.0249C14.4753 13.8719 14.2203 13.7954 13.9143 13.7954C13.6933 13.7954 13.5063 13.8294 13.3363 13.9059C13.1663 13.9824 13.0388 14.0844 12.9453 14.2204C12.8518 14.3564 12.8093 14.5179 12.8093 14.6964C12.8093 14.8919 12.8518 15.0534 12.9453 15.1639C13.0388 15.2829 13.1493 15.3679 13.2768 15.4274C13.4043 15.4784 13.5828 15.5379 13.7868 15.5889C13.9568 15.6314 14.0843 15.6739 14.1778 15.7079C14.2713 15.7419 14.3478 15.7929 14.4158 15.8609C14.4838 15.9289 14.5093 16.0139 14.5093 16.1159C14.5093 16.2519 14.4583 16.3624 14.3563 16.4474C14.2543 16.5324 14.1098 16.5749 13.9313 16.5749C13.7528 16.5749 13.6168 16.5324 13.5233 16.4474C13.4298 16.3624 13.3788 16.2519 13.3618 16.1159H12.8008C12.8008 16.2944 12.8518 16.4559 12.9453 16.5919C13.0473 16.7279 13.1748 16.8299 13.3533 16.9064C13.5233 16.9829 13.7188 17.0169 13.9313 17.0169C14.1608 17.0169 14.3563 16.9744 14.5178 16.8894C14.6878 16.8044 14.8153 16.6854 14.9003 16.5494C14.9853 16.4049 15.0363 16.2604 15.0363 16.0989C15.0363 15.9034 14.9853 15.7419 14.8918 15.6229C14.7983 15.5039 14.6878 15.4104 14.5518 15.3594V15.3339Z" fill="#42B245"/>
<path d="M21.3852 15.3339C21.2577 15.2744 21.0792 15.2234 20.8667 15.1639C20.7052 15.1214 20.5777 15.0789 20.4842 15.0449C20.3907 15.0109 20.3142 14.9599 20.2547 14.9004C20.1952 14.8409 20.1697 14.7559 20.1697 14.6624C20.1697 14.5179 20.2207 14.4159 20.3142 14.3394C20.4077 14.2629 20.5352 14.2289 20.6797 14.2289C20.8497 14.2289 20.9772 14.2714 21.0792 14.3479C21.1812 14.4329 21.2322 14.5264 21.2492 14.6454H21.8272C21.8102 14.3819 21.6997 14.1694 21.4957 14.0249C21.3002 13.8719 21.0452 13.7954 20.7392 13.7954C20.5182 13.7954 20.3312 13.8294 20.1612 13.9059C19.9912 13.9824 19.8637 14.0844 19.7702 14.2204C19.6767 14.3564 19.6342 14.5179 19.6342 14.6964C19.6342 14.8919 19.6767 15.0534 19.7702 15.1639C19.8637 15.2829 19.9742 15.3679 20.1017 15.4274C20.2377 15.4784 20.4077 15.5379 20.6117 15.5889C20.7732 15.6314 20.9092 15.6739 20.9942 15.7079C21.0877 15.7419 21.1727 15.7929 21.2322 15.8609C21.3002 15.9289 21.3257 16.0139 21.3257 16.1159C21.3257 16.2519 21.2747 16.3624 21.1727 16.4474C21.0707 16.5324 20.9262 16.5749 20.7477 16.5749C20.5692 16.5749 20.4332 16.5324 20.3397 16.4474C20.2462 16.3624 20.1867 16.2519 20.1782 16.1159H19.6172C19.6172 16.2944 19.6682 16.4559 19.7617 16.5919C19.8637 16.7279 19.9997 16.8299 20.1697 16.9064C20.3397 16.9829 20.5352 17.0169 20.7477 17.0169C20.9772 17.0169 21.1727 16.9744 21.3342 16.8894C21.5042 16.8044 21.6317 16.6854 21.7167 16.5494C21.8102 16.4049 21.8527 16.2604 21.8527 16.0989C21.8527 15.9034 21.8017 15.7419 21.7082 15.6229C21.6147 15.5039 21.5042 15.4104 21.3682 15.3594L21.3852 15.3339Z" fill="#42B245"/>
</svg>
