<svg width="84" height="12" viewBox="0 0 84 12" fill="none" xmlns="http://www.w3.org/2000/svg">
<g clip-path="url(#clip0_301_2815)">
<path d="M8.78 10.5001C8.70004 10.5004 8.62117 10.4816 8.55001 10.4451L6 9.1101L3.45 10.4451C3.3672 10.4886 3.27384 10.5081 3.18054 10.5012C3.08724 10.4943 2.99774 10.4614 2.92222 10.4062C2.84669 10.351 2.78817 10.2757 2.75331 10.1889C2.71845 10.1021 2.70864 10.0072 2.725 9.9151L3.225 7.1001L1.165 5.1001C1.10073 5.03596 1.05514 4.95554 1.03312 4.86745C1.0111 4.77936 1.01348 4.68694 1.04 4.6001C1.06898 4.51124 1.12229 4.43228 1.19388 4.37218C1.26547 4.31208 1.35246 4.27326 1.445 4.2601L4.295 3.8451L5.55 1.2801C5.59095 1.19557 5.65487 1.12427 5.73446 1.07439C5.81405 1.0245 5.90608 0.998047 6 0.998047C6.09393 0.998047 6.18596 1.0245 6.26555 1.07439C6.34514 1.12427 6.40906 1.19557 6.45 1.2801L7.72 3.8401L10.57 4.2551C10.6625 4.26826 10.7495 4.30708 10.8211 4.36718C10.8927 4.42728 10.946 4.50624 10.975 4.5951C11.0015 4.68194 11.0039 4.77436 10.9819 4.86245C10.9599 4.95054 10.9143 5.03096 10.85 5.0951L8.79001 7.0951L9.29001 9.9101C9.30786 10.0038 9.29851 10.1007 9.26307 10.1893C9.22763 10.2779 9.16758 10.3545 9.09001 10.4101C8.99946 10.4736 8.89045 10.5052 8.78 10.5001Z" fill="#FCA919"/>
</g>
<g clip-path="url(#clip1_301_2815)">
<path d="M26.78 10.5001C26.7 10.5004 26.6212 10.4816 26.55 10.4451L24 9.1101L21.45 10.4451C21.3672 10.4886 21.2738 10.5081 21.1805 10.5012C21.0872 10.4943 20.9977 10.4614 20.9222 10.4062C20.8467 10.351 20.7882 10.2757 20.7533 10.1889C20.7184 10.1021 20.7086 10.0072 20.725 9.9151L21.225 7.1001L19.165 5.1001C19.1007 5.03596 19.0551 4.95554 19.0331 4.86745C19.0111 4.77936 19.0135 4.68694 19.04 4.6001C19.069 4.51124 19.1223 4.43228 19.1939 4.37218C19.2655 4.31208 19.3525 4.27326 19.445 4.2601L22.295 3.8451L23.55 1.2801C23.5909 1.19557 23.6549 1.12427 23.7345 1.07439C23.814 1.0245 23.9061 0.998047 24 0.998047C24.0939 0.998047 24.186 1.0245 24.2655 1.07439C24.3451 1.12427 24.4091 1.19557 24.45 1.2801L25.72 3.8401L28.57 4.2551C28.6625 4.26826 28.7495 4.30708 28.8211 4.36718C28.8927 4.42728 28.946 4.50624 28.975 4.5951C29.0015 4.68194 29.0039 4.77436 28.9819 4.86245C28.9599 4.95054 28.9143 5.03096 28.85 5.0951L26.79 7.0951L27.29 9.9101C27.3079 10.0038 27.2985 10.1007 27.2631 10.1893C27.2276 10.2779 27.1676 10.3545 27.09 10.4101C26.9995 10.4736 26.8904 10.5052 26.78 10.5001Z" fill="#FCA919"/>
</g>
<g clip-path="url(#clip2_301_2815)">
<path d="M44.78 10.5001C44.7 10.5004 44.6212 10.4816 44.55 10.4451L42 9.1101L39.45 10.4451C39.3672 10.4886 39.2738 10.5081 39.1805 10.5012C39.0872 10.4943 38.9977 10.4614 38.9222 10.4062C38.8467 10.351 38.7882 10.2757 38.7533 10.1889C38.7184 10.1021 38.7086 10.0072 38.725 9.9151L39.225 7.1001L37.165 5.1001C37.1007 5.03596 37.0551 4.95554 37.0331 4.86745C37.0111 4.77936 37.0135 4.68694 37.04 4.6001C37.069 4.51124 37.1223 4.43228 37.1939 4.37218C37.2655 4.31208 37.3525 4.27326 37.445 4.2601L40.295 3.8451L41.55 1.2801C41.5909 1.19557 41.6549 1.12427 41.7345 1.07439C41.814 1.0245 41.9061 0.998047 42 0.998047C42.0939 0.998047 42.186 1.0245 42.2655 1.07439C42.3451 1.12427 42.4091 1.19557 42.45 1.2801L43.72 3.8401L46.57 4.2551C46.6625 4.26826 46.7495 4.30708 46.8211 4.36718C46.8927 4.42728 46.946 4.50624 46.975 4.5951C47.0015 4.68194 47.0039 4.77436 46.9819 4.86245C46.9599 4.95054 46.9143 5.03096 46.85 5.0951L44.79 7.0951L45.29 9.9101C45.3079 10.0038 45.2985 10.1007 45.2631 10.1893C45.2276 10.2779 45.1676 10.3545 45.09 10.4101C44.9995 10.4736 44.8904 10.5052 44.78 10.5001Z" fill="#FCA919"/>
</g>
<g clip-path="url(#clip3_301_2815)">
<path d="M62.78 10.5001C62.7 10.5004 62.6212 10.4816 62.55 10.4451L60 9.1101L57.45 10.4451C57.3672 10.4886 57.2738 10.5081 57.1805 10.5012C57.0872 10.4943 56.9977 10.4614 56.9222 10.4062C56.8467 10.351 56.7882 10.2757 56.7533 10.1889C56.7184 10.1021 56.7086 10.0072 56.725 9.9151L57.225 7.1001L55.165 5.1001C55.1007 5.03596 55.0551 4.95554 55.0331 4.86745C55.0111 4.77936 55.0135 4.68694 55.04 4.6001C55.069 4.51124 55.1223 4.43228 55.1939 4.37218C55.2655 4.31208 55.3525 4.27326 55.445 4.2601L58.295 3.8451L59.55 1.2801C59.5909 1.19557 59.6549 1.12427 59.7345 1.07439C59.814 1.0245 59.9061 0.998047 60 0.998047C60.0939 0.998047 60.186 1.0245 60.2655 1.07439C60.3451 1.12427 60.4091 1.19557 60.45 1.2801L61.72 3.8401L64.57 4.2551C64.6625 4.26826 64.7495 4.30708 64.8211 4.36718C64.8927 4.42728 64.946 4.50624 64.975 4.5951C65.0015 4.68194 65.0039 4.77436 64.9819 4.86245C64.9599 4.95054 64.9143 5.03096 64.85 5.0951L62.79 7.0951L63.29 9.9101C63.3079 10.0038 63.2985 10.1007 63.2631 10.1893C63.2276 10.2779 63.1676 10.3545 63.09 10.4101C62.9995 10.4736 62.8904 10.5052 62.78 10.5001Z" fill="#FCA919"/>
</g>
<g clip-path="url(#clip4_301_2815)">
<path d="M80.78 10.5001C80.7 10.5004 80.6212 10.4816 80.55 10.4451L78 9.1101L75.45 10.4451C75.3672 10.4886 75.2738 10.5081 75.1805 10.5012C75.0872 10.4943 74.9977 10.4614 74.9222 10.4062C74.8467 10.351 74.7882 10.2757 74.7533 10.1889C74.7184 10.1021 74.7086 10.0072 74.725 9.9151L75.225 7.1001L73.165 5.1001C73.1007 5.03596 73.0551 4.95554 73.0331 4.86745C73.0111 4.77936 73.0135 4.68694 73.04 4.6001C73.069 4.51124 73.1223 4.43228 73.1939 4.37218C73.2655 4.31208 73.3525 4.27326 73.445 4.2601L76.295 3.8451L77.55 1.2801C77.5909 1.19557 77.6549 1.12427 77.7345 1.07439C77.814 1.0245 77.9061 0.998047 78 0.998047C78.0939 0.998047 78.186 1.0245 78.2655 1.07439C78.3451 1.12427 78.4091 1.19557 78.45 1.2801L79.72 3.8401L82.57 4.2551C82.6625 4.26826 82.7495 4.30708 82.8211 4.36718C82.8927 4.42728 82.946 4.50624 82.975 4.5951C83.0015 4.68194 83.0039 4.77436 82.9819 4.86245C82.9599 4.95054 82.9143 5.03096 82.85 5.0951L80.79 7.0951L81.29 9.9101C81.3079 10.0038 81.2985 10.1007 81.2631 10.1893C81.2276 10.2779 81.1676 10.3545 81.09 10.4101C80.9995 10.4736 80.8904 10.5052 80.78 10.5001Z" fill="#FCA919"/>
</g>
<defs>
<clipPath id="clip0_301_2815">
<rect width="12" height="12" fill="white"/>
</clipPath>
<clipPath id="clip1_301_2815">
<rect width="12" height="12" fill="white" transform="translate(18)"/>
</clipPath>
<clipPath id="clip2_301_2815">
<rect width="12" height="12" fill="white" transform="translate(36)"/>
</clipPath>
<clipPath id="clip3_301_2815">
<rect width="12" height="12" fill="white" transform="translate(54)"/>
</clipPath>
<clipPath id="clip4_301_2815">
<rect width="12" height="12" fill="white" transform="translate(72)"/>
</clipPath>
</defs>
</svg>
