<svg width="20" height="22" viewBox="0 0 20 22" fill="none" xmlns="http://www.w3.org/2000/svg">
<path d="M3.09549 9.46492C3.09549 8.5604 3.27365 7.66474 3.6198 6.82907C3.96594 5.99341 4.47329 5.2341 5.11288 4.59451C5.75247 3.95492 6.51178 3.44757 7.34744 3.10143C8.18311 2.75528 9.07877 2.57713 9.98328 2.57713C10.8878 2.57713 11.7835 2.75528 12.6191 3.10143C13.4548 3.44757 14.2141 3.95492 14.8537 4.59451C15.4933 5.2341 16.0006 5.99341 16.3468 6.82907C16.6929 7.66474 16.8711 8.5604 16.8711 9.46492V9.46492C16.8711 12.8992 17.5906 14.8946 18.2237 15.9882C18.2909 16.1046 18.3264 16.2367 18.3265 16.3712C18.3266 16.5057 18.2914 16.6379 18.2244 16.7544C18.1573 16.871 18.0608 16.968 17.9445 17.0355C17.8283 17.1031 17.6963 17.1389 17.5618 17.1393H2.4048C2.27031 17.1389 2.13831 17.1031 2.02202 17.0355C1.90573 16.968 1.80924 16.871 1.7422 16.7544C1.67516 16.6379 1.63994 16.5057 1.64006 16.3712C1.64018 16.2367 1.67563 16.1046 1.74288 15.9882C2.37602 14.8946 3.09549 12.8992 3.09549 9.46492Z" stroke="#736E6C" stroke-width="2" stroke-linecap="round" stroke-linejoin="round"/>
<path d="M6.91372 17.1395V17.907C6.91372 18.7211 7.23714 19.5019 7.81284 20.0776C8.38853 20.6533 9.16934 20.9767 9.98349 20.9767C10.7976 20.9767 11.5784 20.6533 12.1541 20.0776C12.7298 19.5019 13.0533 18.7211 13.0533 17.907V17.1395" stroke="#736E6C" stroke-width="2" stroke-linecap="round" stroke-linejoin="round"/>
<path d="M15.2981 1.02326C16.8607 2.00962 18.1218 3.40681 18.9435 5.06192" stroke="#736E6C" stroke-width="2" stroke-linecap="round" stroke-linejoin="round"/>
<path d="M1.02351 5.06192C1.84517 3.40681 3.10629 2.00962 4.66885 1.02326" stroke="#736E6C" stroke-width="2" stroke-linecap="round" stroke-linejoin="round"/>
</svg>
