<svg width="428" height="80" viewBox="0 0 428 80" fill="none" xmlns="http://www.w3.org/2000/svg">
<g filter="url(#filter0_i_301_364)">
<rect width="428" height="80" fill="#FFFBFE"/>
<rect width="428" height="80" fill="white"/>
<path d="M45.2499 45.5V41C45.2499 40.801 45.1709 40.6103 45.0303 40.4696C44.8896 40.329 44.6989 40.25 44.4999 40.25H41.4999C41.301 40.25 41.1103 40.329 40.9696 40.4696C40.829 40.6103 40.7499 40.801 40.7499 41V45.5C40.7499 45.6989 40.6709 45.8896 40.5303 46.0303C40.3896 46.1709 40.1989 46.25 39.9999 46.25H35.4999C35.301 46.25 35.1103 46.1709 34.9696 46.0303C34.829 45.8896 34.7499 45.6989 34.7499 45.5V36.8281C34.7516 36.7243 34.774 36.6219 34.8159 36.5269C34.8578 36.4319 34.9182 36.3462 34.9937 36.275L42.4937 29.4593C42.6319 29.3328 42.8125 29.2627 42.9999 29.2627C43.1873 29.2627 43.3679 29.3328 43.5062 29.4593L51.0062 36.275C51.0817 36.3462 51.1421 36.4319 51.184 36.5269C51.2258 36.6219 51.2483 36.7243 51.2499 36.8281V45.5C51.2499 45.6989 51.1709 45.8896 51.0303 46.0303C50.8896 46.1709 50.6989 46.25 50.4999 46.25H45.9999C45.801 46.25 45.6103 46.1709 45.4696 46.0303C45.329 45.8896 45.2499 45.6989 45.2499 45.5Z" stroke="#736E6C" stroke-width="2" stroke-linecap="round" stroke-linejoin="round"/>
<path d="M127.275 46.75C131.624 46.75 135.15 43.2242 135.15 38.875C135.15 34.5258 131.624 31 127.275 31C122.926 31 119.4 34.5258 119.4 38.875C119.4 43.2242 122.926 46.75 127.275 46.75Z" stroke="#736E6C" stroke-width="2" stroke-linecap="round" stroke-linejoin="round"/>
<path d="M132.844 44.4438L137.4 49.0001" stroke="#736E6C" stroke-width="2" stroke-linecap="round" stroke-linejoin="round"/>
<path d="M221.5 31.75H206.5C206.086 31.75 205.75 32.0858 205.75 32.5V47.5C205.75 47.9142 206.086 48.25 206.5 48.25H221.5C221.914 48.25 222.25 47.9142 222.25 47.5V32.5C222.25 32.0858 221.914 31.75 221.5 31.75Z" stroke="#736E6C" stroke-width="2" stroke-linecap="round" stroke-linejoin="round"/>
<path d="M218.5 30.25V33.25" stroke="#736E6C" stroke-width="2" stroke-linecap="round" stroke-linejoin="round"/>
<path d="M209.5 30.25V33.25" stroke="#736E6C" stroke-width="2" stroke-linecap="round" stroke-linejoin="round"/>
<path d="M205.75 36.25H222.25" stroke="#736E6C" stroke-width="2" stroke-linecap="round" stroke-linejoin="round"/>
<path d="M217.375 40L212.997 44.125L210.625 41.875" stroke="#736E6C" stroke-width="2" stroke-linecap="round" stroke-linejoin="round"/>
<path d="M292.868 38.5C292.868 37.6161 293.043 36.7408 293.381 35.9241C293.719 35.1074 294.215 34.3654 294.84 33.7403C295.465 33.1153 296.207 32.6195 297.024 32.2812C297.84 31.9429 298.716 31.7688 299.6 31.7688C300.484 31.7688 301.359 31.9429 302.176 32.2812C302.992 32.6195 303.734 33.1153 304.359 33.7403C304.984 34.3654 305.48 35.1074 305.819 35.9241C306.157 36.7408 306.331 37.6161 306.331 38.5V38.5C306.331 41.8563 307.034 43.8063 307.653 44.875C307.719 44.9889 307.753 45.118 307.753 45.2494C307.753 45.3808 307.719 45.51 307.654 45.6239C307.588 45.7378 307.494 45.8326 307.38 45.8986C307.266 45.9646 307.137 45.9996 307.006 46H292.193C292.062 45.9996 291.933 45.9646 291.819 45.8986C291.706 45.8326 291.611 45.7378 291.546 45.6239C291.48 45.51 291.446 45.3808 291.446 45.2494C291.446 45.118 291.481 44.9889 291.547 44.875C292.165 43.8063 292.868 41.8563 292.868 38.5Z" stroke="#736E6C" stroke-width="2" stroke-linecap="round" stroke-linejoin="round"/>
<path d="M296.6 46V46.75C296.6 47.5456 296.916 48.3087 297.479 48.8713C298.041 49.4339 298.804 49.75 299.6 49.75C300.396 49.75 301.159 49.4339 301.721 48.8713C302.284 48.3087 302.6 47.5456 302.6 46.75V46" stroke="#736E6C" stroke-width="2" stroke-linecap="round" stroke-linejoin="round"/>
<path d="M304.794 30.25C306.321 31.2139 307.553 32.5794 308.356 34.1969" stroke="#736E6C" stroke-width="2" stroke-linecap="round" stroke-linejoin="round"/>
<path d="M290.844 34.1969C291.647 32.5794 292.879 31.2139 294.406 30.25" stroke="#736E6C" stroke-width="2" stroke-linecap="round" stroke-linejoin="round"/>
<path d="M385.2 43C388.514 43 391.2 40.3137 391.2 37C391.2 33.6863 388.514 31 385.2 31C381.886 31 379.2 33.6863 379.2 37C379.2 40.3137 381.886 43 385.2 43Z" stroke="#BB957B" stroke-width="2" stroke-miterlimit="10"/>
<path d="M376.106 48.2501C377.028 46.6537 378.353 45.328 379.95 44.4062C381.546 43.4845 383.357 42.9993 385.2 42.9993C387.043 42.9993 388.854 43.4845 390.45 44.4062C392.047 45.328 393.372 46.6537 394.294 48.2501" stroke="#BB957B" stroke-width="2" stroke-linecap="round" stroke-linejoin="round"/>
<path d="M353 39C353 30.1634 360.163 23 369 23H401C409.836 23 417 30.1634 417 39C417 47.8366 409.836 55 401 55H369C360.163 55 353 47.8366 353 39Z" fill="#175C4C" fill-opacity="0.15"/>
</g>
<defs>
<filter id="filter0_i_301_364" x="-8.70001" y="0" width="436.7" height="82" filterUnits="userSpaceOnUse" color-interpolation-filters="sRGB">
<feFlood flood-opacity="0" result="BackgroundImageFix"/>
<feBlend mode="normal" in="SourceGraphic" in2="BackgroundImageFix" result="shape"/>
<feColorMatrix in="SourceAlpha" type="matrix" values="0 0 0 0 0 0 0 0 0 0 0 0 0 0 0 0 0 0 127 0" result="hardAlpha"/>
<feOffset dy="2"/>
<feGaussianBlur stdDeviation="30"/>
<feComposite in2="hardAlpha" operator="arithmetic" k2="-1" k3="1"/>
<feColorMatrix type="matrix" values="0 0 0 0 0 0 0 0 0 0 0 0 0 0 0 0 0 0 0.07 0"/>
<feBlend mode="normal" in2="shape" result="effect1_innerShadow_301_364"/>
</filter>
</defs>
</svg>
