<svg width="30" height="30" viewBox="0 0 30 30" fill="none" xmlns="http://www.w3.org/2000/svg">
<path d="M12.6699 4.80418C13.4481 2.56528 16.6145 2.56527 17.3927 4.80417L18.5746 8.20437C18.9179 9.19205 19.8397 9.86173 20.8851 9.88303L24.4841 9.95637C26.8539 10.0047 27.8324 13.016 25.9435 14.448L23.075 16.6228C22.2417 17.2545 21.8897 18.3381 22.1925 19.3389L23.2349 22.7845C23.9212 25.0532 21.3596 26.9143 19.414 25.5605L16.4593 23.5044C15.601 22.9071 14.4616 22.9071 13.6034 23.5044L10.6486 25.5605C8.70299 26.9143 6.14136 25.0532 6.82775 22.7845L7.87015 19.3389C8.17294 18.3381 7.82087 17.2545 6.98763 16.6228L4.11908 14.448C2.23025 13.016 3.2087 10.0047 5.57851 9.95637L9.17752 9.88303C10.2229 9.86173 11.1447 9.19205 11.488 8.20437L12.6699 4.80418Z" fill="#D8DDEB"/>
</svg>
