<svg width="17" height="4" viewBox="0 0 17 4" fill="none" xmlns="http://www.w3.org/2000/svg">
<path fill-rule="evenodd" clip-rule="evenodd" d="M0 2C0 0.895431 0.908196 0 2.01277 0C3.11734 0 4.02553 0.895431 4.02553 2C4.02553 3.10457 3.11734 4 2.01277 4C0.908196 4 0 3.10457 0 2ZM6.0383 2C6.0383 0.895431 6.94649 0 8.05106 0C9.15563 0 10.0638 0.895431 10.0638 2C10.0638 3.10457 9.15563 4 8.05106 4C6.94649 4 6.0383 3.10457 6.0383 2ZM14.0894 0C12.9848 0 12.0766 0.895431 12.0766 2C12.0766 3.10457 12.9848 4 14.0894 4C15.1939 4 16.1021 3.10457 16.1021 2C16.1021 0.895431 15.1939 0 14.0894 0Z" fill="#7E8EAA"/>
</svg>
