<svg width="9" height="9" viewBox="0 0 9 9" fill="none" xmlns="http://www.w3.org/2000/svg">
<path fill-rule="evenodd" clip-rule="evenodd" d="M4.49988 0C4.14484 0 3.85703 0.287817 3.85703 0.642857V3.85715H0.642857C0.287817 3.85715 0 4.14496 0 4.5C0 4.85504 0.287817 5.14286 0.642857 5.14286H3.85703V8.35714C3.85703 8.71218 4.14484 9 4.49988 9C4.85492 9 5.14274 8.71218 5.14274 8.35714V5.14286H8.35714C8.71218 5.14286 9 4.85504 9 4.5C9 4.14496 8.71218 3.85715 8.35714 3.85715H5.14274V0.642857C5.14274 0.287817 4.85492 0 4.49988 0Z" fill="#8293B0"/>
</svg>
