<svg width="22" height="20" viewBox="0 0 22 20" fill="none" xmlns="http://www.w3.org/2000/svg">
<path d="M20.3714 19L16.4971 15.4M19.08 9.4C19.08 10.5031 18.8462 11.5954 18.3919 12.6145C17.9376 13.6337 17.2717 14.5597 16.4322 15.3397C15.5928 16.1197 14.5962 16.7384 13.4995 17.1606C12.4027 17.5827 11.2272 17.8 10.04 17.8C8.85285 17.8 7.67733 17.5827 6.58054 17.1606C5.48376 16.7384 4.4872 16.1197 3.64775 15.3397C2.80831 14.5597 2.14243 13.6337 1.68813 12.6145C1.23383 11.5954 1 10.5031 1 9.4C1 7.17218 1.95243 5.03561 3.64775 3.4603C5.34308 1.885 7.64244 1 10.04 1C12.4376 1 14.7369 1.885 16.4322 3.4603C18.1276 5.03561 19.08 7.17218 19.08 9.4Z" stroke="black" stroke-width="2" stroke-linecap="round" stroke-linejoin="round"/>
</svg>
