<svg width="23" height="15" viewBox="0 0 23 15" fill="none" xmlns="http://www.w3.org/2000/svg">
<path fill-rule="evenodd" clip-rule="evenodd" d="M2.68025 1.55172C2.18683 1.55172 1.78683 1.89909 1.78683 2.32759V12.6724C1.78683 13.1009 2.18683 13.4483 2.68025 13.4483H14.5925C15.0859 13.4483 15.4859 13.1009 15.4859 12.6724V2.32759C15.4859 1.89909 15.0859 1.55172 14.5925 1.55172H2.68025ZM0 2.32759C0 1.0421 1.19999 0 2.68025 0H14.5925C16.0727 0 17.2727 1.0421 17.2727 2.32759V5.96458L21.0332 3.5583C21.8197 3.05502 22.931 3.54269 22.931 4.39112V10.6089C22.931 11.4573 21.8197 11.945 21.0332 11.4417L17.2727 9.03542V12.6724C17.2727 13.9579 16.0727 15 14.5925 15H2.68025C1.19999 15 0 13.9579 0 12.6724V2.32759ZM17.8854 7.5L21.1442 9.58527V5.41474L17.8854 7.5Z" fill="#86878B"/>
</svg>
