<svg width="309" height="245" viewBox="0 0 309 245" fill="none" xmlns="http://www.w3.org/2000/svg">
<path d="M91.0135 2.89221C79.4487 1.78616 67.4718 6.61455 59.9087 15.4326C54.4024 21.8528 51.2747 30.0074 45.9789 36.6029C35.9292 49.1193 19.1623 54.78 9.14374 67.322C-1.19012 80.2585 -2.43383 99.0415 3.74552 114.402C9.92487 129.763 22.6557 141.845 37.1545 149.838C42.2382 152.641 47.6892 155.09 51.6629 159.322C57.9871 166.059 59.3877 176.126 58.4681 185.32C57.5493 194.514 54.6553 203.419 53.6365 212.603C52.9138 219.116 53.3172 226.236 57.3548 231.397C61.0668 236.141 67.1501 238.333 73.0405 239.596C90.6758 243.376 109.624 240.685 125.509 232.144C138.359 225.234 149.13 214.732 162.454 208.792C178.442 201.665 196.717 201.739 214.075 204.005C224.704 205.393 235.291 207.556 246.009 207.513C256.729 207.471 267.86 204.981 276.088 198.112C283.98 191.524 288.381 181.638 291.108 171.726C297.778 147.489 295.738 120.952 285.441 98.0211C282.255 90.9253 278.216 84.0577 272.438 78.8516C266.46 73.4653 258.955 70.14 251.588 66.9018C228.65 56.8209 203.234 40.8295 177.998 38.3732C170.542 37.6473 162.974 38.7742 155.636 36.9567C144.368 34.1667 134.743 26.6524 125.584 19.8984C115.25 12.2777 104.217 4.15513 91.0135 2.89221Z" fill="url(#paint0_linear_301_1205)"/>
<path d="M216.175 191.158C215.576 191.158 214.978 191.153 214.38 191.144C214.16 191.14 213.984 190.959 213.987 190.737C213.99 190.516 214.179 190.34 214.393 190.343C215.455 190.36 216.517 190.36 217.583 190.349C217.772 190.334 217.985 190.523 217.988 190.744C217.99 190.965 217.813 191.147 217.592 191.149C217.119 191.155 216.646 191.158 216.175 191.158ZM222.387 190.992C222.175 190.992 221.999 190.827 221.988 190.613C221.976 190.393 222.144 190.204 222.366 190.193C223.428 190.136 224.489 190.065 225.55 189.98C225.768 189.967 225.964 190.126 225.98 190.347C225.998 190.567 225.834 190.76 225.614 190.777C224.546 190.864 223.479 190.934 222.409 190.992C222.401 190.992 222.394 190.992 222.387 190.992ZM209.588 190.971C209.581 190.971 209.573 190.971 209.566 190.97C208.496 190.909 207.428 190.833 206.362 190.743C206.142 190.724 205.979 190.531 205.997 190.311C206.015 190.09 206.215 189.931 206.429 189.946C207.489 190.034 208.55 190.11 209.611 190.171C209.832 190.184 210 190.373 209.988 190.593C209.975 190.807 209.799 190.971 209.588 190.971ZM230.357 190.298C230.157 190.298 229.985 190.149 229.961 189.946C229.934 189.727 230.09 189.528 230.309 189.501C231.365 189.373 232.419 189.23 233.472 189.074C233.688 189.041 233.893 189.192 233.925 189.411C233.958 189.629 233.807 189.833 233.588 189.865C232.53 190.022 231.468 190.166 230.404 190.295C230.389 190.297 230.373 190.298 230.357 190.298ZM201.621 190.235C201.604 190.235 201.586 190.235 201.57 190.232C200.508 190.096 199.447 189.946 198.389 189.779C198.171 189.745 198.022 189.54 198.056 189.321C198.091 189.103 198.299 188.956 198.514 188.988C199.564 189.153 200.616 189.305 201.67 189.439C201.889 189.467 202.045 189.667 202.017 189.887C201.991 190.087 201.819 190.235 201.621 190.235ZM238.264 189.068C238.076 189.068 237.909 188.934 237.872 188.743C237.83 188.526 237.973 188.316 238.19 188.274C239.236 188.076 240.277 187.863 241.316 187.637C241.536 187.589 241.745 187.725 241.793 187.942C241.84 188.158 241.703 188.371 241.487 188.419C240.441 188.647 239.392 188.861 238.339 189.061C238.314 189.065 238.289 189.068 238.264 189.068ZM246.071 187.309C245.893 187.309 245.731 187.191 245.685 187.01C245.629 186.796 245.757 186.578 245.97 186.523C246.999 186.254 248.025 185.971 249.046 185.675C249.261 185.613 249.481 185.735 249.542 185.948C249.603 186.161 249.481 186.383 249.269 186.444C248.241 186.742 247.208 187.026 246.172 187.296C246.138 187.305 246.105 187.309 246.071 187.309ZM253.742 185.032C253.574 185.032 253.418 184.926 253.361 184.758C253.292 184.548 253.405 184.322 253.614 184.251C254.623 183.914 255.627 183.564 256.627 183.2C256.836 183.125 257.064 183.232 257.14 183.44C257.216 183.648 257.109 183.877 256.9 183.953C255.894 184.319 254.884 184.671 253.868 185.012C253.826 185.025 253.784 185.032 253.742 185.032ZM261.241 182.24C261.084 182.24 260.934 182.146 260.87 181.992C260.787 181.787 260.884 181.553 261.088 181.469C262.071 181.065 263.05 180.647 264.022 180.216C264.223 180.128 264.46 180.216 264.55 180.419C264.64 180.622 264.548 180.858 264.347 180.947C263.367 181.382 262.383 181.803 261.393 182.21C261.343 182.231 261.291 182.24 261.241 182.24ZM268.532 178.943C268.384 178.943 268.243 178.861 268.173 178.721C268.075 178.522 268.156 178.282 268.355 178.185C269.308 177.714 270.256 177.23 271.195 176.732C271.391 176.63 271.633 176.703 271.736 176.899C271.84 177.094 271.765 177.336 271.57 177.44C270.623 177.941 269.67 178.429 268.71 178.903C268.652 178.931 268.591 178.943 268.532 178.943ZM275.578 175.151C275.44 175.151 275.306 175.079 275.232 174.952C275.12 174.762 275.185 174.516 275.376 174.405C276.294 173.869 277.204 173.32 278.107 172.756C278.295 172.642 278.542 172.697 278.658 172.884C278.775 173.071 278.717 173.319 278.53 173.436C277.621 174.001 276.704 174.556 275.779 175.095C275.716 175.134 275.647 175.151 275.578 175.151ZM282.339 170.871C282.212 170.871 282.086 170.81 282.008 170.696C281.884 170.513 281.931 170.265 282.113 170.14C282.989 169.541 283.858 168.928 284.715 168.299C284.892 168.168 285.143 168.206 285.275 168.385C285.405 168.563 285.367 168.814 285.189 168.944C284.324 169.578 283.448 170.197 282.565 170.8C282.496 170.848 282.417 170.871 282.339 170.871ZM288.737 166.068C288.622 166.068 288.509 166.019 288.429 165.924C288.288 165.754 288.311 165.503 288.481 165.36C289.311 164.666 290.115 163.959 290.868 163.26C291.029 163.109 291.283 163.118 291.433 163.281C291.584 163.443 291.575 163.696 291.412 163.846C290.65 164.554 289.835 165.27 288.993 165.974C288.919 166.037 288.827 166.068 288.737 166.068ZM294.506 160.531C294.411 160.531 294.316 160.497 294.24 160.43C294.074 160.283 294.06 160.03 294.206 159.865C294.681 159.332 295.143 158.788 295.592 158.232C295.808 157.964 296.021 157.695 296.23 157.423C296.366 157.247 296.617 157.215 296.791 157.349C296.967 157.484 296.999 157.735 296.865 157.91C296.651 158.187 296.435 158.461 296.215 158.734C295.757 159.3 295.287 159.853 294.804 160.396C294.725 160.486 294.616 160.531 294.506 160.531ZM299.264 154.116C299.192 154.116 299.12 154.097 299.055 154.057C298.867 153.941 298.807 153.695 298.923 153.506C299.466 152.621 299.992 151.692 300.487 150.746C300.591 150.551 300.835 150.477 301.028 150.577C301.224 150.681 301.3 150.922 301.197 151.118C300.693 152.08 300.157 153.024 299.606 153.925C299.53 154.048 299.399 154.116 299.264 154.116ZM302.866 146.981C302.815 146.981 302.763 146.972 302.714 146.952C302.51 146.868 302.412 146.634 302.496 146.429C302.891 145.47 303.269 144.47 303.62 143.457C303.693 143.249 303.92 143.138 304.13 143.21C304.338 143.282 304.449 143.51 304.377 143.719C304.021 144.746 303.637 145.76 303.237 146.734C303.172 146.889 303.023 146.981 302.866 146.981ZM305.395 139.392C305.361 139.392 305.327 139.388 305.292 139.378C305.079 139.322 304.951 139.102 305.007 138.889C305.273 137.885 305.524 136.843 305.751 135.795C305.798 135.579 306.014 135.444 306.226 135.489C306.443 135.536 306.58 135.748 306.533 135.964C306.303 137.025 306.05 138.079 305.782 139.094C305.733 139.273 305.572 139.392 305.395 139.392ZM307.02 131.557C306.999 131.557 306.978 131.555 306.957 131.552C306.739 131.517 306.59 131.313 306.623 131.095C306.785 130.06 306.932 128.997 307.061 127.937C307.088 127.718 307.292 127.561 307.507 127.588C307.725 127.614 307.882 127.814 307.856 128.034C307.726 129.103 307.577 130.175 307.415 131.218C307.384 131.417 307.213 131.557 307.02 131.557ZM307.929 123.605C307.917 123.605 307.908 123.605 307.897 123.604C307.677 123.587 307.513 123.395 307.529 123.174C307.61 122.114 307.677 121.052 307.732 119.989C307.743 119.769 307.907 119.599 308.151 119.609C308.372 119.621 308.542 119.809 308.531 120.03C308.476 121.099 308.409 122.168 308.327 123.235C308.31 123.445 308.135 123.605 307.929 123.605ZM234.868 116.703C234.662 116.703 234.486 116.544 234.47 116.335C234.453 116.115 234.618 115.922 234.837 115.905C235.822 115.826 236.842 115.676 237.953 115.444C238.165 115.398 238.381 115.538 238.426 115.754C238.471 115.97 238.332 116.182 238.115 116.227C236.971 116.466 235.92 116.621 234.9 116.703C234.89 116.703 234.879 116.703 234.868 116.703ZM230.093 116.428C230.065 116.428 230.036 116.425 230.007 116.418C229.843 116.382 229.679 116.342 229.515 116.3C228.616 116.066 227.739 115.729 226.908 115.3C226.712 115.2 226.634 114.958 226.736 114.762C226.838 114.565 227.079 114.488 227.275 114.59C228.054 114.991 228.875 115.307 229.716 115.526C229.871 115.566 230.026 115.604 230.181 115.638C230.397 115.686 230.532 115.9 230.485 116.116C230.442 116.301 230.277 116.428 230.093 116.428ZM308.297 115.61C308.294 115.61 308.292 115.61 308.289 115.61C308.069 115.606 307.893 115.424 307.897 115.203C307.917 114.136 307.927 113.071 307.928 112.009C307.928 111.788 308.107 111.608 308.328 111.608C308.549 111.608 308.728 111.788 308.728 112.009C308.727 113.076 308.717 114.146 308.697 115.218C308.693 115.436 308.514 115.61 308.297 115.61ZM242.664 114.972C242.496 114.972 242.34 114.866 242.284 114.698C242.214 114.488 242.329 114.262 242.538 114.192C243.503 113.873 244.507 113.506 245.523 113.103C245.728 113.022 245.961 113.123 246.042 113.328C246.124 113.533 246.024 113.765 245.818 113.847C244.788 114.256 243.769 114.627 242.79 114.951C242.747 114.966 242.706 114.972 242.664 114.972ZM223.312 112.426C223.204 112.426 223.096 112.382 223.018 112.296C222.296 111.508 221.636 110.626 221.06 109.672C220.946 109.483 221.006 109.236 221.195 109.123C221.384 109.009 221.631 109.069 221.745 109.258C222.294 110.166 222.922 111.007 223.608 111.756C223.756 111.919 223.746 112.172 223.584 112.322C223.506 112.391 223.409 112.426 223.312 112.426ZM250.072 111.956C249.922 111.956 249.778 111.871 249.71 111.726C249.616 111.527 249.701 111.288 249.901 111.194C250.862 110.74 251.818 110.271 252.767 109.792C252.963 109.691 253.205 109.771 253.305 109.969C253.404 110.166 253.325 110.406 253.128 110.506C252.172 110.987 251.21 111.46 250.243 111.917C250.187 111.944 250.13 111.956 250.072 111.956ZM257.21 108.339C257.067 108.339 256.928 108.261 256.856 108.126C256.753 107.931 256.828 107.688 257.024 107.585C257.964 107.088 258.904 106.585 259.842 106.075C260.035 105.971 260.279 106.041 260.385 106.236C260.491 106.43 260.419 106.673 260.225 106.778C259.285 107.29 258.342 107.794 257.398 108.293C257.338 108.324 257.274 108.339 257.21 108.339ZM308.277 107.607C308.06 107.607 307.881 107.433 307.877 107.215C307.856 106.151 307.828 105.086 307.79 104.021C307.782 103.8 307.955 103.614 308.176 103.607C308.394 103.59 308.583 103.772 308.591 103.993C308.628 105.062 308.656 106.131 308.677 107.199C308.681 107.42 308.506 107.602 308.285 107.607C308.282 107.607 308.279 107.607 308.277 107.607ZM219.487 105.476C219.314 105.476 219.154 105.362 219.103 105.187C218.799 104.145 218.581 103.068 218.452 101.989C218.425 101.769 218.582 101.57 218.802 101.544C219.018 101.516 219.221 101.675 219.247 101.894C219.37 102.93 219.58 103.963 219.872 104.963C219.934 105.175 219.812 105.398 219.599 105.46C219.562 105.471 219.524 105.476 219.487 105.476ZM264.225 104.485C264.087 104.485 263.952 104.413 263.878 104.284C263.767 104.092 263.834 103.848 264.026 103.737C264.949 103.207 265.867 102.666 266.778 102.117C266.964 102.004 267.213 102.064 267.327 102.253C267.441 102.442 267.381 102.689 267.191 102.803C266.275 103.355 265.353 103.898 264.425 104.432C264.362 104.467 264.293 104.485 264.225 104.485ZM271.05 100.306C270.921 100.306 270.793 100.242 270.716 100.125C270.595 99.9405 270.646 99.6924 270.831 99.5715C271.722 98.9881 272.603 98.3926 273.472 97.7844C273.654 97.6587 273.903 97.7011 274.03 97.8828C274.156 98.0637 274.112 98.3134 273.931 98.4398C273.054 99.0529 272.168 99.6531 271.27 100.241C271.202 100.285 271.126 100.306 271.05 100.306ZM307.946 99.6115C307.737 99.6115 307.561 99.4499 307.546 99.2394C307.472 98.1781 307.384 97.1185 307.277 96.0621C307.255 95.842 307.415 95.6459 307.635 95.6235C307.837 95.6051 308.051 95.7611 308.073 95.9812C308.181 97.0465 308.27 98.1141 308.345 99.1833C308.36 99.4034 308.194 99.5947 307.974 99.6107C307.964 99.6107 307.954 99.6115 307.946 99.6115ZM218.902 97.5531C218.882 97.5531 218.863 97.5523 218.844 97.5491C218.625 97.5179 218.473 97.3146 218.505 97.0961C218.657 96.0356 218.89 94.9656 219.194 93.9164C219.255 93.7043 219.474 93.5794 219.69 93.6435C219.902 93.7051 220.024 93.9268 219.963 94.1389C219.668 95.1529 219.445 96.1861 219.297 97.2097C219.268 97.409 219.097 97.5531 218.902 97.5531ZM277.564 95.6611C277.446 95.6611 277.327 95.6083 277.248 95.5074C277.112 95.3329 277.143 95.0816 277.318 94.9456C278.161 94.2877 278.994 93.6122 279.79 92.9384C279.959 92.7967 280.212 92.8167 280.354 92.9856C280.497 93.1545 280.476 93.4066 280.307 93.5498C279.502 94.2309 278.661 94.9136 277.81 95.5779C277.737 95.6339 277.651 95.6611 277.564 95.6611ZM307.059 91.6602C306.866 91.6602 306.696 91.5202 306.664 91.3233C306.494 90.2629 306.3 89.2096 306.086 88.1948C306.041 87.9779 306.179 87.7658 306.396 87.721C306.609 87.677 306.823 87.8139 306.87 88.0299C307.087 89.0576 307.284 90.1228 307.455 91.196C307.489 91.4145 307.34 91.6194 307.123 91.6546C307.101 91.6586 307.08 91.6602 307.059 91.6602ZM283.608 90.4221C283.503 90.4221 283.399 90.3813 283.321 90.3005C283.168 90.142 283.172 89.8883 283.331 89.7346C284.1 88.9879 284.849 88.2244 285.557 87.4641C285.708 87.3024 285.961 87.2944 286.123 87.4441C286.285 87.5946 286.293 87.8475 286.143 88.0099C285.425 88.7798 284.665 89.5538 283.887 90.3093C283.809 90.3845 283.708 90.4221 283.608 90.4221ZM221.338 89.9675C221.278 89.9675 221.217 89.9539 221.159 89.9251C220.961 89.8259 220.881 89.5858 220.979 89.3881C221.447 88.4517 221.984 87.5033 222.575 86.5693C222.694 86.3829 222.942 86.3276 223.127 86.4453C223.314 86.5637 223.37 86.8102 223.251 86.9967C222.674 87.9091 222.151 88.8335 221.695 89.7466C221.626 89.8867 221.484 89.9675 221.338 89.9675ZM288.978 84.4973C288.892 84.4973 288.805 84.4693 288.731 84.4124C288.558 84.2764 288.527 84.0243 288.663 83.8506L288.984 83.4392C289.518 82.7518 290.045 82.0299 290.549 81.2952C290.674 81.1119 290.922 81.0663 291.105 81.1919C291.287 81.3168 291.333 81.5657 291.208 81.7482C290.695 82.4965 290.159 83.2304 289.616 83.9306L289.293 84.3452C289.215 84.4445 289.097 84.4973 288.978 84.4973ZM305.298 83.8594C305.126 83.8594 304.967 83.7474 304.915 83.5737C304.751 83.0255 304.577 82.4796 304.394 81.9362C304.239 81.4768 304.076 81.0199 303.906 80.5645C303.828 80.3572 303.933 80.1267 304.14 80.0491C304.35 79.9714 304.578 80.0763 304.655 80.2835C304.829 80.7469 304.995 81.2127 305.152 81.6793C305.339 82.2315 305.516 82.7862 305.682 83.3432C305.746 83.5553 305.626 83.7778 305.414 83.8418C305.375 83.8538 305.336 83.8594 305.298 83.8594ZM225.731 83.2976C225.642 83.2976 225.551 83.268 225.478 83.2072C225.307 83.0671 225.282 82.815 225.422 82.6437C226.081 81.8386 226.796 81.0214 227.548 80.2155C227.698 80.0539 227.953 80.0451 228.113 80.1955C228.274 80.3468 228.283 80.5997 228.132 80.7613C227.392 81.5545 226.688 82.358 226.04 83.1495C225.962 83.2472 225.847 83.2976 225.731 83.2976ZM293.391 77.8297C293.326 77.8297 293.26 77.8137 293.199 77.7809C293.005 77.6753 292.934 77.432 293.04 77.2375C293.544 76.3131 294.025 75.3591 294.466 74.4019C294.558 74.2002 294.798 74.1138 294.996 74.2058C295.197 74.2987 295.284 74.5364 295.192 74.7373C294.743 75.7105 294.255 76.6813 293.741 77.6208C293.669 77.7537 293.532 77.8297 293.391 77.8297ZM231.256 77.516C231.148 77.516 231.041 77.472 230.962 77.3863C230.812 77.2239 230.822 76.9702 230.986 76.8213C231.772 76.0986 232.586 75.3831 233.401 74.6948C233.569 74.5524 233.823 74.5732 233.965 74.7421C234.108 74.9109 234.085 75.1638 233.917 75.3063C233.11 75.9882 232.305 76.6957 231.527 77.4104C231.45 77.4808 231.353 77.516 231.256 77.516ZM302.354 76.4284C302.208 76.4284 302.068 76.3483 301.997 76.2091C301.516 75.2599 300.997 74.3283 300.455 73.4399C300.341 73.251 300.4 73.0053 300.588 72.8901C300.777 72.774 301.023 72.8341 301.139 73.0238C301.692 73.9297 302.221 74.8805 302.711 75.8481C302.811 76.045 302.732 76.2859 302.535 76.3859C302.476 76.4147 302.414 76.4284 302.354 76.4284ZM237.422 72.4195C237.3 72.4195 237.179 72.3635 237.101 72.2578C236.969 72.0802 237.007 71.8297 237.183 71.6976C238.036 71.0637 238.919 70.4363 239.805 69.8328C239.986 69.7096 240.236 69.7552 240.36 69.9377C240.484 70.121 240.438 70.3699 240.254 70.4939C239.377 71.0917 238.504 71.7128 237.66 72.3403C237.589 72.3939 237.504 72.4195 237.422 72.4195ZM296.609 70.5123C296.566 70.5123 296.523 70.5059 296.481 70.4915C296.271 70.4203 296.159 70.1938 296.23 69.9841C296.411 69.4527 296.581 68.9149 296.741 68.3762C296.379 67.9665 296.01 67.5687 295.636 67.1861C295.483 67.0277 295.486 66.7748 295.644 66.6203C295.802 66.4666 296.056 66.469 296.21 66.6275C296.476 66.9004 296.739 67.1805 296.999 67.4663C297.047 67.2926 297.092 67.1197 297.137 66.9468C297.192 66.7332 297.408 66.6011 297.624 66.6595C297.839 66.7147 297.968 66.9332 297.912 67.1469C297.823 67.4911 297.728 67.836 297.63 68.1809C297.877 68.4667 298.117 68.7572 298.355 69.0525C298.494 69.2246 298.466 69.4767 298.294 69.6151C298.121 69.7528 297.87 69.7264 297.732 69.5543C297.608 69.4015 297.484 69.2486 297.358 69.0981C297.239 69.4815 297.115 69.8632 296.987 70.2426C296.931 70.4075 296.775 70.5123 296.609 70.5123ZM244.081 67.9849C243.945 67.9849 243.812 67.9152 243.737 67.7888C243.623 67.5991 243.686 67.3534 243.876 67.2406C244.792 66.6963 245.733 66.1625 246.675 65.6543C246.867 65.5495 247.112 65.6215 247.218 65.816C247.323 66.0105 247.25 66.253 247.056 66.3586C246.123 66.862 245.192 67.3902 244.286 67.928C244.222 67.9673 244.15 67.9849 244.081 67.9849ZM251.16 64.2585C251.008 64.2585 250.864 64.1729 250.796 64.0264C250.704 63.8256 250.791 63.5879 250.992 63.495C251.961 63.0468 252.952 62.6131 253.941 62.2057C254.146 62.1224 254.379 62.2185 254.463 62.4234C254.547 62.6275 254.45 62.8612 254.245 62.946C253.268 63.3486 252.287 63.7783 251.327 64.2217C251.273 64.2473 251.216 64.2585 251.16 64.2585ZM292.314 64.1441C292.231 64.1441 292.148 64.1185 292.076 64.0649C291.227 63.435 290.341 62.8524 289.441 62.3345C289.249 62.2241 289.183 61.98 289.293 61.7879C289.403 61.595 289.648 61.5302 289.84 61.6407C290.766 62.1745 291.68 62.7731 292.553 63.4222C292.73 63.5542 292.767 63.8039 292.635 63.9816C292.558 64.0881 292.436 64.1441 292.314 64.1441ZM298.453 62.7371C298.435 62.7371 298.417 62.7363 298.398 62.7339C298.18 62.7043 298.026 62.5026 298.056 62.2833C298.198 61.2309 298.297 60.1704 298.348 59.1316C298.358 58.9115 298.554 58.7387 298.766 58.7515C298.987 58.7627 299.157 58.9507 299.147 59.1708C299.095 60.2329 298.995 61.3157 298.848 62.3914C298.822 62.5914 298.65 62.7371 298.453 62.7371ZM197.964 62.3321C197.879 62.3321 197.794 62.3049 197.721 62.2497C197.545 62.116 197.511 61.8647 197.646 61.6887C198.28 60.8579 198.971 60.02 199.698 59.1964C199.846 59.03 200.099 59.0156 200.263 59.162C200.429 59.3085 200.445 59.5614 200.299 59.7271C199.584 60.5362 198.905 61.3605 198.281 62.1761C198.203 62.2777 198.085 62.3321 197.964 62.3321ZM258.588 61.2941C258.42 61.2941 258.265 61.1885 258.208 61.0204C258.139 60.8107 258.252 60.5842 258.461 60.5146C259.489 60.1728 260.527 59.8575 261.544 59.5782C261.761 59.5206 261.977 59.6446 262.036 59.8583C262.095 60.0712 261.969 60.2921 261.756 60.3497C260.751 60.6258 259.728 60.9364 258.713 61.2741C258.673 61.2877 258.631 61.2941 258.588 61.2941ZM285.289 60.3729C285.243 60.3729 285.199 60.3657 285.153 60.3489C284.181 59.9976 283.165 59.6943 282.131 59.4454C281.916 59.3933 281.783 59.1772 281.836 58.9619C281.887 58.7475 282.094 58.6146 282.318 58.6666C283.38 58.9219 284.425 59.2349 285.425 59.5958C285.633 59.671 285.741 59.8999 285.666 60.108C285.606 60.2721 285.453 60.3729 285.289 60.3729ZM266.331 59.2941C266.142 59.2941 265.973 59.1588 265.938 58.9651C265.899 58.7475 266.043 58.5394 266.26 58.4994C267.332 58.3049 268.407 58.1464 269.453 58.028C269.667 57.9976 269.871 58.16 269.896 58.3801C269.921 58.5994 269.763 58.7979 269.544 58.8227C268.515 58.9395 267.458 59.0956 266.403 59.2869C266.379 59.2917 266.355 59.2941 266.331 59.2941ZM277.487 58.6914C277.475 58.6914 277.463 58.6914 277.451 58.6898C276.426 58.5986 275.362 58.5522 274.289 58.5514C274.069 58.5506 273.89 58.3713 273.89 58.1504C273.89 57.9295 274.069 57.751 274.29 57.751C275.386 57.7518 276.474 57.7999 277.522 57.8927C277.742 57.9127 277.904 58.1064 277.885 58.3265C277.867 58.5346 277.692 58.6914 277.487 58.6914ZM203.341 56.4153C203.234 56.4153 203.129 56.3737 203.05 56.2904C202.898 56.1304 202.905 55.8767 203.066 55.7246C203.814 55.0163 204.617 54.2904 205.455 53.5669C205.622 53.4237 205.874 53.4397 206.02 53.6085C206.164 53.7758 206.146 54.0287 205.979 54.1728C205.149 54.8883 204.355 55.6062 203.616 56.3057C203.538 56.3793 203.439 56.4153 203.341 56.4153ZM298.654 54.753C298.45 54.753 298.275 54.5969 298.257 54.3889C298.161 53.334 298.013 52.2808 297.817 51.2604C297.775 51.0435 297.917 50.833 298.133 50.7914C298.348 50.7522 298.56 50.8906 298.602 51.1083C298.804 52.1559 298.955 53.2348 299.053 54.3168C299.072 54.5369 298.911 54.7314 298.69 54.7514C298.678 54.753 298.666 54.753 298.654 54.753ZM209.434 51.2332C209.316 51.2332 209.198 51.1803 209.118 51.0787C208.982 50.9042 209.013 50.6529 209.189 50.5169C210.032 49.8598 210.885 49.2139 211.744 48.5745C211.92 48.4424 212.171 48.4784 212.304 48.6569C212.436 48.8338 212.399 49.0851 212.222 49.2171C211.368 49.8526 210.519 50.4953 209.679 51.1483C209.607 51.2051 209.521 51.2332 209.434 51.2332ZM296.931 46.9618C296.767 46.9618 296.614 46.861 296.554 46.6985C296.279 45.9446 295.969 45.1939 295.632 44.468C295.527 44.2447 295.42 44.0214 295.31 43.7997C295.211 43.602 295.292 43.3619 295.49 43.2627C295.687 43.1642 295.929 43.2443 296.026 43.4427C296.14 43.67 296.249 43.8989 296.358 44.1286C296.706 44.8761 297.024 45.6477 297.307 46.4232C297.384 46.6313 297.276 46.8602 297.068 46.9362C297.023 46.9538 296.976 46.9618 296.931 46.9618ZM215.862 46.4648C215.738 46.4648 215.615 46.4072 215.538 46.2983C215.408 46.119 215.449 45.8685 215.628 45.7397L218.228 43.8693C218.406 43.7413 218.657 43.7813 218.786 43.9622C218.914 44.1422 218.873 44.3919 218.693 44.5208L216.096 46.3896C216.026 46.4408 215.944 46.4648 215.862 46.4648ZM222.394 41.8405C222.267 41.8405 222.141 41.7789 222.064 41.6652C221.94 41.4819 221.986 41.233 222.169 41.109C223.056 40.5071 223.948 39.9149 224.851 39.3394C225.035 39.221 225.285 39.2746 225.403 39.4611C225.522 39.6476 225.467 39.8949 225.281 40.0133C224.386 40.5848 223.499 41.1722 222.62 41.7709C222.55 41.8181 222.472 41.8405 222.394 41.8405ZM293.094 39.9805C292.978 39.9805 292.863 39.9301 292.784 39.8341C292.1 39.0001 291.359 38.259 290.582 37.6323C290.409 37.4931 290.383 37.2418 290.522 37.0697C290.662 36.8976 290.913 36.8712 291.085 37.0097C291.904 37.6716 292.684 38.4503 293.403 39.3266C293.543 39.4971 293.517 39.75 293.347 39.8901C293.274 39.9501 293.184 39.9805 293.094 39.9805ZM229.189 37.6163C229.048 37.6163 228.911 37.5419 228.838 37.4091C228.731 37.2154 228.802 36.9721 228.995 36.8656C229.961 36.3334 230.923 35.8356 231.858 35.3858C232.058 35.2906 232.297 35.3738 232.392 35.5731C232.488 35.7724 232.405 36.0117 232.205 36.1069C231.284 36.5495 230.334 37.0409 229.382 37.5659C229.321 37.6003 229.255 37.6163 229.189 37.6163ZM286.695 35.3162C286.644 35.3162 286.591 35.3066 286.541 35.285C285.659 34.9152 284.686 34.5711 283.563 34.2325C283.351 34.1693 283.231 33.946 283.295 33.7347C283.359 33.5227 283.579 33.4026 283.794 33.4666C284.943 33.8132 285.943 34.1661 286.85 34.5471C287.054 34.6327 287.15 34.8672 287.064 35.0705C287 35.2241 286.852 35.3162 286.695 35.3162ZM236.45 34.2678C236.287 34.2678 236.134 34.1685 236.074 34.0077C235.997 33.8004 236.102 33.5699 236.31 33.4922C237.304 33.1217 238.331 32.7727 239.362 32.455C239.576 32.3902 239.798 32.5086 239.862 32.7199C239.928 32.9312 239.809 33.1545 239.598 33.2201C238.581 33.5331 237.569 33.8772 236.589 34.2422C236.543 34.2598 236.496 34.2678 236.45 34.2678ZM279.035 33.0313C279.006 33.0313 278.974 33.0281 278.944 33.0208C277.91 32.7775 276.871 32.5503 275.827 32.339C275.611 32.2949 275.471 32.0837 275.515 31.8676C275.559 31.6507 275.767 31.5154 275.987 31.5546C277.038 31.7683 278.084 31.9972 279.126 32.2421C279.342 32.2925 279.475 32.5086 279.424 32.7231C279.382 32.9072 279.218 33.0313 279.035 33.0313ZM244.123 32.0204C243.939 32.0204 243.773 31.8932 243.733 31.7059C243.685 31.4898 243.822 31.2761 244.039 31.2297C245.08 31.0016 246.145 30.7975 247.204 30.6239C247.418 30.5838 247.627 30.7351 247.663 30.9536C247.699 31.1713 247.551 31.3778 247.333 31.413C246.288 31.5851 245.237 31.7859 244.21 32.0108C244.181 32.0172 244.152 32.0204 244.123 32.0204ZM271.18 31.5098C271.16 31.5098 271.139 31.5082 271.12 31.5058C270.065 31.3466 269.001 31.2049 267.96 31.0841C267.741 31.0584 267.583 30.86 267.609 30.6407C267.634 30.4214 267.839 30.2605 268.053 30.2893C269.104 30.4102 270.176 30.5534 271.24 30.7143C271.458 30.7479 271.609 30.9512 271.576 31.1697C271.545 31.3674 271.374 31.5098 271.18 31.5098ZM252.029 30.8135C251.824 30.8135 251.649 30.6575 251.631 30.4494C251.612 30.2293 251.774 30.0348 251.994 30.0148C253.046 29.9196 254.127 29.8467 255.205 29.7987C255.444 29.7763 255.613 29.9604 255.622 30.1805C255.633 30.4014 255.461 30.5886 255.241 30.5982C254.175 30.6463 253.106 30.7175 252.065 30.8119C252.053 30.8135 252.041 30.8135 252.029 30.8135ZM263.223 30.6663C263.215 30.6663 263.207 30.6663 263.2 30.6655C262.137 30.603 261.066 30.5606 260.016 30.5406C259.795 30.5366 259.62 30.3541 259.624 30.1325C259.629 29.9116 259.786 29.7443 260.032 29.7403C261.092 29.7611 262.174 29.8035 263.247 29.8667C263.467 29.8795 263.636 30.0692 263.623 30.2893C263.61 30.5022 263.434 30.6663 263.223 30.6663Z" fill="#50448C"/>
<path d="M199.761 245H96.4525C92.6366 245 89.5433 241.907 89.5433 238.091V35.1543C89.5433 31.3383 92.6366 28.2451 96.4525 28.2451H199.761C203.577 28.2451 206.67 31.3383 206.67 35.1543V238.09C206.67 241.907 203.577 245 199.761 245Z" fill="url(#paint1_linear_301_1205)"/>
<path d="M96.4534 240.197C95.2913 240.197 94.3453 239.252 94.3453 238.09V35.1551C94.3453 33.993 95.2913 33.0478 96.4534 33.0478H199.761C200.923 33.0478 201.868 33.993 201.868 35.1551V238.091C201.868 239.253 200.923 240.198 199.761 240.198L96.4534 240.197Z" fill="url(#paint2_linear_301_1205)"/>
<path d="M68.4739 202.082C68.4147 202.082 68.3539 202.068 68.2962 202.04C67.3398 201.566 66.3842 201.048 65.4583 200.499C65.2678 200.387 65.2054 200.142 65.3174 199.951C65.4303 199.762 65.676 199.699 65.8656 199.81C66.7756 200.349 67.7128 200.858 68.6524 201.323C68.8501 201.421 68.9317 201.662 68.8333 201.859C68.7636 202 68.6212 202.082 68.4739 202.082ZM61.6679 197.892C61.5847 197.892 61.5006 197.866 61.4286 197.812C60.5706 197.171 59.7247 196.491 58.9124 195.79C58.7451 195.645 58.7267 195.393 58.8707 195.225C59.0148 195.058 59.2677 195.04 59.435 195.184C60.2329 195.872 61.0645 196.541 61.9072 197.171C62.0841 197.303 62.1209 197.554 61.988 197.731C61.9104 197.837 61.7895 197.892 61.6679 197.892ZM55.7102 192.565C55.6038 192.565 55.4974 192.523 55.4181 192.439C54.6842 191.656 53.9687 190.839 53.2924 190.01C53.1532 189.837 53.1788 189.586 53.3501 189.446C53.5213 189.307 53.7734 189.333 53.9135 189.503C54.5786 190.319 55.2813 191.122 56.0024 191.891C56.1536 192.052 56.1456 192.306 55.9848 192.456C55.9071 192.529 55.8087 192.565 55.7102 192.565ZM50.7698 186.282C50.6393 186.282 50.5113 186.218 50.4345 186.1C49.8454 185.198 49.2836 184.268 48.7658 183.336C48.6585 183.144 48.7282 182.899 48.921 182.792C49.1155 182.683 49.358 182.755 49.4653 182.947C49.9743 183.862 50.5257 184.775 51.1043 185.662C51.2252 185.848 51.1732 186.095 50.9883 186.216C50.9203 186.261 50.8442 186.282 50.7698 186.282ZM47.0138 179.227C46.8578 179.227 46.7097 179.135 46.6449 178.981C46.4384 178.49 46.2407 177.995 46.0511 177.495C45.859 176.987 45.6757 176.475 45.5012 175.961C45.4308 175.752 45.5428 175.524 45.7517 175.453C45.9614 175.385 46.1887 175.495 46.2591 175.704C46.4304 176.209 46.6097 176.711 46.7994 177.211C46.985 177.701 47.1795 178.188 47.382 178.67C47.4676 178.874 47.3716 179.108 47.1683 179.194C47.1179 179.216 47.0659 179.227 47.0138 179.227ZM44.5616 171.619C44.3808 171.619 44.2167 171.496 44.1727 171.311C43.9326 170.3 43.7101 169.239 43.5132 168.158C43.4732 167.941 43.6173 167.732 43.8349 167.692C44.0526 167.66 44.2607 167.797 44.3007 168.014C44.4952 169.082 44.7145 170.129 44.9514 171.127C45.0026 171.342 44.8698 171.557 44.6545 171.608C44.6233 171.616 44.5921 171.619 44.5616 171.619ZM43.2051 163.736C43.005 163.736 42.8321 163.585 42.8081 163.382C42.6889 162.362 42.5824 161.286 42.492 160.183C42.4736 159.963 42.6376 159.769 42.8577 159.751C43.0842 159.735 43.2715 159.897 43.2899 160.117C43.3795 161.21 43.4852 162.278 43.6028 163.29C43.6285 163.509 43.4708 163.707 43.2523 163.734C43.2363 163.735 43.2211 163.736 43.2051 163.736ZM42.5912 155.758C42.3783 155.758 42.2015 155.591 42.1919 155.375C42.143 154.306 42.1054 153.237 42.0734 152.169C42.067 151.949 42.2407 151.764 42.4616 151.757C42.6721 151.755 42.8665 151.923 42.8737 152.145C42.905 153.208 42.9434 154.272 42.9914 155.338C43.0018 155.559 42.8305 155.747 42.6096 155.755C42.604 155.758 42.5976 155.758 42.5912 155.758ZM42.3743 147.758C42.155 147.758 41.9766 147.581 41.9742 147.362C41.9686 146.827 41.9662 146.292 41.9662 145.756C41.9662 145.221 41.9686 144.686 41.975 144.151C41.9766 143.931 42.1607 143.714 42.3791 143.756C42.6 143.758 42.7777 143.939 42.7753 144.161C42.7697 144.692 42.7665 145.224 42.7665 145.756C42.7665 146.288 42.7689 146.821 42.7745 147.354C42.7769 147.574 42.5992 147.755 42.3783 147.758C42.3783 147.758 42.3759 147.758 42.3743 147.758ZM42.5296 139.757C42.5224 139.757 42.5144 139.757 42.5072 139.756C42.2863 139.743 42.1174 139.555 42.1302 139.335C42.1919 138.233 42.2711 137.153 42.3671 136.127C42.3879 135.907 42.5856 135.749 42.8025 135.766C43.0226 135.786 43.1843 135.982 43.1643 136.202C43.069 137.219 42.9898 138.288 42.929 139.379C42.917 139.592 42.7401 139.757 42.5296 139.757ZM43.3755 131.802C43.3539 131.802 43.3323 131.801 43.3099 131.797C43.0922 131.761 42.9442 131.554 42.9802 131.337C43.1579 130.262 43.3635 129.197 43.5924 128.173C43.6405 127.958 43.8557 127.825 44.0702 127.87C44.2863 127.918 44.4216 128.132 44.3736 128.348C44.1487 129.357 43.9454 130.407 43.7701 131.467C43.7373 131.663 43.5676 131.802 43.3755 131.802ZM45.2491 124.03C45.2075 124.03 45.1659 124.023 45.1235 124.01C44.9138 123.94 44.7993 123.713 44.869 123.504C45.2067 122.481 45.5853 121.462 45.995 120.475C46.0799 120.271 46.3136 120.174 46.5184 120.259C46.7225 120.344 46.8194 120.578 46.7345 120.783C46.332 121.751 45.9606 122.751 45.6293 123.755C45.5733 123.923 45.4172 124.03 45.2491 124.03ZM87.1504 122.103C87.1392 122.103 87.1288 122.102 87.1176 122.102C86.0532 122.015 84.9703 121.833 83.8979 121.56C83.6834 121.505 83.5545 121.288 83.609 121.073C83.6634 120.859 83.8803 120.727 84.0956 120.784C85.124 121.046 86.1628 121.221 87.1824 121.304C87.4025 121.322 87.5666 121.516 87.549 121.736C87.5314 121.945 87.3561 122.103 87.1504 122.103ZM91.9236 121.812C91.7443 121.812 91.5818 121.691 91.5362 121.509C91.4826 121.295 91.6122 121.077 91.8267 121.023C92.4094 120.877 92.8808 120.675 93.2705 120.406C93.6267 120.159 93.9356 119.841 94.1877 119.46C94.3094 119.276 94.5575 119.224 94.7423 119.347C94.9264 119.469 94.9768 119.717 94.8552 119.901C94.5463 120.367 94.1669 120.758 93.7259 121.063C93.2561 121.388 92.6983 121.629 92.022 121.799C91.9892 121.808 91.9564 121.812 91.9236 121.812ZM79.5129 119.88C79.4528 119.88 79.3912 119.866 79.3336 119.837C78.3828 119.36 77.4392 118.807 76.5292 118.195C76.3451 118.072 76.2971 117.823 76.4204 117.64C76.5436 117.456 76.7925 117.408 76.9758 117.531C77.8586 118.124 78.7734 118.659 79.6937 119.122C79.8914 119.221 79.9707 119.461 79.8714 119.659C79.8002 119.8 79.6593 119.88 79.5129 119.88ZM48.464 116.714C48.3968 116.714 48.3296 116.697 48.2672 116.662C48.0751 116.554 48.0071 116.31 48.1159 116.117C48.6513 115.168 49.2276 114.245 49.827 113.371C49.9519 113.187 50.2016 113.142 50.3832 113.267C50.5657 113.392 50.6121 113.641 50.4865 113.824C49.8998 114.678 49.3372 115.583 48.813 116.511C48.7394 116.641 48.6041 116.714 48.464 116.714ZM95.3322 115.448C95.1345 115.448 94.9624 115.301 94.936 115.099C94.8016 114.079 94.5343 113.075 94.1413 112.117C94.0573 111.912 94.1549 111.678 94.3598 111.595C94.5631 111.511 94.7976 111.608 94.8816 111.812C95.301 112.834 95.5859 113.905 95.73 114.995C95.7588 115.214 95.6043 115.415 95.3858 115.444C95.3674 115.446 95.3498 115.448 95.3322 115.448ZM73.0206 115.248C72.9205 115.248 72.8205 115.211 72.7429 115.136C72.4948 114.898 72.2515 114.655 72.013 114.409C71.5096 113.889 71.011 113.337 70.5292 112.77C70.3859 112.602 70.4067 112.35 70.5756 112.206C70.7452 112.063 70.9965 112.085 71.1398 112.253C71.6096 112.806 72.097 113.344 72.5884 113.853C72.8197 114.092 73.0566 114.327 73.2975 114.559C73.4568 114.712 73.4616 114.966 73.3087 115.125C73.2303 115.207 73.1254 115.248 73.0206 115.248ZM53.1428 110.242C53.0451 110.242 52.9483 110.207 52.8715 110.136C52.709 109.985 52.6994 109.732 52.8491 109.57C53.591 108.767 54.3721 108.006 55.1724 107.308C55.3373 107.162 55.5918 107.179 55.7366 107.347C55.8823 107.513 55.8647 107.766 55.6982 107.911C54.9203 108.59 54.1592 109.331 53.4365 110.113C53.3581 110.199 53.25 110.242 53.1428 110.242ZM67.9625 109.068C67.8328 109.068 67.7056 109.005 67.6288 108.889C67.0613 108.032 66.4923 107.107 65.9361 106.143C65.8256 105.952 65.8912 105.707 66.0833 105.596C66.2754 105.486 66.5195 105.552 66.6299 105.744C67.1774 106.694 67.7384 107.604 68.297 108.447C68.4187 108.631 68.3683 108.88 68.1842 109.002C68.1146 109.047 68.0385 109.068 67.9625 109.068ZM91.9444 108.337C91.8347 108.337 91.7259 108.293 91.6467 108.205C90.9744 107.456 90.2013 106.744 89.3489 106.088C89.1736 105.952 89.1416 105.702 89.2761 105.527C89.4105 105.351 89.661 105.318 89.8371 105.454C90.7271 106.139 91.5362 106.885 92.2413 107.67C92.3894 107.834 92.375 108.087 92.2109 108.235C92.1357 108.304 92.0396 108.337 91.9444 108.337ZM59.3077 105.183C59.1717 105.183 59.0388 105.114 58.9644 104.988C58.8507 104.799 58.9116 104.553 59.1012 104.439C59.5142 104.191 59.9344 103.954 60.3626 103.728C60.8876 103.451 61.4334 103.187 61.9864 102.943C62.1905 102.854 62.4258 102.946 62.5146 103.147C62.6035 103.349 62.5122 103.586 62.3106 103.676C61.7751 103.912 61.2453 104.169 60.7363 104.437C60.3209 104.655 59.9144 104.885 59.5142 105.125C59.4486 105.164 59.3774 105.183 59.3077 105.183ZM85.4865 103.7C85.4305 103.7 85.3729 103.688 85.3185 103.662C84.3797 103.226 83.3921 102.842 82.3836 102.521C82.1732 102.454 82.0563 102.229 82.1235 102.019C82.19 101.808 82.4141 101.691 82.6261 101.759C83.6666 102.089 84.6862 102.485 85.6562 102.937C85.8571 103.03 85.9435 103.267 85.8499 103.468C85.7818 103.614 85.637 103.7 85.4865 103.7ZM66.6892 102.169C66.5091 102.169 66.3458 102.046 66.301 101.864C66.2482 101.649 66.3794 101.432 66.5939 101.38C67.6304 101.126 68.7028 100.924 69.78 100.779C69.9985 100.749 70.2002 100.904 70.2298 101.122C70.2594 101.342 70.105 101.543 69.8865 101.572C68.8373 101.712 67.7928 101.909 66.7844 102.157C66.7524 102.165 66.7204 102.169 66.6892 102.169ZM64.0361 102.1C63.888 102.1 63.7464 102.017 63.6767 101.876C63.2045 100.915 62.7483 99.9452 62.3026 98.9728C62.2105 98.7719 62.2986 98.5342 62.5002 98.4422C62.7011 98.3485 62.938 98.439 63.0309 98.639C63.4734 99.605 63.9264 100.569 64.3954 101.523C64.4931 101.721 64.4114 101.96 64.2129 102.058C64.1553 102.086 64.0953 102.1 64.0361 102.1ZM77.8162 101.525C77.8009 101.525 77.7857 101.524 77.7705 101.523L77.6369 101.507C76.6325 101.394 75.616 101.327 74.6164 101.309C74.3955 101.305 74.2195 101.122 74.2235 100.902C74.2275 100.681 74.3883 100.485 74.6308 100.509C75.6553 100.528 76.6973 100.597 77.7273 100.713L77.861 100.729C78.0803 100.754 78.2379 100.952 78.2131 101.171C78.1899 101.375 78.017 101.525 77.8162 101.525ZM60.7187 94.8167C60.5634 94.8167 60.4162 94.7262 60.3514 94.5742C59.9296 93.5914 59.5166 92.6022 59.1212 91.6065C59.0396 91.4009 59.1405 91.1688 59.3453 91.0871C59.5494 91.0063 59.7831 91.1055 59.8648 91.3112C60.2569 92.2996 60.6675 93.2824 61.0861 94.2588C61.1733 94.4621 61.0796 94.6974 60.8764 94.7847C60.8251 94.8055 60.7715 94.8167 60.7187 94.8167ZM57.8615 87.3432C57.6919 87.3432 57.535 87.2351 57.4806 87.0647C57.1412 86.005 56.8427 84.9614 56.593 83.9634C56.5394 83.7489 56.6698 83.532 56.8835 83.4784C57.1004 83.4248 57.3157 83.5544 57.3685 83.7689C57.6142 84.7509 57.9079 85.7777 58.2425 86.8206C58.3097 87.0311 58.1937 87.2568 57.9832 87.324C57.9432 87.3368 57.9015 87.3432 57.8615 87.3432ZM56.0976 79.5496C55.8975 79.5496 55.7246 79.4007 55.7006 79.1966C55.571 78.105 55.4965 77.0173 55.4797 75.9633C55.4765 75.7424 55.6526 75.5607 55.8735 75.5567C56.0984 75.5207 56.2761 75.7296 56.2801 75.9505C56.2961 76.9765 56.3681 78.0369 56.4954 79.1014C56.5218 79.3207 56.3649 79.52 56.1456 79.5464C56.1296 79.5488 56.1136 79.5496 56.0976 79.5496Z" fill="#50448C"/>
<mask id="mask0_301_1205" style="mask-type:luminance" maskUnits="userSpaceOnUse" x="45" y="12" width="157" height="241">
<path d="M56.7002 236.252L45.7012 15.6279C88.2924 3.72696 199.76 33.047 199.76 33.047C200.922 33.047 201.867 33.9922 201.867 35.1543V238.09C201.867 239.252 200.922 240.197 199.76 240.197C199.761 240.197 117.521 269.612 56.7002 236.252Z" fill="white"/>
</mask>
<g mask="url(#mask0_301_1205)">
<path d="M184.328 155.272L169.508 193.254C167.335 198.822 170.555 205.031 176.358 206.464C181.111 207.637 186.009 205.159 187.879 200.634L204.869 159.531C204.869 159.531 189.709 148.923 184.328 155.272Z" fill="url(#paint3_linear_301_1205)"/>
<path d="M113.007 59.4122L144.355 88.7523C162.17 105.425 183.963 117.25 207.652 123.098L213.506 124.543C215.834 136.907 212.683 149.672 204.869 159.533L199.015 158.087C175.326 152.24 150.534 152.566 127.007 159.034L85.6056 170.416L113.007 59.4122Z" fill="#FFB573"/>
<path d="M88.664 112.287C81.0977 142.939 79.7291 168.964 85.6075 170.415C91.4851 171.866 102.384 148.193 109.95 117.541C117.517 86.8881 118.885 60.863 113.008 59.412C107.129 57.961 96.2303 81.6332 88.664 112.287Z" fill="url(#paint4_linear_301_1205)"/>
<mask id="mask1_301_1205" style="mask-type:luminance" maskUnits="userSpaceOnUse" x="81" y="59" width="36" height="112">
<path d="M109.951 117.526C117.516 86.8722 118.883 60.8462 113.005 59.3955C107.126 57.9448 96.2282 81.6187 88.6633 112.273C81.0985 142.927 79.7314 168.953 85.6099 170.403C91.4884 171.854 102.386 148.18 109.951 117.526Z" fill="white"/>
</mask>
<g mask="url(#mask1_301_1205)">
<path d="M101.473 128.465L107.344 129.915C114.121 131.587 120.969 127.45 122.642 120.674C124.314 113.898 120.178 107.049 113.401 105.377L107.53 103.927C100.754 102.254 93.9051 106.391 92.2324 113.168C90.5597 119.943 94.6966 126.793 101.473 128.465Z" fill="#FFB573"/>
</g>
</g>
<path d="M157.019 62.5874C156.807 62.5874 156.63 62.421 156.62 62.2073C156.567 61.1493 156.49 60.08 156.393 59.0308C156.373 58.8107 156.534 58.6154 156.754 58.5954C156.97 58.5738 157.169 58.7363 157.19 58.9572C157.288 60.0176 157.366 61.098 157.419 62.1681C157.431 62.389 157.26 62.5762 157.039 62.5874C157.033 62.5874 157.026 62.5874 157.019 62.5874ZM156.192 54.6298C155.999 54.6298 155.828 54.4897 155.797 54.2928C155.63 53.2356 155.438 52.1824 155.227 51.1611C155.182 50.9451 155.323 50.733 155.539 50.6881C155.744 50.6465 155.967 50.7826 156.011 50.9995C156.224 52.0327 156.418 53.0979 156.589 54.1672C156.623 54.3857 156.475 54.5905 156.256 54.625C156.234 54.6282 156.212 54.6298 156.192 54.6298ZM58.2113 47.4612C58.1808 47.4612 58.1504 47.458 58.12 47.4508C57.9047 47.4004 57.7703 47.1859 57.8207 46.9706C57.8751 46.7361 57.9327 46.5024 57.992 46.2695C58.0464 46.055 58.2633 45.9246 58.4786 45.9806C58.6931 46.035 58.8219 46.2527 58.7675 46.4672C58.7099 46.6945 58.6538 46.9226 58.6002 47.1515C58.5578 47.3364 58.3929 47.4612 58.2113 47.4612ZM154.489 46.8121C154.314 46.8121 154.153 46.6961 154.104 46.52C153.817 45.4964 153.503 44.4728 153.17 43.4788C153.099 43.2691 153.212 43.0426 153.422 42.9722C153.631 42.9025 153.858 43.0146 153.928 43.2243C154.265 44.2311 154.584 45.2675 154.874 46.3039C154.934 46.5168 154.81 46.7377 154.597 46.7969C154.561 46.8073 154.525 46.8121 154.489 46.8121ZM59.8455 42.199C59.7967 42.199 59.7479 42.1902 59.7007 42.1718C59.495 42.0918 59.3925 41.8597 59.4726 41.654C59.8583 40.6608 60.2913 39.6636 60.7595 38.6896C60.8555 38.4903 61.0941 38.4063 61.2933 38.5023C61.4926 38.5984 61.5766 38.8368 61.4806 39.0361C61.022 39.9909 60.597 40.9689 60.2185 41.9429C60.1569 42.1014 60.0056 42.199 59.8455 42.199ZM151.843 39.2618C151.687 39.2618 151.54 39.1706 151.475 39.0193C151.057 38.0413 150.608 37.0705 150.142 36.1349C150.043 35.9373 150.124 35.6972 150.321 35.5987C150.521 35.4995 150.76 35.5811 150.857 35.778C151.331 36.728 151.787 37.7124 152.211 38.7048C152.297 38.9081 152.204 39.1434 152 39.2306C151.948 39.2514 151.896 39.2618 151.843 39.2618ZM63.4398 35.0617C63.367 35.0617 63.2934 35.0425 63.2277 35.0009C63.0404 34.8832 62.9836 34.6359 63.1013 34.4494C63.6679 33.5459 64.2786 32.6463 64.9148 31.7771C65.0453 31.5987 65.2958 31.5603 65.4743 31.6907C65.6527 31.8212 65.6911 32.0717 65.5607 32.2501C64.9356 33.1041 64.3362 33.9869 63.78 34.8752C63.7031 34.9961 63.5735 35.0617 63.4398 35.0617ZM148.156 32.1637C148.022 32.1637 147.891 32.0973 147.816 31.9756C147.253 31.0745 146.657 30.1893 146.043 29.3449C145.914 29.1657 145.954 28.9152 146.132 28.7855C146.312 28.655 146.561 28.6959 146.692 28.8743C147.315 29.7339 147.923 30.6351 148.495 31.5522C148.612 31.7395 148.555 31.9868 148.368 32.1037C148.301 32.1445 148.228 32.1637 148.156 32.1637ZM68.2714 28.6943C68.1754 28.6943 68.0793 28.6607 68.0033 28.591C67.8392 28.4422 67.8264 28.1901 67.9753 28.026C68.6916 27.2353 69.4471 26.4557 70.2226 25.7082C70.3819 25.5554 70.6356 25.5602 70.7885 25.7186C70.9421 25.8779 70.9373 26.1308 70.778 26.2845C70.0161 27.0192 69.2726 27.7859 68.5683 28.5638C68.4891 28.6503 68.3811 28.6943 68.2714 28.6943ZM143.336 25.7891C143.228 25.7891 143.12 25.745 143.041 25.6594C142.324 24.8759 141.573 24.1204 140.809 23.4121C140.647 23.2616 140.638 23.0087 140.788 22.8471C140.937 22.6846 141.191 22.6742 141.354 22.8254C142.133 23.5481 142.899 24.3205 143.631 25.1192C143.78 25.2825 143.769 25.5354 143.606 25.6842C143.529 25.7539 143.432 25.7891 143.336 25.7891ZM74.1186 23.2416C74.0002 23.2416 73.8833 23.1896 73.8041 23.0896C73.6672 22.9159 73.6968 22.6638 73.8705 22.5277C74.7109 21.8658 75.5864 21.2232 76.4716 20.6157C76.6549 20.4917 76.903 20.5373 77.0278 20.7198C77.1527 20.9023 77.1063 21.1512 76.9238 21.276C76.053 21.8731 75.1919 22.5053 74.3659 23.156C74.2923 23.2136 74.2051 23.2416 74.1186 23.2416ZM137.367 20.4901C137.287 20.4901 137.205 20.4661 137.135 20.4156C136.277 19.8042 135.384 19.2264 134.48 18.6973C134.29 18.5853 134.226 18.3404 134.337 18.1499C134.449 17.9586 134.693 17.8954 134.885 18.0067C135.809 18.5477 136.723 19.1399 137.6 19.7642C137.78 19.8922 137.822 20.1419 137.694 20.322C137.615 20.4317 137.493 20.4901 137.367 20.4901ZM80.7894 18.8358C80.6477 18.8358 80.5101 18.7606 80.4372 18.6277C80.3316 18.434 80.4028 18.1907 80.5965 18.0843C80.9286 17.9026 81.2616 17.7257 81.5977 17.5529C82.218 17.2327 82.8454 16.9254 83.4785 16.6317C83.6802 16.5389 83.9171 16.6261 84.0099 16.8262C84.1027 17.0263 84.0155 17.2639 83.8154 17.3576C83.1928 17.6465 82.5757 17.949 81.9643 18.2636C81.6345 18.4332 81.3072 18.6085 80.9807 18.7862C80.9198 18.8198 80.8542 18.8358 80.7894 18.8358ZM130.393 16.5997C130.34 16.5997 130.287 16.5893 130.236 16.5677C129.287 16.1627 128.291 15.7809 127.275 15.4328C127.066 15.3608 126.955 15.1335 127.026 14.9246C127.098 14.7157 127.325 14.6061 127.534 14.6757C128.568 15.0302 129.583 15.4192 130.551 15.8314C130.754 15.9178 130.848 16.1531 130.762 16.3564C130.696 16.5084 130.548 16.5997 130.393 16.5997ZM88.0892 15.5793C87.9243 15.5793 87.7707 15.4776 87.7122 15.3135C87.6386 15.1055 87.7466 14.8766 87.9547 14.8021C88.9575 14.4452 89.99 14.1122 91.024 13.8121C91.2369 13.7497 91.4586 13.873 91.5194 14.085C91.581 14.2971 91.4586 14.5196 91.2465 14.5804C90.2285 14.8758 89.2112 15.2039 88.2236 15.556C88.1796 15.5713 88.134 15.5793 88.0892 15.5793ZM122.795 14.1171C122.763 14.1171 122.731 14.1139 122.7 14.1058C121.698 13.8633 120.652 13.6393 119.59 13.4392C119.373 13.3984 119.23 13.1887 119.272 12.9718C119.312 12.7549 119.519 12.6124 119.739 12.6532C120.813 12.8557 121.873 13.083 122.889 13.3287C123.104 13.3808 123.236 13.5968 123.184 13.8121C123.139 13.9938 122.976 14.1171 122.795 14.1171ZM95.7996 13.4584C95.6123 13.4584 95.4458 13.3271 95.4074 13.1367C95.3642 12.9198 95.505 12.7093 95.7219 12.6661C96.7664 12.458 97.8348 12.2755 98.8984 12.1234C99.1169 12.0898 99.3202 12.2443 99.3514 12.4628C99.3826 12.6813 99.2306 12.8845 99.0121 12.9158C97.9621 13.0654 96.908 13.2455 95.8788 13.4504C95.8516 13.456 95.8252 13.4584 95.7996 13.4584ZM114.918 12.7293C114.903 12.7293 114.887 12.7285 114.872 12.7269C113.82 12.6068 112.753 12.5116 111.703 12.4444C111.483 12.43 111.316 12.2403 111.329 12.0194C111.344 11.7985 111.528 11.6368 111.754 11.6456C112.817 11.7137 113.896 11.8105 114.962 11.9314C115.181 11.9562 115.339 12.1546 115.314 12.3739C115.292 12.578 115.119 12.7293 114.918 12.7293ZM103.73 12.4324C103.52 12.4324 103.344 12.2691 103.331 12.057C103.317 11.8369 103.484 11.6464 103.705 11.6328C104.769 11.5664 105.852 11.5272 106.925 11.516C107.132 11.5264 107.327 11.6904 107.329 11.9121C107.332 12.133 107.155 12.3139 106.933 12.3163C105.874 12.3283 104.805 12.3667 103.754 12.4324C103.747 12.4324 103.739 12.4324 103.73 12.4324Z" fill="#50448C"/>
<path d="M198.642 92.544C209.711 92.544 218.685 83.5706 218.685 72.5013C218.685 61.4321 209.711 52.4587 198.642 52.4587C187.573 52.4587 178.599 61.4321 178.599 72.5013C178.599 83.5706 187.573 92.544 198.642 92.544Z" fill="url(#paint5_linear_301_1205)"/>
<path d="M198.642 88.7863C207.636 88.7863 214.927 81.4952 214.927 72.5012C214.927 63.5072 207.636 56.2161 198.642 56.2161C189.648 56.2161 182.357 63.5072 182.357 72.5012C182.357 81.4952 189.648 88.7863 198.642 88.7863Z" fill="url(#paint6_linear_301_1205)"/>
<path d="M198.642 63.833L201.458 69.5401L207.757 70.4549L203.199 74.8975L204.275 81.1697L198.642 78.2085L193.008 81.1697L194.085 74.8975L189.527 70.4549L195.826 69.5401L198.642 63.833Z" fill="url(#paint7_linear_301_1205)"/>
<path d="M155.842 74.2192C161.578 74.2192 166.229 69.569 166.229 63.8326C166.229 58.0962 161.578 53.4459 155.842 53.4459C150.105 53.4459 145.455 58.0962 145.455 63.8326C145.455 69.569 150.105 74.2192 155.842 74.2192Z" fill="url(#paint8_linear_301_1205)"/>
<path d="M155.842 65.7317C155.047 65.7317 154.404 65.0874 154.404 64.2935V58.852C154.404 58.0573 155.048 57.4138 155.842 57.4138C156.637 57.4138 157.28 58.0581 157.28 58.852V64.2935C157.28 65.0882 156.636 65.7317 155.842 65.7317Z" fill="url(#paint9_linear_301_1205)"/>
<path d="M157.28 68.8122C157.28 69.6069 156.636 70.2504 155.842 70.2504C155.047 70.2504 154.404 69.6061 154.404 68.8122C154.404 68.0182 155.048 67.374 155.842 67.374C156.636 67.374 157.28 68.0174 157.28 68.8122Z" fill="url(#paint10_linear_301_1205)"/>
<path d="M241.864 196.144C247.829 196.144 252.664 191.309 252.664 185.344C252.664 179.379 247.829 174.543 241.864 174.543C235.899 174.543 231.063 179.379 231.063 185.344C231.063 191.309 235.899 196.144 241.864 196.144Z" fill="#263238"/>
<path d="M242.896 191.32V193.146H241.266V191.368C239.651 191.271 238.103 190.766 237.206 190.065L238.103 188.076C238.918 188.679 240.092 189.119 241.266 189.233V186.51C239.456 186.07 237.434 185.467 237.434 183.135C237.434 181.408 238.689 179.924 241.266 179.631V177.82H242.896V179.598C244.118 179.696 245.309 180.021 246.205 180.592L245.391 182.598C244.56 182.125 243.711 181.848 242.897 181.749V184.522C244.706 184.945 246.695 185.548 246.695 187.847C246.694 189.543 245.455 191.011 242.896 191.32ZM241.266 184.114V181.799C240.402 181.994 240.059 182.467 240.059 183.006C240.059 183.576 240.548 183.886 241.266 184.114ZM244.07 188.043C244.07 187.472 243.597 187.163 242.896 186.919V189.168C243.711 188.989 244.07 188.566 244.07 188.043Z" fill="white"/>
<path d="M272.242 107.497C280.583 107.497 287.345 100.735 287.345 92.3942C287.345 84.053 280.583 77.2912 272.242 77.2912C263.901 77.2912 257.139 84.053 257.139 92.3942C257.139 100.735 263.901 107.497 272.242 107.497Z" fill="#263238"/>
<path d="M277.669 95.2572L280.017 97.4461C278.512 99.2933 276.233 100.296 273.451 100.296C269.416 100.296 266.223 98.0159 265.175 94.5737H262.598V92.6585H264.832C264.81 92.4536 264.81 92.248 264.81 92.0431C264.81 91.8382 264.81 91.6325 264.832 91.4268H262.598V89.5116H265.175C266.223 86.0686 269.416 83.7885 273.451 83.7885C276.233 83.7885 278.512 84.7913 280.017 86.616L277.669 88.8049C276.575 87.5732 275.228 86.9354 273.633 86.9354C271.604 86.9354 269.962 87.9158 269.118 89.5116H274.887V91.4268H268.548C268.526 91.6325 268.526 91.8374 268.526 92.0431C268.526 92.248 268.526 92.4536 268.548 92.6585H274.887V94.5737H269.118C269.962 96.1696 271.603 97.15 273.633 97.15C275.228 97.15 276.575 96.5113 277.669 95.2572Z" fill="white"/>
<path d="M41.5968 166.237C49.9379 166.237 56.6998 159.475 56.6998 151.134C56.6998 142.793 49.9379 136.031 41.5968 136.031C33.2556 136.031 26.4937 142.793 26.4937 151.134C26.4937 159.475 33.2556 166.237 41.5968 166.237Z" fill="#263238"/>
<path d="M31.8851 147.021C31.8851 144.331 33.5266 142.62 35.8523 142.62C38.1773 142.62 39.7964 144.307 39.7964 147.021C39.7964 149.734 38.1781 151.421 35.8523 151.421C33.5266 151.421 31.8851 149.711 31.8851 147.021ZM37.5162 147.021C37.5162 145.31 36.8552 144.49 35.8523 144.49C34.8711 144.49 34.1877 145.334 34.1877 147.021C34.1877 148.708 34.8711 149.551 35.8523 149.551C36.8552 149.551 37.5162 148.73 37.5162 147.021ZM45.3595 142.802H48.0734L37.1753 158.762H34.4614L45.3595 142.802ZM42.7376 154.544C42.7376 151.855 44.3799 150.144 46.6824 150.144C49.0082 150.144 50.6496 151.855 50.6496 154.544C50.6496 157.234 49.0082 158.945 46.6824 158.945C44.3791 158.945 42.7376 157.234 42.7376 154.544ZM48.3463 154.544C48.3463 152.857 47.6852 152.014 46.6816 152.014C45.7012 152.014 45.0177 152.834 45.0177 154.544C45.0177 156.255 45.7012 157.075 46.6816 157.075C47.6852 157.075 48.3463 156.232 48.3463 154.544Z" fill="white"/>
<path d="M239.668 40.5455C240.573 45.4259 244.391 49.2443 249.272 50.1495C244.391 51.0547 240.573 54.873 239.668 59.7535C238.762 54.873 234.944 51.0547 230.064 50.1495C234.944 49.2443 238.762 45.4259 239.668 40.5455Z" fill="url(#paint11_linear_301_1205)"/>
<path d="M36.098 94.7412C37.0032 99.6216 40.8216 103.44 45.702 104.345C40.8216 105.25 37.0032 109.069 36.098 113.949C35.1929 109.069 31.3745 105.25 26.4941 104.345C31.3745 103.441 35.1929 99.6224 36.098 94.7412Z" fill="url(#paint12_linear_301_1205)"/>
<path d="M224.531 220.032C225.146 223.351 227.744 225.949 231.064 226.565C227.744 227.18 225.146 229.778 224.531 233.098C223.916 229.778 221.318 227.18 217.998 226.565C221.318 225.949 223.916 223.352 224.531 220.032Z" fill="url(#paint13_linear_301_1205)"/>
<path d="M72.6804 0C73.2958 3.31977 75.8937 5.91764 79.2135 6.53309C75.8937 7.14854 73.2958 9.74642 72.6804 13.0662C72.0649 9.74642 69.4671 7.14854 66.1473 6.53309C69.4671 5.91844 72.0649 3.32057 72.6804 0Z" fill="url(#paint14_linear_301_1205)"/>
<path d="M246.201 136.577C246.816 139.897 249.414 142.495 252.734 143.11C249.414 143.726 246.816 146.324 246.201 149.644C245.585 146.324 242.987 143.726 239.668 143.11C242.987 142.495 245.585 139.897 246.201 136.577Z" fill="url(#paint15_linear_301_1205)"/>
<path d="M99.7515 94.7413L88.3908 81.3526H39.2978C33.2481 81.3526 28.3429 76.4482 28.3429 70.3977V47.6771C28.3429 41.6274 33.2473 36.7222 39.2978 36.7222H88.7966C94.8471 36.7222 99.7515 41.6266 99.7515 47.6771V94.7413Z" fill="url(#paint16_linear_301_1205)"/>
<path d="M86.4981 46.8485H41.5972C40.9337 46.8485 40.3967 46.3115 40.3967 45.648C40.3967 44.9846 40.9337 44.4475 41.5972 44.4475H86.4981C87.1616 44.4475 87.6986 44.9846 87.6986 45.648C87.6986 46.3115 87.1616 46.8485 86.4981 46.8485Z" fill="#F0EBFF"/>
<path d="M86.4981 55.9099H41.5972C40.9337 55.9099 40.3967 55.3729 40.3967 54.7094C40.3967 54.0459 40.9337 53.5089 41.5972 53.5089H86.4981C87.1616 53.5089 87.6986 54.0459 87.6986 54.7094C87.6986 55.3729 87.1616 55.9099 86.4981 55.9099Z" fill="#F0EBFF"/>
<path d="M86.4981 64.9712H41.5972C40.9337 64.9712 40.3967 64.4342 40.3967 63.7707C40.3967 63.1073 40.9337 62.5702 41.5972 62.5702H86.4981C87.1616 62.5702 87.6986 63.1073 87.6986 63.7707C87.6986 64.4342 87.1616 64.9712 86.4981 64.9712Z" fill="#F0EBFF"/>
<path d="M86.4981 74.0326H41.5972C40.9337 74.0326 40.3967 73.4956 40.3967 72.8321C40.3967 72.1686 40.9337 71.6316 41.5972 71.6316H86.4981C87.1616 71.6316 87.6986 72.1686 87.6986 72.8321C87.6986 73.4948 87.1616 74.0326 86.4981 74.0326Z" fill="#F0EBFF"/>
<path d="M92.3037 234.178C108.082 234.178 120.873 221.387 120.873 205.609C120.873 189.83 108.082 177.039 92.3037 177.039C76.5253 177.039 63.7343 189.83 63.7343 205.609C63.7343 221.387 76.5253 234.178 92.3037 234.178Z" fill="url(#paint17_linear_301_1205)"/>
<path d="M92.3034 228.822C105.123 228.822 115.516 218.429 115.516 205.609C115.516 192.789 105.123 182.396 92.3034 182.396C79.4833 182.396 69.0906 192.789 69.0906 205.609C69.0906 218.429 79.4833 228.822 92.3034 228.822Z" fill="url(#paint18_linear_301_1205)"/>
<path d="M99.4352 202.898C93.4079 201.81 90.999 197.464 90.8165 194.567C90.634 191.671 89.5175 189.572 87.4215 190.615C85.3254 191.66 84.83 197.686 86.0657 200.855C80.7035 200.022 75.6999 200.655 75.2093 203.295C80.449 207.922 78.6266 213.212 76.6754 215.807C79.2221 217.597 90.4939 218.525 93.2479 218.108C96.0018 217.691 98.2924 213.835 100.797 213.94C103.301 214.045 105.805 214.151 105.805 214.151L106.254 203.451C106.254 203.451 102.452 203.442 99.4352 202.898Z" fill="url(#paint19_linear_301_1205)"/>
<path d="M94.0113 210.296C91.1941 209.435 88.89 206.32 88.401 205.111C88.4258 207.67 91.6935 210.35 94.0113 210.296Z" fill="#F9E6E1"/>
<path d="M80.0523 216.937C83.8715 217.43 86.4462 216.857 87.4146 215.491C88.3822 214.125 87.5858 212.927 86.4958 212.159L80.0523 216.937Z" fill="#F9E6E1"/>
<path d="M85.9588 212.522C87.2329 212.826 88.1933 215.075 85.6195 216.116C83.0456 217.158 78.823 217.482 76.4533 215.765C75.4064 215.007 75.1359 213.105 78.1772 212.415C81.2184 211.724 84.1637 212.094 85.9588 212.522Z" fill="url(#paint20_linear_301_1205)"/>
<path d="M77.324 213.497C79.801 214.179 84.7711 214.729 86.7367 212.991C88.7023 211.254 86.0108 208.873 86.0108 208.873L77.324 213.497Z" fill="#F9E6E1"/>
<path d="M85.3537 208.932C86.6278 209.237 88.1413 212.055 85.5682 213.096C82.9943 214.137 76.0915 213.851 75.3952 212.762C74.6989 211.673 74.6781 209.709 77.7193 209.018C80.7598 208.328 83.5578 208.504 85.3537 208.932Z" fill="url(#paint21_linear_301_1205)"/>
<path d="M85.9865 205.088C87.6952 206.774 87.4287 208.364 86.9661 209.019C86.5035 209.674 85.0789 210.939 78.5458 210.032C78.9724 209.979 85.9865 205.088 85.9865 205.088Z" fill="#F9E6E1"/>
<path d="M85.0888 205.121C86.4597 205.449 88.1892 208.773 85.3193 209.602C82.7046 210.356 75.3071 210.314 74.558 209.142C73.8089 207.971 73.7865 205.857 77.0591 205.113C80.3316 204.37 83.156 204.66 85.0888 205.121Z" fill="url(#paint22_linear_301_1205)"/>
<path d="M86.485 202.247C87.4278 203.608 87.4854 204.65 86.9652 205.354C86.4442 206.059 80.5434 206.567 77.6462 205.768L86.485 202.247Z" fill="#F9E6E1"/>
<path d="M84.0456 200.552C86.5202 200.909 88.461 204.785 85.4822 205.44C82.7939 206.031 76.0343 206.178 75.2852 205.006C74.5361 203.835 74.1351 201.622 77.4077 200.879C80.681 200.135 82.3897 200.313 84.0456 200.552Z" fill="url(#paint23_linear_301_1205)"/>
<path d="M102.37 203.206C102.178 203.659 101.273 213.375 101.957 214.005C102.641 214.635 106.927 214.121 106.927 214.121C106.927 214.121 107.837 204.14 107.576 203.422C107.314 202.704 102.929 202.958 102.37 203.206Z" fill="url(#paint24_linear_301_1205)"/>
<path d="M104.055 202.579C103.836 203.097 103.027 214.301 103.876 215.049C104.724 215.797 109.911 215.331 109.911 215.331C109.911 215.331 110.717 203.822 110.378 202.984C110.039 202.147 104.725 202.308 104.055 202.579Z" fill="url(#paint25_linear_301_1205)"/>
<defs>
<linearGradient id="paint0_linear_301_1205" x1="204.441" y1="-71.9724" x2="122.39" y2="209.257" gradientUnits="userSpaceOnUse">
<stop stop-color="#F5F0FF"/>
<stop offset="0.9959" stop-color="#D2C1F7"/>
</linearGradient>
<linearGradient id="paint1_linear_301_1205" x1="145.311" y1="26.3068" x2="150.74" y2="240.517" gradientUnits="userSpaceOnUse">
<stop stop-color="#54534B"/>
<stop offset="0.9959" stop-color="#1A1248"/>
</linearGradient>
<linearGradient id="paint2_linear_301_1205" x1="77.3113" y1="95.1215" x2="186.295" y2="159.009" gradientUnits="userSpaceOnUse">
<stop stop-color="#9571CB"/>
<stop offset="0.2434" stop-color="#8E69CA"/>
<stop offset="0.6169" stop-color="#7B54C5"/>
<stop offset="1" stop-color="#6237C0"/>
</linearGradient>
<linearGradient id="paint3_linear_301_1205" x1="193.776" y1="183.66" x2="177.491" y2="177.24" gradientUnits="userSpaceOnUse">
<stop stop-color="#F5F0FF"/>
<stop offset="0.6951" stop-color="#D2C1F7"/>
<stop offset="1" stop-color="#DCCEF9"/>
</linearGradient>
<linearGradient id="paint4_linear_301_1205" x1="87.4809" y1="111.995" x2="109.359" y2="117.394" gradientUnits="userSpaceOnUse">
<stop stop-color="#54534B"/>
<stop offset="0.9959" stop-color="#DE6D0A"/>
</linearGradient>
<linearGradient id="paint5_linear_301_1205" x1="191.324" y1="56.2388" x2="205.964" y2="88.7737" gradientUnits="userSpaceOnUse">
<stop stop-color="#9571CB"/>
<stop offset="0.9959" stop-color="#6237C0"/>
</linearGradient>
<linearGradient id="paint6_linear_301_1205" x1="192.696" y1="59.2878" x2="204.591" y2="85.7225" gradientUnits="userSpaceOnUse">
<stop stop-color="#F5F0FF"/>
<stop offset="0.9959" stop-color="#D2C1F7"/>
</linearGradient>
<linearGradient id="paint7_linear_301_1205" x1="196.017" y1="66.1114" x2="202.634" y2="80.8161" gradientUnits="userSpaceOnUse">
<stop stop-color="#FAAD1E"/>
<stop offset="0.9959" stop-color="#F2830B"/>
</linearGradient>
<linearGradient id="paint8_linear_301_1205" x1="152.049" y1="55.4046" x2="159.636" y2="72.2652" gradientUnits="userSpaceOnUse">
<stop stop-color="#F5F0FF"/>
<stop offset="0.9959" stop-color="#D2C1F7"/>
</linearGradient>
<linearGradient id="paint9_linear_301_1205" x1="154.411" y1="58.3933" x2="157.273" y2="64.7545" gradientUnits="userSpaceOnUse">
<stop stop-color="#FAAD1E"/>
<stop offset="0.9959" stop-color="#F2830B"/>
</linearGradient>
<linearGradient id="paint10_linear_301_1205" x1="155.317" y1="67.6451" x2="156.367" y2="69.98" gradientUnits="userSpaceOnUse">
<stop stop-color="#FAAD1E"/>
<stop offset="0.9959" stop-color="#F2830B"/>
</linearGradient>
<linearGradient id="paint11_linear_301_1205" x1="236.47" y1="43.0451" x2="242.866" y2="57.2582" gradientUnits="userSpaceOnUse">
<stop stop-color="#9571CB"/>
<stop offset="0.9959" stop-color="#6237C0"/>
</linearGradient>
<linearGradient id="paint12_linear_301_1205" x1="32.901" y1="97.2411" x2="39.297" y2="111.454" gradientUnits="userSpaceOnUse">
<stop stop-color="#9571CB"/>
<stop offset="0.9959" stop-color="#6237C0"/>
</linearGradient>
<linearGradient id="paint13_linear_301_1205" x1="222.356" y1="221.732" x2="226.707" y2="231.401" gradientUnits="userSpaceOnUse">
<stop stop-color="#263681"/>
<stop offset="0.9959" stop-color="#1A1248"/>
</linearGradient>
<linearGradient id="paint14_linear_301_1205" x1="70.5056" y1="1.70078" x2="74.8565" y2="11.3694" gradientUnits="userSpaceOnUse">
<stop stop-color="#263681"/>
<stop offset="0.9959" stop-color="#1A1248"/>
</linearGradient>
<linearGradient id="paint15_linear_301_1205" x1="244.026" y1="138.278" x2="248.377" y2="147.946" gradientUnits="userSpaceOnUse">
<stop stop-color="#263681"/>
<stop offset="0.9959" stop-color="#1A1248"/>
</linearGradient>
<linearGradient id="paint16_linear_301_1205" x1="52.9156" y1="34.2993" x2="81.6466" y2="98.1462" gradientUnits="userSpaceOnUse">
<stop offset="0.0041" stop-color="white"/>
<stop offset="1" stop-color="#F5F0FF"/>
</linearGradient>
<linearGradient id="paint17_linear_301_1205" x1="81.8722" y1="182.428" x2="103.596" y2="230.702" gradientUnits="userSpaceOnUse">
<stop stop-color="#9571CB"/>
<stop offset="0.0962" stop-color="#8A64C9"/>
<stop offset="0.3212" stop-color="#744BC4"/>
<stop offset="0.5271" stop-color="#673CC1"/>
<stop offset="0.6948" stop-color="#6237C0"/>
</linearGradient>
<linearGradient id="paint18_linear_301_1205" x1="83.8278" y1="186.775" x2="100.784" y2="224.455" gradientUnits="userSpaceOnUse">
<stop stop-color="#F5F0FF"/>
<stop offset="0.9959" stop-color="#D2C1F7"/>
</linearGradient>
<linearGradient id="paint19_linear_301_1205" x1="93.2195" y1="192.297" x2="89.0159" y2="217.752" gradientUnits="userSpaceOnUse">
<stop stop-color="#FFC085"/>
<stop offset="1" stop-color="#FA976E"/>
</linearGradient>
<linearGradient id="paint20_linear_301_1205" x1="79.5634" y1="217.551" x2="82.7778" y2="212.207" gradientUnits="userSpaceOnUse">
<stop stop-color="#FFC085"/>
<stop offset="1" stop-color="#FA976E"/>
</linearGradient>
<linearGradient id="paint21_linear_301_1205" x1="78.9" y1="214.832" x2="82.4365" y2="208.952" gradientUnits="userSpaceOnUse">
<stop stop-color="#FFC085"/>
<stop offset="1" stop-color="#FA976E"/>
</linearGradient>
<linearGradient id="paint22_linear_301_1205" x1="78.3258" y1="211.365" x2="82.0528" y2="205.168" gradientUnits="userSpaceOnUse">
<stop stop-color="#FFC085"/>
<stop offset="1" stop-color="#FA976E"/>
</linearGradient>
<linearGradient id="paint23_linear_301_1205" x1="75.5495" y1="201.058" x2="86.3581" y2="205.64" gradientUnits="userSpaceOnUse">
<stop stop-color="#FFC085"/>
<stop offset="1" stop-color="#FA976E"/>
</linearGradient>
<linearGradient id="paint24_linear_301_1205" x1="104.981" y1="203.64" x2="104.077" y2="215.515" gradientUnits="userSpaceOnUse">
<stop stop-color="#F5F0FF"/>
<stop offset="0.9959" stop-color="#D2C1F7"/>
</linearGradient>
<linearGradient id="paint25_linear_301_1205" x1="107.23" y1="202.707" x2="106.609" y2="215.433" gradientUnits="userSpaceOnUse">
<stop stop-color="#263681"/>
<stop offset="0.9959" stop-color="#1A1248"/>
</linearGradient>
</defs>
</svg>
