<svg width="31" height="11" viewBox="0 0 31 11" fill="none" xmlns="http://www.w3.org/2000/svg">
<path d="M4.91424 7.82972L1.76368 9.82779L3.0239 6.41042L0.503453 3.83357H3.65402L4.91424 0.503453L6.17447 3.83357H9.32503L6.80458 6.49767L8.0648 9.82779L4.91424 7.82972Z" fill="#FCA919" stroke="white" stroke-linecap="round" stroke-linejoin="round"/>
<path d="M15.5005 7.82972L12.35 9.82779L13.6102 6.41042L11.0897 3.83357H14.2403L15.5005 0.503453L16.7608 3.83357H19.9113L17.3909 6.49767L18.6511 9.82779L15.5005 7.82972Z" fill="#FCA919" stroke="white" stroke-linecap="round" stroke-linejoin="round"/>
<path d="M26.0858 7.82972L22.9353 9.82779L24.1955 6.41042L21.675 3.83357H24.8256L26.0858 0.503453L27.3461 3.83357H30.4966L27.9762 6.49767L29.2364 9.82779L26.0858 7.82972Z" fill="#FCA919" stroke="white" stroke-linecap="round" stroke-linejoin="round"/>
</svg>
