<svg width="14" height="14" viewBox="0 0 14 14" fill="none" xmlns="http://www.w3.org/2000/svg">
<g clip-path="url(#clip0_301_2802)">
<path d="M10.2433 12.2498C10.15 12.2502 10.058 12.2282 9.97498 12.1856L6.99998 10.6281L4.02498 12.1856C3.92838 12.2364 3.81946 12.2591 3.71061 12.2511C3.60176 12.2431 3.49735 12.2047 3.40923 12.1402C3.32112 12.0758 3.25285 11.988 3.21218 11.8867C3.1715 11.7854 3.16006 11.6748 3.17915 11.5673L3.76248 8.28313L1.35915 5.94979C1.28417 5.87497 1.23098 5.78113 1.20528 5.67836C1.17959 5.5756 1.18237 5.46777 1.21332 5.36646C1.24713 5.26279 1.30932 5.17067 1.39284 5.10055C1.47636 5.03044 1.57786 4.98514 1.68582 4.96979L5.01082 4.48563L6.47498 1.49313C6.52275 1.3945 6.59733 1.31133 6.69018 1.25313C6.78303 1.19493 6.8904 1.16406 6.99998 1.16406C7.10957 1.16406 7.21693 1.19493 7.30979 1.25313C7.40264 1.31133 7.47722 1.3945 7.52498 1.49313L9.00665 4.47979L12.3316 4.96396C12.4396 4.97931 12.5411 5.0246 12.6246 5.09472C12.7081 5.16483 12.7703 5.25695 12.8042 5.36063C12.8351 5.46194 12.8379 5.56976 12.8122 5.67253C12.7865 5.7753 12.7333 5.86913 12.6583 5.94396L10.255 8.27729L10.8383 11.5615C10.8591 11.6708 10.8482 11.7839 10.8069 11.8872C10.7655 11.9906 10.6955 12.08 10.605 12.1448C10.4994 12.2188 10.3722 12.2557 10.2433 12.2498Z" fill="#FCA919"/>
</g>
<defs>
<clipPath id="clip0_301_2802">
<rect width="14" height="14" fill="white"/>
</clipPath>
</defs>
</svg>
