<svg width="10" height="14" viewBox="0 0 10 14" fill="none" xmlns="http://www.w3.org/2000/svg">
<mask id="mask0_301_666" style="mask-type:alpha" maskUnits="userSpaceOnUse" x="-5" y="-2" width="20" height="19">
<rect x="-4.81468" y="-1.89179" width="19.2581" height="18.1621" fill="#D9D9D9"/>
</mask>
<g mask="url(#mask0_301_666)">
<path d="M0 13.9999V12.4864L0.330998 12.2972C0.551664 12.1711 0.79239 11.9851 1.05318 11.7391C1.31396 11.4932 1.55135 11.1779 1.76532 10.7932C1.9793 10.4085 2.08629 9.9639 2.08629 9.4594C2.08629 9.32066 2.07626 9.18823 2.0562 9.06211C2.03614 8.93598 2.01274 8.81616 1.98599 8.70265H0V7.18914H1.20363C0.922783 6.77293 0.651966 6.33465 0.39118 5.87429C0.130393 5.41393 0 4.84321 0 4.16214C0 3.00178 0.427957 2.01801 1.28387 1.2108C2.13979 0.403601 3.18293 0 4.41331 0C5.36284 0 6.20538 0.245944 6.94093 0.737833C7.67648 1.22972 8.20474 1.86666 8.52571 2.64863L7.04124 3.23512C6.84063 2.73061 6.50294 2.31755 6.02818 1.99593C5.55342 1.67431 5.01512 1.5135 4.41331 1.5135C3.63764 1.5135 2.97564 1.77206 2.42732 2.28917C1.879 2.80629 1.60484 3.43061 1.60484 4.16214C1.60484 4.76754 1.76532 5.27204 2.08629 5.67564C2.40726 6.07924 2.73491 6.58374 3.06926 7.18914H6.41936V8.70265H3.63095C3.6577 8.81616 3.67441 8.93598 3.6811 9.06211C3.68779 9.18823 3.69113 9.32066 3.69113 9.4594C3.69113 10.09 3.57411 10.6576 3.34007 11.1621C3.10603 11.6666 2.82184 12.108 2.4875 12.4864H6.41936C6.95431 12.4864 7.3622 12.354 7.64305 12.0891C7.9239 11.8243 8.11782 11.4837 8.2248 11.0675L9.62904 11.7297C9.48193 12.4233 9.10412 12.9751 8.49562 13.3851C7.88712 13.795 7.19503 13.9999 6.41936 13.9999H0Z" fill="#EE6B8D"/>
</g>
</svg>
