<svg width="19" height="16" viewBox="0 0 19 16" fill="none" xmlns="http://www.w3.org/2000/svg">
<path fill-rule="evenodd" clip-rule="evenodd" d="M0 2C0 0.895431 1.0311 0 2.30303 0H14.1061C15.378 0 16.4091 0.895431 16.4091 2V3C17.681 3 18.7121 3.89543 18.7121 5V14C18.7121 15.1046 17.681 16 16.4091 16H2.30303C1.0311 16 0 15.1046 0 14V2ZM14.6818 3V2C14.6818 1.72386 14.424 1.5 14.1061 1.5H2.30303C1.98505 1.5 1.72727 1.72386 1.72727 2V3H14.6818ZM1.72727 4.5V14C1.72727 14.2761 1.98505 14.5 2.30303 14.5H16.4091C16.7271 14.5 16.9848 14.2761 16.9848 14V12H14.1061C12.5162 12 11.2273 10.8807 11.2273 9.5C11.2273 8.11929 12.5162 7 14.1061 7H16.9848V5C16.9848 4.72386 16.7271 4.5 16.4091 4.5H1.72727ZM16.9848 8.5H14.1061C13.4701 8.5 12.9545 8.94772 12.9545 9.5C12.9545 10.0523 13.4701 10.5 14.1061 10.5H16.9848V8.5Z" fill="#86878B"/>
</svg>
