<svg width="108" height="17" viewBox="0 0 108 17" fill="none" xmlns="http://www.w3.org/2000/svg">
<path fill-rule="evenodd" clip-rule="evenodd" d="M8.62984 13.611L3.29627 16.4151L4.31489 10.476L-6.08761e-05 6.26999L5.96306 5.4035L8.62984 0L11.2966 5.4035L17.2597 6.26999L12.9448 10.476L13.9634 16.4151L8.62984 13.611Z" fill="#175C4C"/>
<path fill-rule="evenodd" clip-rule="evenodd" d="M31.3149 13.611L25.9813 16.4151L26.9999 10.476L22.685 6.26999L28.6481 5.4035L31.3149 0L33.9817 5.4035L39.9448 6.26999L35.6298 10.476L36.6485 16.4151L31.3149 13.611Z" fill="#175C4C"/>
<path fill-rule="evenodd" clip-rule="evenodd" d="M53.9999 13.611L48.6664 16.4151L49.685 10.476L45.37 6.26999L51.3332 5.4035L53.9999 0L56.6667 5.4035L62.6298 6.26999L58.3149 10.476L59.3335 16.4151L53.9999 13.611Z" fill="#175C4C"/>
<path fill-rule="evenodd" clip-rule="evenodd" d="M76.685 13.611L71.3514 16.4151L72.37 10.476L68.0551 6.26999L74.0182 5.4035L76.685 0L79.3518 5.4035L85.3149 6.26999L80.9999 10.476L82.0186 16.4151L76.685 13.611Z" fill="#175C4C"/>
<path fill-rule="evenodd" clip-rule="evenodd" d="M99.37 13.611L94.0365 16.4151L95.0551 10.476L90.7401 6.26999L96.7032 5.4035L99.37 0L102.037 5.4035L108 6.26999L103.685 10.476L104.704 16.4151L99.37 13.611Z" fill="#CFCFCF"/>
</svg>
