<svg width="48" height="15" viewBox="0 0 48 15" fill="none" xmlns="http://www.w3.org/2000/svg">
<path d="M21.0186 0.248324C20.0718 0.248324 19.263 0.930995 19.1039 1.86434L17.3029 12.4332C17.1009 13.6188 18.0143 14.7009 19.2169 14.7009C20.1632 14.7009 20.9717 14.0187 21.1308 13.0858L22.9333 2.51714C23.1355 1.33109 22.2218 0.248324 21.0186 0.248324Z" fill="white"/>
<path d="M14.9063 0.26353C14.1267 0.264098 13.4269 0.742029 13.1428 1.46803L10.3188 8.68294C10.1387 9.14312 9.47637 9.10884 9.34472 8.63253C8.2354 6.01801 5.39471 7.78825 6.19249 10.514L6.79167 12.5612C7.16147 13.8248 8.32129 14.6923 9.63782 14.69C10.8189 14.688 11.8857 13.9842 12.3523 12.8992L16.6489 2.90756C17.187 1.6561 16.2686 0.262538 14.9063 0.26353Z" fill="white"/>
<path d="M7.84942 1.29882C7.62046 0.41845 6.95689 0.156062 6.13326 0.124657H0.164343C0.0845687 0.124657 0.016314 0.181944 0.00248197 0.26051C-0.0125517 0.345901 0.0421024 0.428388 0.126186 0.449544C2.08057 0.941294 3.75868 1.70992 5.14404 2.67989C5.69333 3.06448 7.98599 1.95531 7.84942 1.29882Z" fill="white"/>
<path d="M31.3033 3.01898C32.5919 2.99872 33.526 3.28036 34.2513 3.57213C34.4301 3.65615 34.6397 3.54664 34.6728 3.35193L34.9344 1.81458C35.0536 1.11344 34.6598 0.416224 33.9662 0.258991C33.3057 0.10927 32.5112 0 31.6112 0C27.719 0 24.9756 1.96031 24.9543 4.76959C24.929 6.84539 26.9085 8.00436 28.4038 8.69629C29.9386 9.40545 30.4533 9.85627 30.4462 10.4894C30.434 11.4569 29.2224 11.9007 28.0908 11.9007C26.5134 11.9007 25.6756 11.6829 24.3819 11.1439C24.1254 11.0272 23.8278 11.1847 23.7802 11.4626L23.5286 12.9312C23.4061 13.6459 23.7885 14.3546 24.4928 14.5272C25.398 14.749 26.5392 14.9055 27.7089 14.9176C31.8493 14.9176 34.5401 12.9806 34.5684 9.97885C34.5857 8.33665 33.5351 7.08347 31.2587 6.05519C29.8809 5.38453 29.038 4.93877 29.0461 4.26203C29.0461 3.66128 29.7614 3.01898 31.3033 3.01898Z" fill="white"/>
<path fill-rule="evenodd" clip-rule="evenodd" d="M42.2051 0.2644C43.9826 0.2644 45.5211 1.50041 45.9041 3.23622L47.9574 12.5422C48.2029 13.6548 47.356 14.7089 46.2166 14.7089H45.898C45.2461 14.7089 44.7233 14.4421 44.583 13.8055C44.4443 13.1758 43.8452 12.5437 43.2005 12.5428C42.7063 12.5422 42.1124 12.5414 41.5357 12.5407C41.1402 12.5401 40.7529 12.5396 40.4114 12.5392C39.715 12.5383 39.0368 13.1095 38.7893 13.7604C38.5393 14.4181 37.9639 14.7089 37.2603 14.7089H37.1457C35.8025 14.7089 34.9027 13.328 35.4452 12.0992L40.1414 1.46389C40.5568 0.521723 41.2598 0.2644 42.2051 0.2644ZM42.145 5.05098C42.1303 5.08917 41.7846 5.99221 41.7698 6.03036C41.4587 6.83219 40.843 8.41825 40.5212 9.24474C40.4583 9.40639 40.578 9.57969 40.7514 9.57969H42.1609C42.9327 9.57969 43.5068 8.86636 43.3419 8.11242L42.7501 5.4068L42.6832 5.09266C42.6252 4.82068 42.2448 4.79143 42.145 5.05098Z" fill="white"/>
</svg>
