<svg width="25" height="25" viewBox="0 0 25 25" fill="none" xmlns="http://www.w3.org/2000/svg">
<g clip-path="url(#clip0_301_1626)">
<path d="M12.5 0C5.60762 0 0 5.60762 0 12.5C0 19.3924 5.60762 25 12.5 25C19.3924 25 25 19.3924 25 12.5C25 5.60762 19.3924 0 12.5 0ZM12.5 3.64585C15.8025 3.64585 18.4896 6.33291 18.4896 9.63545C18.4896 12.938 15.8025 15.625 12.5 15.625C9.19751 15.625 6.5104 12.9379 6.5104 9.6354C6.5104 6.33286 9.19751 3.64585 12.5 3.64585ZM12.5 22.9167C9.09634 22.9167 6.07812 21.2685 4.17612 18.7362C6.25991 17.7336 9.23574 16.6667 12.5 16.6667C15.7645 16.6667 18.7406 17.7337 20.8239 18.7361C18.9219 21.2684 15.9037 22.9167 12.5 22.9167Z" fill="#7960FB"/>
</g>
<defs>
<clipPath id="clip0_301_1626">
<rect width="25" height="25" fill="white"/>
</clipPath>
</defs>
</svg>
