<svg width="19" height="19" viewBox="0 0 19 19" fill="none" xmlns="http://www.w3.org/2000/svg">
<path d="M11.5077 17.2488V12.7458C11.5077 12.5467 11.4286 12.3558 11.2879 12.2151C11.1471 12.0743 10.9562 11.9953 10.7572 11.9953H7.75518C7.55614 11.9953 7.36524 12.0743 7.2245 12.2151C7.08375 12.3558 7.00468 12.5467 7.00468 12.7458V17.2488C7.00468 17.4478 6.92561 17.6387 6.78486 17.7795C6.64412 17.9202 6.45322 17.9993 6.25418 17.9993H1.75117C1.55212 17.9993 1.36123 17.9202 1.22049 17.7795C1.07974 17.6387 1.00067 17.4478 1.00067 17.2488V8.57111C1.00235 8.46725 1.02479 8.36477 1.06668 8.26971C1.10857 8.17466 1.16906 8.08894 1.24458 8.01762L8.7496 1.19744C8.88795 1.07086 9.06867 1.00067 9.25618 1.00067C9.4437 1.00067 9.62442 1.07086 9.76277 1.19744L17.2678 8.01762C17.3433 8.08894 17.4038 8.17466 17.4457 8.26971C17.4876 8.36477 17.51 8.46725 17.5117 8.57111V17.2488C17.5117 17.4478 17.4326 17.6387 17.2919 17.7795C17.1511 17.9202 16.9602 17.9993 16.7612 17.9993H12.2582C12.0591 17.9993 11.8683 17.9202 11.7275 17.7795C11.5868 17.6387 11.5077 17.4478 11.5077 17.2488Z" stroke="black" stroke-width="2" stroke-linecap="round" stroke-linejoin="round"/>
</svg>
