<svg width="20" height="20" viewBox="0 0 20 20" fill="none" xmlns="http://www.w3.org/2000/svg">
<path d="M5.58928 4.41058C5.26384 4.08514 4.7362 4.08514 4.41076 4.41058C4.08533 4.73602 4.08533 5.26366 4.41076 5.58909L8.82152 9.99985L4.41079 14.4106C4.08535 14.736 4.08535 15.2637 4.41079 15.5891C4.73623 15.9145 5.26386 15.9145 5.5893 15.5891L10 11.1784L14.4108 15.5891C14.7362 15.9145 15.2638 15.9145 15.5893 15.5891C15.9147 15.2637 15.9147 14.736 15.5893 14.4106L11.1785 9.99985L15.5893 5.58909C15.9147 5.26366 15.9147 4.73602 15.5893 4.41058C15.2639 4.08515 14.7362 4.08515 14.4108 4.41058L10 8.82134L5.58928 4.41058Z" fill="#33383F"/>
</svg>
