<svg width="15" height="16" viewBox="0 0 15 16" fill="none" xmlns="http://www.w3.org/2000/svg">
<path d="M10.9756 14C10.8756 14.0004 10.777 13.9753 10.6881 13.9266L7.50058 12.1466L4.31308 13.9266C4.20958 13.9847 4.09288 14.0106 3.97626 14.0014C3.85963 13.9923 3.74776 13.9484 3.65335 13.8748C3.55895 13.8012 3.4858 13.7008 3.44222 13.585C3.39864 13.4693 3.38638 13.3428 3.40683 13.22L4.03183 9.46664L1.45683 6.79997C1.3765 6.71446 1.3195 6.60722 1.29198 6.48977C1.26445 6.37232 1.26742 6.24909 1.30058 6.13331C1.33681 6.01482 1.40344 5.90954 1.49293 5.82941C1.58241 5.74928 1.69116 5.69751 1.80683 5.67997L5.36933 5.12664L6.93808 1.70664C6.98926 1.59393 7.06917 1.49887 7.16865 1.43236C7.26814 1.36584 7.38317 1.33057 7.50058 1.33057C7.61799 1.33057 7.73303 1.36584 7.83251 1.43236C7.932 1.49887 8.0119 1.59393 8.06308 1.70664L9.65058 5.11997L13.2131 5.67331C13.3288 5.69084 13.4375 5.74261 13.527 5.82274C13.6165 5.90288 13.6831 6.00816 13.7193 6.12664C13.7525 6.24242 13.7555 6.36565 13.7279 6.4831C13.7004 6.60055 13.6434 6.70779 13.5631 6.79331L10.9881 9.45997L11.6131 13.2133C11.6354 13.3383 11.6237 13.4675 11.5794 13.5856C11.5351 13.7037 11.46 13.8059 11.3631 13.88C11.2499 13.9646 11.1136 14.0068 10.9756 14Z" fill="#EA830A"/>
</svg>
